<svg xmlns="http://www.w3.org/2000/svg" viewBox="0 0 125.7 118.4"><defs><style>.cls-1{fill:#e4d5ff;}.cls-2{fill:#9e66ff;}.cls-3{fill:#d0b5ff;}.cls-4{fill:#5aab61;}.cls-5{fill:#62bd69;}.cls-6{fill:#8b632f;}</style></defs><g id="Layer_2" data-name="Layer 2"><g id="chair"><path d="M88.15,33.72H87a.24.24,0,0,0-.22.23.22.22,0,0,0,.22.22h1.15a.23.23,0,1,0,0-.45Z"/><path d="M84.88,33.13a8.18,8.18,0,0,0-6-2.27c-.29,0-.29.46,0,.45a7.74,7.74,0,0,1,5.64,2.13c.21.21.53-.11.32-.31Z"/><path d="M79.68,30.88a1.1,1.1,0,0,1,.84.2l.16-.38a14,14,0,0,1-5.14-1.54c-.26-.14-.48.25-.23.38a14.47,14.47,0,0,0,5.37,1.61.23.23,0,0,0,.15-.39,1.54,1.54,0,0,0-1.15-.33c-.29,0-.29.48,0,.45Z"/><path d="M77.85,29.91a1.82,1.82,0,0,1,.65-.12l.13,0c.13,0,.17.06.09.13l0,0c-.07,0-.07,0,0,.06l-.27.28c.66.19.7.94.46,1.48s-.69,1.07-.94,1.66a5.24,5.24,0,0,0-.14,3.72c.1.27.53.16.44-.12a4.93,4.93,0,0,1,.66-4.4A2.53,2.53,0,0,0,79.43,31a1.28,1.28,0,0,0-.92-1.09.23.23,0,0,0-.28.27c.17.53.87.25,1-.18.17-.8-1.07-.63-1.47-.5s-.15.53.12.43Z"/><path d="M77.26,30.94a10.72,10.72,0,0,0-1.88,8.86.23.23,0,0,0,.33.13l.86-.41-.3-.08a2.16,2.16,0,0,1,0,2.32l.31-.08-.89-.41c-.26-.12-.49.27-.23.39l.89.41A.24.24,0,0,0,76.7,42a2.59,2.59,0,0,0,0-2.77.23.23,0,0,0-.3-.09l-.86.41.33.14a10.25,10.25,0,0,1,1.83-8.51c.17-.24-.22-.46-.39-.23Z"/><path d="M81.44,36a1,1,0,0,1,1.15,0l0-.36a1.46,1.46,0,0,1-1.07.25.22.22,0,0,0-.12.43.38.38,0,0,1,.13.65l.16-.07a2.36,2.36,0,0,1-1.3-.46c-.18-.14-.36.08-.33.25l.3,1.9a.23.23,0,0,0,.28.15.22.22,0,0,0,.16-.27l-.31-1.9-.33.26a2.93,2.93,0,0,0,.89.43,3,3,0,0,0,.51.08.33.33,0,0,0,.29-.06.86.86,0,0,0,.13-.14.84.84,0,0,0-.46-1.25l-.12.43A1.88,1.88,0,0,0,82.87,36a.23.23,0,0,0,0-.35,1.43,1.43,0,0,0-1.7-.06.25.25,0,0,0-.08.31.24.24,0,0,0,.31.08Z"/><path d="M78.94,38.45a9.55,9.55,0,0,0-1.26,4.2c0,.29.44.28.45,0a9,9,0,0,1,1.2-4c.14-.26-.25-.48-.39-.23Z"/><path d="M78,39.58l.49,12.7.38-.16a5.87,5.87,0,0,1-1.65-6.28c.1-.27-.33-.39-.43-.12a6.3,6.3,0,0,0,1.77,6.72.23.23,0,0,0,.38-.16l-.49-12.7c0-.29-.46-.29-.45,0Z"/><path d="M76.83,43.62a3.82,3.82,0,0,0-1.31-1.54,3.94,3.94,0,0,1-.78-.8,2,2,0,0,1-.19-1.47,6.34,6.34,0,0,0,.26-2.29,1.69,1.69,0,0,0-1.16-1.38c-.27-.09-.39.35-.12.43a1.48,1.48,0,0,1,.88,1.6,16.09,16.09,0,0,0-.35,2.48,2.44,2.44,0,0,0,1,1.59,4.13,4.13,0,0,1,1.38,1.5c.09.27.53.15.43-.12Z"/><path d="M74.37,33.68a.23.23,0,0,0,0-.45.23.23,0,0,0,0,.45Z"/><path d="M75.5,30.52Q61.06,24.79,46.29,19.86c-.28-.09-.4.35-.12.44Q60.92,25.22,75.39,31c.26.1.38-.33.11-.44Z"/><path d="M47.72,20a.23.23,0,0,0,0-.45.23.23,0,0,0,0,.45Z"/><path d="M61.79,25.8l.37-1A.21.21,0,0,0,62,24.5a.23.23,0,0,0-.28.15l-.37,1a.22.22,0,0,0,.15.28.23.23,0,0,0,.28-.16Z"/><path d="M61.6,25.64a.23.23,0,0,0,0-.45.23.23,0,0,0,0,.45Z"/><path d="M60.91,26.06a19.65,19.65,0,0,0,4.4-1.14l-.17-.41a64.93,64.93,0,0,1-9,5.11c-.27.12,0,.51.22.39a64.93,64.93,0,0,0,9-5.11c.2-.13.08-.51-.17-.41a19.65,19.65,0,0,1-4.4,1.14c-.28,0-.16.47.12.43Z"/><path d="M59.76,29.77a.23.23,0,0,0,0-.45.23.23,0,0,0,0,.45Z"/><path d="M61.46,31a.33.33,0,0,0,0-.17.35.35,0,0,0-.08-.13.4.4,0,0,0-.18-.1h-.11l-.11,0a.35.35,0,0,0-.19.1.3.3,0,0,0-.08.3.24.24,0,0,0,.11.13.11.11,0,0,0,.08,0H61a.22.22,0,0,0,.14-.11.25.25,0,0,0,0-.17v.06l0,.06v0l0,0a0,0,0,0,0,0,0l0,0,0,0,0,0h0a.08.08,0,0,1,.07,0h0l0,0,0,0-.05,0s0,0,0,0l0-.05,0,0,0-.05v-.08h0a.28.28,0,0,0,0,.09.13.13,0,0,0,0,.08.09.09,0,0,0,.06.06.1.1,0,0,0,.07,0,.22.22,0,0,0,.18,0l0,0a.18.18,0,0,0,.06-.09Z"/><path d="M73.68,30.21l1.8,5.06c.45,1.26.73,2.43-.57,3.37-.81.58-1.64,1.13-2.46,1.7-2.56,1.76-5.63,3.4-7.56,5.89-2.55,3.29-5.91,11.71.33,13.16.28.06.4-.37.12-.44a4.18,4.18,0,0,1-3.2-3.47,9.69,9.69,0,0,1,1-5.12,15.19,15.19,0,0,1,2.35-4.15,17.73,17.73,0,0,1,3.72-3.08l4.09-2.83c.92-.63,2.49-1.33,3-2.4s-.13-2.08-.45-3l-1.72-4.84c-.1-.27-.53-.16-.44.12Z"/><path d="M64.72,46.26a4.25,4.25,0,0,0-2.32-3.75.24.24,0,0,0-.31.08c-.89,1.59.44,3.57,2.12,3.81a.24.24,0,0,0,.28-.16.22.22,0,0,0-.16-.27,2.47,2.47,0,0,1-1.77-1.2,2,2,0,0,1-.08-2l-.31.08a3.79,3.79,0,0,1,2.1,3.36c0,.29.44.29.45,0Z"/><path d="M68,43.14a4.93,4.93,0,0,1,.66-3,2.21,2.21,0,0,1,2.17-.76,1.17,1.17,0,0,1,.9.66c.1.26.53.15.43-.12a2,2,0,0,0-2.3-1,2.59,2.59,0,0,0-1.25.59A3.17,3.17,0,0,0,67.75,41a8.3,8.3,0,0,0-.19,2.11.23.23,0,0,0,.45,0Z"/><path d="M80.14,29.59a4.78,4.78,0,0,1,4.12-3.91L84,25.41c-.14.43-.72.47-1.11.47s-1-.15-1.51-.14c-.73,0-2.17.46-1.67,1.46.13.26.52,0,.39-.23s.3-.57.57-.66a2.88,2.88,0,0,1,1.4,0c.79.11,2,.22,2.37-.74.06-.17-.12-.3-.28-.27a5.2,5.2,0,0,0-4.45,4.34c0,.29.42.29.45,0Z"/><path d="M59.1,29.59a4.79,4.79,0,0,0-4.8,2.31c-1.25,2-.83,4.52-.45,6.7,0,.29.48.17.43-.12-.34-2-.75-4.28.28-6.14A4.36,4.36,0,0,1,59,30c.28.05.4-.38.12-.43Z"/><path d="M55.32,36.29a4,4,0,0,1,4.78,1.76l.13-.33a4.69,4.69,0,0,1-4.35-1.46c-.19-.22-.5.1-.31.32a5.14,5.14,0,0,0,4.78,1.57.23.23,0,0,0,.13-.33,4.48,4.48,0,0,0-5.28-2c-.27.1-.15.53.12.44Z"/><path d="M52.65,35.3a4.63,4.63,0,0,0-1.55-.66,1.85,1.85,0,0,0-1.46.18,1.07,1.07,0,0,0-.28,1.44,1.86,1.86,0,0,0,1.62.82,4.68,4.68,0,0,0,2.3-.9c.24-.16,0-.55-.23-.39-.88.56-2.23,1.35-3.15.42a.65.65,0,0,1,0-1A1.35,1.35,0,0,1,51,35.08a4.28,4.28,0,0,1,1.42.61c.24.16.47-.23.23-.39Z"/><path d="M57.18,29.07a9.62,9.62,0,0,0-2.5-.81,11.36,11.36,0,0,0-1.29-.16,4.36,4.36,0,0,0-1.25,0,1,1,0,0,0-.83,1.2,1.59,1.59,0,0,0,1.07,1.2,4.15,4.15,0,0,0,2.79-.47c.26-.12,0-.51-.23-.39a3.3,3.3,0,0,1-2.59.37c-.4-.2-.87-.87-.48-1.28s.75-.25,1.1-.24a8.68,8.68,0,0,1,1.35.11,9.33,9.33,0,0,1,2.63.81c.26.12.49-.26.23-.39Z"/><path d="M45.42,18.71c-2.52-.21-4.9-1.41-7.22-2.34l-7-2.76L16.87,7.9c-.27-.11-.39.33-.12.43l14.84,5.9L39,17.18a23,23,0,0,0,6.41,2c.28,0,.28-.42,0-.45Z"/><path d="M40.6,14.49c-2.75,0-5.91,0-8.16,1.85a4,4,0,0,0-.95,5.6,22.89,22.89,0,0,1,2.24,3,5.81,5.81,0,0,1,.41,3.49,7,7,0,0,1-4.6,5.31c-.28.1-.16.53.12.44,3.62-1.25,6.11-5.42,4.59-9.15-1-2.43-4.42-4.26-2.59-7.19S37.54,15,40.6,14.94a.23.23,0,0,0,0-.45Z"/><path d="M35.5,21.2a2.66,2.66,0,0,1,1.86,1v-.32a3.29,3.29,0,0,1-4.15-.21.23.23,0,0,0-.32.32,3.75,3.75,0,0,0,4.79.21c.1-.08.06-.23,0-.32a3.14,3.14,0,0,0-2.18-1.13c-.29,0-.28.43,0,.45Z"/><path d="M31.39,20.86a4.6,4.6,0,0,0-2.85-.7.24.24,0,0,0-.19.11,1.69,1.69,0,0,0,.83,2.16A2.06,2.06,0,0,0,31.57,22c.18-.22-.14-.54-.32-.32a1.6,1.6,0,0,1-1.81.41,1.24,1.24,0,0,1-.7-1.55l-.2.11a4.2,4.2,0,0,1,2.63.64c.24.16.47-.23.22-.39Z"/><path d="M34.22,29.48l.24-.07h0c.07,0,0,0,0,0h.32s0,0,0,0a1.1,1.1,0,0,1,.26.06l.05,0h0l.1.05a.31.31,0,0,1,.1.05.1.1,0,0,1,.05,0s.06,0,0,0l.15.16s0,0,0,0l0,.05,0,0s0,.08,0,0a.16.16,0,0,1,0,.09s0,.11,0,.06v.1h0a.09.09,0,0,1,0,0s0,0,0,.05,0,.05,0,0,0,0,0,0,0,0,0,0l0,0c0,.05,0,0,0,0l-.07.07,0,0-.07.05-.09.05,0,0h0l-.18.06h-.32c-.05,0,0,0,0,0l-.1,0h0s0,0,0,0l-.09,0s-.05,0,0,0l0,0,0,0h0a.93.93,0,0,1-.05-.1.23.23,0,0,0-.31-.08.24.24,0,0,0-.08.31c.29.65,1.25.57,1.73.21a.92.92,0,0,0,.38-.93,1.25,1.25,0,0,0-.74-.83,1.72,1.72,0,0,0-1.35-.07.25.25,0,0,0-.16.28.23.23,0,0,0,.28.15Z"/><path d="M30.67,29.15a.23.23,0,0,0,0-.45.23.23,0,0,0,0,.45Z"/><path d="M30.68,29a.62.62,0,0,0,.84-.22.46.46,0,0,0,0-.48.61.61,0,0,0-.38-.24.6.6,0,0,0-.52.13.23.23,0,0,0,.32.32l0,0-.05,0,.07,0-.06,0,.09,0h-.06a.2.2,0,0,1,.11,0H31l.12,0-.06,0a.19.19,0,0,1,.09.05l0,0,.05.05,0,0,0,0,0,0s0,0,0,.06V28.5s0,0,0,.06l0,0,0,.06,0,0-.06.06.05,0a.53.53,0,0,1-.1.06l0,0-.11,0h0s-.06,0-.08,0l.05,0-.05,0a.21.21,0,0,0-.31.08.2.2,0,0,0,0,.17.28.28,0,0,0,.1.14Z"/><path d="M28.56,31v.34a.2.2,0,0,0,.07.16.21.21,0,0,0,.15.07.24.24,0,0,0,.23-.23V31a.23.23,0,0,0-.06-.16.26.26,0,0,0-.16-.07.29.29,0,0,0-.16.07.24.24,0,0,0-.07.16Z"/><path d="M28.62,34.43l0,1.37a.23.23,0,0,0,.22.23.24.24,0,0,0,.23-.23l0-1.37a.22.22,0,0,0-.22-.22.23.23,0,0,0-.23.22Z"/><path d="M85.35,33.71l1.91,3.43c.14.26.53,0,.39-.23l-1.91-3.42c-.14-.26-.53,0-.39.22Z"/><path d="M87.63,38.74l.06,3.77c0,.29.46.29.45,0l-.06-3.77c0-.29-.46-.29-.45,0Z"/><path d="M89,39.29a.23.23,0,0,0,0-.45.23.23,0,0,0,0,.45Z"/><path d="M78.33,53a89.67,89.67,0,0,1,.82,10.21c0,.29.46.29.45,0a94,94,0,0,0-.83-10.33c0-.28-.48-.16-.44.12Z"/><path d="M79.56,59.75,80.33,82a.23.23,0,0,0,.45,0L80,59.75c0-.29-.46-.29-.45,0Z"/><path d="M51.79,17.51c-2.35.26-4.58,2.41-4.11,4.93.34,1.79,2.09,2.71,2.93,4.21,1.27,2.26.1,4.84-.92,6.93A13.85,13.85,0,0,0,48,38.48a14,14,0,0,0,.72,5.09c1,3.53,2.86,7.18,1.73,10.92a.23.23,0,0,0,.44.12c.92-3.06-.08-6.09-1-9a30.58,30.58,0,0,1-1.28-4.68A10,10,0,0,1,49.49,35c1.25-2.73,3.25-6,1.31-8.92-.94-1.42-2.73-2.42-2.73-4.3A4.11,4.11,0,0,1,51.79,18c.28,0,.29-.48,0-.45Z"/><path d="M48.31,41.05A5,5,0,0,0,45,43.47a3.46,3.46,0,0,0-.49,1.93c0,.6.54,1.19,1.2,1a1.81,1.81,0,0,0,1-1.67c0-.29-.43-.29-.45,0s-.31,1.46-.92,1.24-.28-1.41-.11-1.85a4.5,4.5,0,0,1,3.29-2.61c.29,0,.17-.49-.12-.43Z"/><path d="M49.88,46.67a1,1,0,0,1,1.55-.17,1.06,1.06,0,0,1,.25,1,1.61,1.61,0,0,1-.74.92,3.59,3.59,0,0,1-1.47.48.23.23,0,0,0-.15.28.21.21,0,0,0,.27.15,2.78,2.78,0,0,0,2.52-1.71,1.42,1.42,0,0,0-1.45-1.88,1.27,1.27,0,0,0-1.16.65.22.22,0,1,0,.38.23Z"/><path d="M50.18,53.21l-1.13,2.88-.14.35c0,.11-.12.23-.08.35s.22.25.36.3a.74.74,0,0,0,.84-.32c.12-.26-.27-.49-.39-.23a.27.27,0,0,1-.44,0l.06.22,1.35-3.46c.11-.27-.32-.38-.43-.12Z"/><path d="M64.48,55.65a7,7,0,0,1-1.51,3,3,3,0,0,1-2.9.86l.16.21a2.37,2.37,0,0,1,3-1.71.22.22,0,0,0,.12-.43,2.81,2.81,0,0,0-3.53,2.14A.23.23,0,0,0,60,60a3.42,3.42,0,0,0,3.23-.88,7.22,7.22,0,0,0,1.74-3.3c.09-.28-.35-.4-.44-.12Z"/><path d="M62.13,61.71a1.12,1.12,0,0,0,.68,1.2,1.18,1.18,0,0,0,1.42-.39,1,1,0,0,0,.19-.8.22.22,0,0,0-.27-.16.23.23,0,0,0-.16.28s0,0,0,0a.06.06,0,0,1,0,0V62s0,0,0,0a.06.06,0,0,1,0,0,.14.14,0,0,1,0,.07s0,0,0,0,0,0,0,0a.21.21,0,0,1,0,.06.34.34,0,0,1-.09.12.71.71,0,0,1-.55.23.74.74,0,0,1-.53-.25.71.71,0,0,1-.14-.23.19.19,0,0,1,0-.07v0h0a.49.49,0,0,1,0-.13.25.25,0,0,0-.16-.28.24.24,0,0,0-.28.16Z"/><path d="M41.16,19.33A115.09,115.09,0,0,0,42.3,41c0,.29.47.17.43-.12a114.65,114.65,0,0,1-1.12-21.51c0-.29-.44-.29-.45,0Z"/><path d="M43.13,21l-.49,19.18c0,.29.44.29.45,0L43.58,21a.23.23,0,0,0-.45,0Z"/><path d="M20.67,37.51c15.56.8,29.33,9,43.71,14.08,4.43,1.57,8.91,2.93,13.45,4.13a.23.23,0,0,0,.12-.44,177.13,177.13,0,0,1-23.07-7.87c-7.16-3-14.25-6.19-21.74-8.26a58.68,58.68,0,0,0-12.47-2.09c-.29,0-.29.43,0,.45Z"/><path d="M22.67,39.78q14.16,3.93,28.16,8.47,6.91,2.23,13.79,4.64c4.33,1.51,9,2.8,12.78,5.5.23.17.46-.22.23-.39-3.62-2.59-8-3.86-12.2-5.31q-7-2.43-14-4.73-14.22-4.62-28.62-8.62a.23.23,0,0,0-.12.44Z"/><path d="M65.27,28.57a36.86,36.86,0,0,1-1.51,9.89.22.22,0,0,0,.43.11,36.77,36.77,0,0,0,1.53-10,.23.23,0,0,0-.45,0Z"/><path d="M66.18,29.27c1.13,1.59.47,3.81.22,5.57l-.92,6.33c0,.28.4.4.44.12l1-7c.25-1.72.72-3.68-.36-5.21-.17-.23-.56,0-.39.23Z"/><path d="M11,34.23q4.67,1.56,9.35,3c.27.09.39-.35.11-.43q-4.68-1.48-9.34-3c-.27-.1-.39.34-.12.43Z"/><path d="M12.6,37.72l11.48,3.44c.27.08.39-.35.11-.44L12.72,37.28c-.28-.08-.39.35-.12.44Z"/><path d="M40.76,48.09V56a.23.23,0,0,0,.45,0V48.09a.23.23,0,0,0-.45,0Z"/><path d="M12.83,12.48a77,77,0,0,1-.76,14c0,.28.39.41.44.12a78.27,78.27,0,0,0,.77-14.1c0-.29-.46-.29-.45,0Z"/><path d="M14.82,15.22A145.84,145.84,0,0,1,11.89,36c-.06.28.38.4.44.12a147.52,147.52,0,0,0,2.94-20.92c0-.29-.43-.29-.45,0Z"/><path d="M9.65,37.39c1,0,.53,1.81.48,2.31l-.32,3L9.13,48.8c0,.28.42.28.45,0l.82-7.5.2-1.82A5.79,5.79,0,0,0,10.69,38c-.08-.58-.4-1.13-1-1.1-.29,0-.29.46,0,.45Z"/><path d="M30,14.33a3.54,3.54,0,0,0-3.7.41c-.22.19.1.5.32.32a3.09,3.09,0,0,1,3.15-.34c.26.13.49-.26.23-.39Z"/><path d="M25.67,13.25C22.9,13,20,15.36,21,18.32A4.54,4.54,0,0,0,22.13,20a3.26,3.26,0,0,1,1.07,2.72,21.26,21.26,0,0,1-1.65,5.94c-.11.27.32.39.43.12a28.53,28.53,0,0,0,1.52-5A4,4,0,0,0,23,20.18a6.67,6.67,0,0,1-1.48-2,3.3,3.3,0,0,1,.13-2.45,4.11,4.11,0,0,1,4.07-2.05c.29,0,.29-.42,0-.45Z"/><path d="M22.5,22.94c-1,0-2.62,0-2.77,1.27a1.1,1.1,0,0,0,.52,1.1A1,1,0,0,0,21.53,25a2.2,2.2,0,0,0,.29-1.51.23.23,0,1,0-.45,0,2.14,2.14,0,0,1-.12,1.1.76.76,0,0,1-.29.34.61.61,0,0,1-.42,0c-.05,0,0,0-.07,0l-.06,0c-.05,0,0,0,0,0a.51.51,0,0,1-.13-.16.93.93,0,0,1-.09-.42c0-.06,0,0,0-.09l0-.12,0-.07a.67.67,0,0,1,.09-.14,1.26,1.26,0,0,1,.47-.32,4.25,4.25,0,0,1,1.7-.16c.29,0,.29-.44,0-.45Z"/><path d="M24.56,21.76a1.84,1.84,0,0,1,2.8-.13l0-.27a4.81,4.81,0,0,1-2.92,1.48.22.22,0,0,0-.16.28.24.24,0,0,0,.28.16,5.17,5.17,0,0,0,3.12-1.61.23.23,0,0,0,0-.27,2.28,2.28,0,0,0-3.58.14.22.22,0,0,0,.39.22Z"/><path d="M21,27.87a23,23,0,0,1-1.55,3.82.23.23,0,0,0,.13.33c1.4.28,3.21-.82,3-2.4,0-.28-.49-.28-.45,0a2,2,0,0,1-2.46,2l.14.33A23.49,23.49,0,0,0,21.47,28a.22.22,0,0,0-.43-.12Z"/><path d="M23,28.72A1.36,1.36,0,0,0,21.81,31a10.64,10.64,0,0,0,2,1.61,6,6,0,0,1,1.68,2.26,5.52,5.52,0,0,1,.43,2.69c-.11,1-.58,2-.67,3a2.43,2.43,0,0,0,2.35,2.79c.29,0,.29-.46,0-.45a1.8,1.8,0,0,1-1.76-1.24A3.88,3.88,0,0,1,26,39.17a6.72,6.72,0,0,0,.16-3.82,6.45,6.45,0,0,0-1.95-3c-.51-.44-1.11-.76-1.62-1.2A1.49,1.49,0,0,1,21.94,30a.86.86,0,0,1,.94-.89c.28.05.4-.39.12-.43Z"/><path d="M77.26,47.33A29.64,29.64,0,0,1,88,52l0-.35c-.68.64-1.79-.5-2.25-.93S84.59,49.56,84,49a10.86,10.86,0,0,0-3.39-2.5c-1.93-.8-5-.52-5.66,1.83a.22.22,0,0,0,.43.12,3.18,3.18,0,0,1,3.17-1.94,6.51,6.51,0,0,1,4,1.75c1.11,1,2,2.1,3.14,3.06.65.57,1.74,1.37,2.55.61a.23.23,0,0,0,0-.35A30.05,30.05,0,0,0,77.38,46.9c-.28-.06-.41.37-.12.43Z"/><path d="M85.75,51.39A6.62,6.62,0,0,1,87,54.87a10.57,10.57,0,0,1-.64,3.51c-.6,1.95-1.3,4-.44,6,.12.27.5,0,.39-.22-1-2.25.28-4.65.84-6.83a7.34,7.34,0,0,0-1-6.13c-.16-.23-.55,0-.39.23Z"/><path class="cls-1" d="M84.87,56.67a4.08,4.08,0,0,0-3.28,2.95.23.23,0,0,0,.27.28,5.84,5.84,0,0,0,4-2.84c.14-.25-.25-.48-.38-.22a5.41,5.41,0,0,1-3.71,2.62l.28.28a3.67,3.67,0,0,1,3-2.64c.29-.05.17-.48-.12-.43Z"/><path d="M87.26,55.67a32.29,32.29,0,0,1,4.31-1.17l-.27-.28A7.1,7.1,0,0,1,88,57.88c-.26.14,0,.53.23.39a7.55,7.55,0,0,0,3.54-3.93c.07-.17-.13-.3-.28-.27a32.29,32.29,0,0,0-4.31,1.17c-.27.1-.16.53.12.43Z"/><path d="M85.71,65.1a1.46,1.46,0,0,0-1,2,.24.24,0,0,0,.31.08,3.09,3.09,0,0,0,1.37-2.6c0-.28-.46-.29-.45,0a2.59,2.59,0,0,1-1.15,2.21l.31.08a1,1,0,0,1,.78-1.28.23.23,0,0,0-.12-.44Z"/><path d="M77.59,45.63A5.22,5.22,0,0,0,76,43.15a.24.24,0,0,0-.32,0,.22.22,0,0,0,0,.32,4.82,4.82,0,0,1,1.53,2.28.22.22,0,0,0,.43-.12Z"/><path d="M75.18,45.66l-.39-1c-.1-.27-.53-.16-.43.12a94.26,94.26,0,0,1,2.89,9.9c.07.28.5.16.44-.12a96.78,96.78,0,0,0-2.9-9.9l-.43.12.39,1c.1.27.54.15.43-.12Z"/><path d="M77.87,52.89v1a.22.22,0,0,0,.23.22.22.22,0,0,0,.22-.22v-1a.23.23,0,1,0-.45,0Z"/><path d="M74.81,25.43s0,.05,0,.07,0-.05,0,0l0,0s0,0,0,0l0,0,0,0h0l0,0h0l-.16.05h-.23l-.16,0s0,0,0,0l0,0-.07,0s0,0,0,0l0,0,0,0s0,0,0,0,0,0,0,0v0s0,0,0,0a.24.24,0,0,0,0-.08.23.23,0,0,0-.27-.16.23.23,0,0,0-.16.28.75.75,0,0,0,.61.56A1.12,1.12,0,0,0,75,26a.68.68,0,0,0,.3-.42.23.23,0,1,0-.44-.12Z"/><path d="M72.55,27.84a4.48,4.48,0,0,0-1.52-2l-.18.41a8.82,8.82,0,0,1,3.9,2.83c.17.22.57,0,.39-.23a9.45,9.45,0,0,0-4.17-3c-.26-.09-.36.28-.17.42A3.83,3.83,0,0,1,72.12,28c.1.27.54.16.43-.11Z"/><path d="M77,30.51a.23.23,0,0,0,0-.45.23.23,0,0,0,0,.45Z"/><path d="M77.51,30.34a3.51,3.51,0,0,0,1.19,1.82.22.22,0,0,0,.31-.31,3.25,3.25,0,0,1-1.07-1.63.22.22,0,0,0-.43.12Z"/><path d="M82.68,55.43l-1-.07.11.42,1.77-1a.23.23,0,0,0-.23-.39l-1.76,1a.23.23,0,0,0,.11.42l1,.07a.23.23,0,0,0,.23-.23.23.23,0,0,0-.23-.22Z"/><path d="M80.17,55.56,84,53.47c.25-.14,0-.53-.23-.39L80,55.17c-.26.14,0,.52.22.39Z"/><path d="M89.83,51.91a101.86,101.86,0,0,0,12.46-8.86c.22-.19-.1-.5-.32-.32a101,101,0,0,1-12.36,8.79c-.25.15,0,.54.22.39Z"/><path d="M91.26,48.44a1,1,0,0,1-.53.84.23.23,0,0,0,.23.39q8.06-4.52,16.41-8.44c.26-.12,0-.51-.23-.39q-8.36,3.93-16.41,8.44l.23.39a1.63,1.63,0,0,0,.75-1.23c0-.29-.42-.29-.45,0Z"/><path d="M80.28,31Q93,23,106,15.17c.24-.15,0-.54-.23-.39Q92.82,22.6,80.05,30.63c-.24.16,0,.55.23.39Z"/><path d="M83.49,27.72a13.42,13.42,0,0,1,2.5-2c1-.82,2.06-1.63,3.1-2.42,1.85-1.39,3.74-2.74,5.65-4.05q5.81-3.95,12-7.32c.25-.14,0-.53-.23-.39a146.08,146.08,0,0,0-15.22,9.63c-2.29,1.65-4.52,3.37-6.71,5.15-.33.27-1.71,1-1.42,1.65a.43.43,0,0,0,.77,0c.17-.23-.22-.46-.39-.23Z"/><path d="M104.79,17.64c1.22,1.59,1,3.64,1,5.53V41.59a.23.23,0,0,0,.45,0V28.36c0-2.2,0-4.41,0-6.61a6.81,6.81,0,0,0-1.07-4.34c-.17-.22-.56,0-.39.23Z"/><path d="M103.05,19.33l1.69,21.22c0,.29.48.29.45,0L103.5,19.33c0-.28-.47-.29-.45,0Z"/><path d="M105.86,44.32a585.54,585.54,0,0,1-.91,59.25c0,.29.43.29.45,0a585.54,585.54,0,0,0,.91-59.25c0-.29-.46-.3-.45,0Z"/><path d="M88.81,20.6a26.77,26.77,0,0,1,3.47,0,9.93,9.93,0,0,1,3.29.51c1.16.52,1.3,2,1.41,3.07a13.41,13.41,0,0,1-.13,3.41,5,5,0,0,0-.19,2.37A2,2,0,0,0,98,31.09c2.18.91,4.4,1.71,6.59,2.56.27.11.39-.33.12-.43-2.23-.87-4.58-1.61-6.74-2.63-1.41-.67-.75-2.14-.59-3.34a14,14,0,0,0,.08-3.1c-.15-1.56-.45-3.18-2.15-3.64a19.82,19.82,0,0,0-6.47-.36c-.29,0-.29.47,0,.45Z"/><path d="M91.87,26.4a.23.23,0,0,0,0-.45.23.23,0,0,0,0,.45Z"/><path d="M94.4,26.33c-.8.77-1.71,1.82-1.3,3a1.67,1.67,0,0,0,1,1.05,1.39,1.39,0,0,0,1.41-.22,1,1,0,0,0,.36-1.35c-.16-.24-.55,0-.39.23s-.18.8-.54.93a1,1,0,0,1-1.2-.43c-.73-1.07.27-2.19,1-2.9.2-.2-.11-.52-.32-.32Z"/><path d="M98.57,28.84a6.4,6.4,0,0,1,1.27-.45,2.52,2.52,0,0,1,1.22,0,1,1,0,0,1,.75.75,1.38,1.38,0,0,1-.41,1.07,4.88,4.88,0,0,1-1.31,1.08.23.23,0,0,0,.23.39,5.93,5.93,0,0,0,1.35-1.09,2,2,0,0,0,.6-1.37,1.39,1.39,0,0,0-.78-1.14,2.38,2.38,0,0,0-1.44-.16,5.7,5.7,0,0,0-1.71.55c-.26.12,0,.51.23.39Z"/><path d="M106.24,41.27l11.3-5.11c.26-.11,0-.5-.23-.38L106,40.88c-.26.12,0,.51.23.39Z"/><path d="M106.87,41a133.19,133.19,0,0,1,13.71-6.51c.27-.1.15-.54-.12-.43a136.25,136.25,0,0,0-13.82,6.55c-.26.14,0,.53.23.39Z"/><path d="M115.37,36.45v1.71a.23.23,0,0,0,.45,0V36.45a.23.23,0,0,0-.45,0Z"/><path d="M114.83,41.47a.23.23,0,0,0,0-.45.23.23,0,0,0,0,.45Z"/><path d="M114.83,43.53a.23.23,0,0,0,0-.45.23.23,0,0,0,0,.45Z"/><path d="M114.6,45.7V46a.24.24,0,0,0,.23.23.3.3,0,0,0,.15-.07.24.24,0,0,0,.07-.16V45.7a.2.2,0,0,0-.07-.16.21.21,0,0,0-.15-.07.24.24,0,0,0-.23.23Z"/><path d="M113.87,48.67l-.39.68a.25.25,0,0,0,.08.31.23.23,0,0,0,.31-.08l.38-.69a.21.21,0,0,0-.08-.3.22.22,0,0,0-.3.08Z"/><path d="M112.91,52.43a.23.23,0,0,0,0-.45.23.23,0,0,0,0,.45Z"/><path d="M116.36,37.7a.23.23,0,0,0,0-.45.23.23,0,0,0,0,.45Z"/><path d="M116.15,37.26l.76,1a.23.23,0,0,0,.3.08.22.22,0,0,0,.08-.31l-.75-1a.24.24,0,0,0-.31-.08.22.22,0,0,0-.08.31Z"/><path d="M117.78,39.61l1.77,3.14c.14.26.53,0,.39-.22l-1.77-3.15c-.14-.25-.53,0-.39.23Z"/><path d="M120,44.46l.38.68a.22.22,0,0,0,.31.08.21.21,0,0,0,.08-.3l-.39-.69a.22.22,0,0,0-.3-.08.22.22,0,0,0-.08.31Z"/><path d="M121,47a.23.23,0,0,0,0-.45.23.23,0,0,0,0,.45Z"/><path d="M115.89,38.85a38.67,38.67,0,0,1-.84,8.17c-.06.28.38.4.44.12a39.88,39.88,0,0,0,.85-8.29.23.23,0,0,0-.45,0Z"/><path d="M114.33,48.93l-.77.34a.26.26,0,0,0-.1.13.28.28,0,0,0,0,.18.24.24,0,0,0,.31.08l.77-.34a.28.28,0,0,0,.1-.14.25.25,0,0,0,0-.17.24.24,0,0,0-.31-.08Z"/><path d="M113.3,51.06a.23.23,0,0,0,0-.45.23.23,0,0,0,0,.45Z"/><path d="M113.3,50.6a2.5,2.5,0,0,0-2.53,1.54.23.23,0,1,0,.44.12,2,2,0,0,1,2.09-1.21.22.22,0,0,0,.22-.23.22.22,0,0,0-.22-.22Z"/><path d="M110.84,53.83a13.12,13.12,0,0,0,8.51-1.14,6.66,6.66,0,0,0,3.1-2.66,1.79,1.79,0,0,0-.91-2.6,7.19,7.19,0,0,0-5.22.16c-.27.1-.15.54.12.43a7.68,7.68,0,0,1,2.64-.54,5,5,0,0,1,2.51.47c1.88,1.08-.45,3.13-1.48,3.79A12.56,12.56,0,0,1,111,53.39c-.28,0-.41.38-.12.44Z"/><path d="M113.9,50l.38.34a.25.25,0,0,0,.16.06.23.23,0,0,0,.16-.06.24.24,0,0,0,.07-.16.2.2,0,0,0-.07-.16l-.38-.34a.22.22,0,0,0-.32,0,.19.19,0,0,0-.06.16.25.25,0,0,0,.06.16Z"/><path d="M115.61,50.78a5.86,5.86,0,0,0-6.65-.92.23.23,0,0,0,0,.35l.74.8c.19.22.51-.1.31-.32l-.73-.8,0,.36a5.37,5.37,0,0,1,6.1.85.23.23,0,0,0,.32-.32Z"/><path d="M114.6,51a13.07,13.07,0,0,1,3.26-3,5,5,0,0,1,4.21-.47c.27.11.38-.33.12-.43a5.44,5.44,0,0,0-4.34.39,12.75,12.75,0,0,0-3.57,3.14c-.19.22.13.54.32.32Z"/><path d="M118.29,51a7.85,7.85,0,0,1,4.48-1.81,2.64,2.64,0,0,1,2,.74,1.43,1.43,0,0,1,.33,1.73c-.14.25.25.48.39.23.84-1.45-.68-2.89-2-3.1-1.89-.29-3.89.71-5.36,1.82-.23.17,0,.56.23.39Z"/><path d="M118.67,51.23a3.9,3.9,0,0,1,1.91,5.56c-.16.24.23.47.39.23,1.48-2.24.17-5.24-2.18-6.22-.27-.11-.38.33-.12.43Z"/><path d="M119.42,59.28a.23.23,0,0,0,0-.45.23.23,0,0,0,0,.45Z"/><path d="M117.59,49.72a9.84,9.84,0,0,0,1.73,10.13c.19.22.51-.1.32-.32A9.39,9.39,0,0,1,118,49.84c.11-.27-.33-.38-.44-.12Z"/><path d="M120,60.13a2.2,2.2,0,0,0-.31-1.91.22.22,0,0,0-.25-.11C118.2,58.48,118,59.85,118,61a2,2,0,0,0,.65,1.72,1.28,1.28,0,0,0,1.43,0c.61-.5.06-1.35-.63-1.34a.23.23,0,0,0,0,.45c.23,0,.57.22.41.48a.58.58,0,0,1-.5.19c-.63,0-.86-.58-.9-1.13-.06-.93,0-2.41,1.11-2.73l-.26-.11a1.8,1.8,0,0,1,.27,1.57c-.09.28.35.4.43.12Z"/><path d="M118.39,58.84a3.21,3.21,0,0,0-3.77.42.24.24,0,0,0,0,.36,2.23,2.23,0,0,0,3-.82c.13-.26-.26-.49-.39-.23a1.76,1.76,0,0,1-2.34.66l0,.35a2.76,2.76,0,0,1,3.23-.35c.25.15.47-.24.22-.39Z"/><path d="M122,56.82a.56.56,0,0,1,.3-.26s0,0,0,0l0,0,.12,0h.06c.07,0,0,0,0,0h.13a1.16,1.16,0,0,1,.48.08,1.25,1.25,0,0,1,.35.21l.06.07s0,0,0,0l0,0,0,.05c0,.06,0,0,0,0l0,.05v.19c0-.05,0,0,0,0v.05s0,.07,0,0a.24.24,0,0,1-.06.11s0,.05,0,0,0,0,0,0l-.09.08h0l0,0-.13.07-.09.05h0l-.07,0-.12,0-.06,0h0a1.31,1.31,0,0,1-.28,0h-.11l-.13,0a.64.64,0,0,1-.33-.25c-.16-.25-.55,0-.39.22a1.48,1.48,0,0,0,2.26,0A.93.93,0,0,0,124,56.6a1.54,1.54,0,0,0-1.13-.57,1.27,1.27,0,0,0-1.23.57c-.14.25.25.48.39.22Z"/><path d="M115.24,52.72l-1.91-.58a.21.21,0,0,0-.25.1,5.54,5.54,0,0,0,0,4.53c.12.26.5,0,.39-.23a5.06,5.06,0,0,1,0-4.07l-.26.1,1.91.59a.23.23,0,0,0,.12-.44Z"/><path d="M112.83,55a5.87,5.87,0,0,0,5.6,2.6A5.13,5.13,0,0,0,123,53.69a4.55,4.55,0,0,0-.56-3.38c-.15-.24-.54,0-.39.23A4.42,4.42,0,0,1,120,56.75a5.53,5.53,0,0,1-6.76-2c-.14-.25-.53,0-.38.23Z"/><path d="M113.9,54.6a.75.75,0,0,0-.47-.72,1.23,1.23,0,0,0-1,0,.72.72,0,0,0-.37.4.23.23,0,0,0,.16.28.22.22,0,0,0,.27-.16s0,0,0,0l0,0v0s0,0,0,0l0,0s0,0,0,0l.07,0s0,0,0,0l0,0,.08,0H113l.18.05s0,0,0,0l0,0,.08,0,0,0s0,0,0,0h0l.06.06h0s0,0,0,0,0,0,0,0,0,0,0,0,0,0,0,0v.06c0,.05,0,0,0,0v.09a.22.22,0,0,0,.22.23.24.24,0,0,0,.23-.23Z"/><path d="M121.71,46.19c-1.47-1.54-1.44-3.71-2.06-5.62A5,5,0,0,0,116.34,37a.22.22,0,0,0-.12.43c1.85.45,2.78,2.24,3.19,3.95s.64,3.71,2,5.1a.22.22,0,0,0,.32-.31Z"/><path d="M116.15,39.87a17.09,17.09,0,0,1-2,8.76c-.14.26.25.48.38.23a17.47,17.47,0,0,0,2-9c0-.28-.46-.29-.45,0Z"/><path class="cls-1" d="M85.54,56.49l-.67-.22a.23.23,0,0,0-.28.16.23.23,0,0,0,.16.27l.67.23a.21.21,0,0,0,.27-.16.23.23,0,0,0-.15-.28Z"/><path class="cls-1" d="M85,56.71a.75.75,0,0,0-.33.1,1,1,0,0,0-.23.24.74.74,0,0,0-.08.61.22.22,0,0,0,.11.14.25.25,0,0,0,.17,0,.22.22,0,0,0,.13-.1.23.23,0,0,0,0-.18.29.29,0,0,1,0-.1v.06a.24.24,0,0,1,0-.12v.06a.5.5,0,0,1,0-.13l0,0a.83.83,0,0,1,.08-.12l0,0a.43.43,0,0,1,.1-.09l0,0a.39.39,0,0,1,.11-.06l-.05,0,.1,0h0a.33.33,0,0,0,.16-.07.28.28,0,0,0,.06-.16c0-.11-.1-.24-.22-.22Z"/><path class="cls-1" d="M84.58,59.17a.23.23,0,0,0,0-.45.23.23,0,0,0,0,.45Z"/><path class="cls-2" d="M86.14,57.39h-.22a.15.15,0,0,0-.09,0l-.07,0a.22.22,0,0,0-.05.08.19.19,0,0,0,0,.08v.06a.21.21,0,0,0,.06.1.24.24,0,0,0,.16.07h.22l.09,0,.07,0a.1.1,0,0,0,0-.07.15.15,0,0,0,0-.09v-.06a.53.53,0,0,0-.06-.1.25.25,0,0,0-.16-.06Z"/><path class="cls-2" d="M86,56.94a4.49,4.49,0,0,0-2.12-.2.22.22,0,1,0,.12.43,4,4,0,0,1,1.88.2.23.23,0,0,0,.28-.15.23.23,0,0,0-.16-.28Z"/><path class="cls-2" d="M84.6,56.53a8.15,8.15,0,0,0-1.74,4.55L83.3,61a4.57,4.57,0,0,0-.69-1.19c-.18-.23-.5.09-.32.31a4,4,0,0,1,.58,1,.22.22,0,0,0,.44-.06,7.59,7.59,0,0,1,1.61-4.23c.17-.23-.14-.55-.32-.32Z"/><path class="cls-2" d="M83.19,58.72a1.9,1.9,0,0,0,2-1,.24.24,0,0,0-.08-.31.23.23,0,0,0-.31.08,1.42,1.42,0,0,1-.63.65,1.4,1.4,0,0,1-.42.15l-.21,0h-.22a.24.24,0,0,0-.28.16.23.23,0,0,0,.16.28Z"/><path class="cls-2" d="M88.19,56.92a2.29,2.29,0,0,0,1.33-1.05.23.23,0,0,0-.2-.34,2.08,2.08,0,0,0-2,1.08.23.23,0,0,0,.26.33,1.67,1.67,0,0,0,1.15-.77c.13-.21-.12-.39-.31-.31l-.5.23.3.31L89.07,55a.23.23,0,0,0-.19-.34.54.54,0,0,0-.56.55.8.8,0,0,0,.35.74,1.21,1.21,0,0,0,1.21-.2,3.3,3.3,0,0,0,.3-.22.28.28,0,0,0,.07-.31.45.45,0,0,0-.54-.28.25.25,0,0,0-.16.16A2.35,2.35,0,0,1,87.47,57c-.29,0-.29.48,0,.45A2.8,2.8,0,0,0,90,55.25l-.16.16h0s0-.06,0,0l.06-.21a1.9,1.9,0,0,1-.63.37.65.65,0,0,1-.31,0,.23.23,0,0,1-.11-.07.32.32,0,0,1-.06-.15.19.19,0,0,1,0-.08v-.05a.29.29,0,0,1,0-.08l0,0s0,0,0,0h.07l-.19-.34-.88,1.37c-.13.21.12.39.31.31l.51-.23-.31-.31a1.26,1.26,0,0,1-.88.57l.25.33A1.66,1.66,0,0,1,89.32,56l-.19-.34a1.83,1.83,0,0,1-1.06.85c-.27.09-.15.52.12.43Z"/><path class="cls-2" d="M86,58.56a1.67,1.67,0,0,0-.51,1.28.23.23,0,0,0,.23.22.22.22,0,0,0,.22-.22v-.15a.22.22,0,0,1,0-.08v0s0,0,0,0A1.38,1.38,0,0,1,86,59.3s0,0,0,0,0,0,0,0l0-.06a.57.57,0,0,1,.08-.13l0-.06s0,0,0,0l0,0,.11-.12a.23.23,0,1,0-.32-.32Z"/><path class="cls-2" d="M85.92,60.5a.23.23,0,0,0,0-.45.23.23,0,0,0,0,.45Z"/><path class="cls-2" d="M85.72,59.67l.47,2.44a.23.23,0,0,0,.44-.12l-.47-2.44a.23.23,0,0,0-.28-.16.25.25,0,0,0-.16.28Z"/><path class="cls-2" d="M86.31,62.13A8.39,8.39,0,0,1,86,66.26c-.09.27.34.39.43.11A8.83,8.83,0,0,0,86.74,62c0-.29-.48-.17-.43.12Z"/><path class="cls-2" d="M85.7,65.85l-.53.05.19.34.6-1.37a.23.23,0,0,0-.08-.31.24.24,0,0,0-.31.08L85,66a.21.21,0,0,0,0,.23.22.22,0,0,0,.19.11l.53,0a.22.22,0,0,0,.22-.22.22.22,0,0,0-.22-.23Z"/><path class="cls-2" d="M87.12,55.39a3.88,3.88,0,0,0-1.56-3,.23.23,0,0,0-.31.08.24.24,0,0,0,.09.31,3.42,3.42,0,0,1,1.33,2.66.23.23,0,0,0,.45,0Z"/><path class="cls-2" d="M86,52.31a4.92,4.92,0,0,1-1.61-1.5l-.14.33a3.07,3.07,0,0,1,2.25,0l.06-.44a17,17,0,0,1-3.23-.64c-.75-.23-1.92-.51-2.17-1.39a.22.22,0,0,0-.43.12c.27,1,1.32,1.33,2.18,1.6a16.81,16.81,0,0,0,3.65.76c.27,0,.27-.35.06-.44a3.5,3.5,0,0,0-2.49,0A.23.23,0,0,0,84,51,5.43,5.43,0,0,0,85.8,52.7a.23.23,0,0,0,.23-.39Z"/><path class="cls-2" d="M82.24,49a9.21,9.21,0,0,0-3.66-.74.23.23,0,0,0,0,.45A8.57,8.57,0,0,1,82,49.4a.23.23,0,0,0,.23-.39Z"/><path class="cls-2" d="M79.31,48.2a1.49,1.49,0,0,0-1.88-1,.23.23,0,0,0-.15.28.23.23,0,0,0,.27.16l.12,0h.38l.11,0,.12,0s0,0,0,0l.06,0,.1.05,0,0,0,0,0,0,0,0,.09.09s0,0,0,0,0,0,0,0a.37.37,0,0,1,.06.1l0,0s0,.07,0,0a.36.36,0,0,1,0,.11.23.23,0,0,0,.44-.12Z"/><path class="cls-2" d="M77.79,47.24a1.52,1.52,0,0,0-2.05.84c-.47,1,.14,2.14.64,3a.23.23,0,0,0,.39-.23,3.2,3.2,0,0,1-.67-2.49c.19-.54.88-1.1,1.46-.75.25.15.47-.24.23-.39Z"/><path class="cls-2" d="M76.13,49.49a4.72,4.72,0,0,1-.45-1.88c0-.28-.46-.29-.45,0a5.28,5.28,0,0,0,.51,2.11.23.23,0,0,0,.31.08.24.24,0,0,0,.08-.31Z"/><path class="cls-2" d="M68,42.71a3.16,3.16,0,0,1,.13-2.06c.09-.19.29-.51.5-.24s0,.66-.17.91.11.39.31.31.81-.47.61-.91-.64-.49-.83-.12a.23.23,0,0,0,.19.34,1.79,1.79,0,0,0,1.43-.58.22.22,0,0,0-.27-.35L68,40.94a5.12,5.12,0,0,0-1.5.87.93.93,0,0,0-.19,1.24.7.7,0,0,0,1.07.2c.21-.2-.11-.52-.32-.32s-.46-.18-.47-.35c0-.37.42-.64.69-.78.92-.51,1.89-.94,2.83-1.4l-.28-.35a1.39,1.39,0,0,1-1.11.44l.2.34s0,0,0,0,0,0,0,0,0,0,0,.09-.3.22-.42.28l.31.3a1.32,1.32,0,0,0,.2-1.32A.66.66,0,0,0,68,40a2.16,2.16,0,0,0-.53,1.29,3.46,3.46,0,0,0,.09,1.5.22.22,0,0,0,.43-.12Z"/><path class="cls-2" d="M68,43.06a28.58,28.58,0,0,0-2.85,1c-.68.16-1.7.09-2-.66-.1-.26-.54-.15-.43.12a2,2,0,0,0,2.18,1c1.15-.14,2.08-1,3.23-1.11.29,0,.16-.47-.12-.44Z"/><path class="cls-2" d="M62.51,43.79l-.73.17a.23.23,0,0,0,0,.43l3.18.7,0-.41a.8.8,0,0,1-1.13-.28l-.2.34a4,4,0,0,1,1.71.55V44.9l-.9.42a1.46,1.46,0,0,1-.43.18.56.56,0,0,1-.32-.15c-.4-.34-.62-.89-1.19-1a.68.68,0,0,0-.66.22,1.63,1.63,0,0,0-.28.77,2.14,2.14,0,0,0,.17,1.7,1.18,1.18,0,0,0,1.42.48c.27-.12,0-.51-.22-.39a.65.65,0,0,1-.66-.16,1,1,0,0,1-.35-.72,3.24,3.24,0,0,1,.11-1c.06-.24.13-.57.45-.46a1.51,1.51,0,0,1,.6.55,1.74,1.74,0,0,0,.63.52.92.92,0,0,0,.82-.11l1-.48a.23.23,0,0,0,0-.39,4.55,4.55,0,0,0-1.94-.61c-.17,0-.26.2-.19.34a1.24,1.24,0,0,0,1.74.44.23.23,0,0,0,0-.42L61.9,44v.43l.73-.16c.28-.06.16-.5-.12-.44Z"/><path class="cls-2" d="M64.56,46.69a3.83,3.83,0,0,0-1,3.85.23.23,0,0,0,.44-.12A3.34,3.34,0,0,1,64.88,47c.21-.2-.11-.51-.32-.32Z"/><path class="cls-2" d="M63.79,48.18a14.64,14.64,0,0,0-.28,7.49c.06.28.49.16.43-.12a14.15,14.15,0,0,1,.29-7.25.23.23,0,0,0-.44-.12Z"/><path class="cls-2" d="M63.1,54.63a3.37,3.37,0,0,0,1.16,3.14.23.23,0,0,0,.32,0l1.2-1.46-.38-.22A8,8,0,0,1,63.79,59l.38.1c-.11-.58-.8-.74-1.29-.61s-.66.29-1,.36a.51.51,0,0,1-.45-.1c-.1-.08-.23-.25-.13-.37a.22.22,0,0,0-.21-.37A1.37,1.37,0,0,0,60,59a.23.23,0,0,0,.22.28,2.32,2.32,0,0,0,2-.81.23.23,0,0,0-.22-.38,5.2,5.2,0,0,0-1.61.63l.23.38.52-.37c.23-.17,0-.56-.23-.39l-.52.38a.22.22,0,0,0,.23.38,5.37,5.37,0,0,1,1.5-.58l-.22-.37a1.9,1.9,0,0,1-1.68.68l.22.29a.92.92,0,0,1,.76-.67L61,58c-.47.54.13,1.25.74,1.25a3.64,3.64,0,0,0,1.16-.36c.29-.09.78-.11.86.27a.22.22,0,0,0,.37.1,8.73,8.73,0,0,0,1.73-3.09c.06-.2-.24-.39-.38-.21l-1.2,1.45h.32a2.93,2.93,0,0,1-1-2.7c0-.28-.39-.4-.43-.12Z"/><path class="cls-2" d="M50,30a3.13,3.13,0,0,0,2.17.47c.12,0,.18-.17.16-.27a.24.24,0,0,0-.28-.16,2.66,2.66,0,0,1-1.82-.43.23.23,0,0,0-.31.08A.24.24,0,0,0,50,30Z"/><path class="cls-2" d="M52.37,30.66a.71.71,0,1,1-.74.94.77.77,0,0,1,.12-.64.93.93,0,0,1,.68-.35,6.12,6.12,0,0,0,1.84-.83.22.22,0,0,0-.05-.41,3.24,3.24,0,0,0-1.74-.2c-.25,0-.19.36,0,.43a.77.77,0,0,0,.69-.06.35.35,0,0,0,0-.55c-.24-.24-.78-.25-1.1-.3s-.89-.15-1.34-.2c-.24,0-.27.3-.11.42a2.28,2.28,0,0,0,1.38.43L52,28.9c-.59.15-1.83.36-1.88-.58,0-.39,0-.79,0-1.18l0-1.3c0-.29-.44-.29-.45,0l0,1.65a2.63,2.63,0,0,0,.11,1.34c.48.84,1.53.7,2.32.5a.22.22,0,0,0-.06-.44,1.87,1.87,0,0,1-1.16-.37l-.11.42c.47,0,.93.12,1.39.21l.29.06a1.45,1.45,0,0,0,.35.07l.1-.1a.2.2,0,0,1-.11,0,.58.58,0,0,1-.19,0v.43a3,3,0,0,1,1.5.2l-.05-.41a5.46,5.46,0,0,1-1.48.71,2.11,2.11,0,0,0-1.09.47,1.16,1.16,0,0,0,.2,1.77,1.2,1.2,0,0,0,1.7-.59,1.22,1.22,0,0,0-1-1.54c-.29,0-.29.41,0,.45Z"/><path class="cls-2" d="M51.13,28.19a17.67,17.67,0,0,0-2-5.08c-.14-.25-.53,0-.38.23a17.77,17.77,0,0,1,2,5c.06.29.5.17.43-.12Z"/><path class="cls-2" d="M49,24.36A2.42,2.42,0,0,1,48.39,23a8.55,8.55,0,0,1-.21-1.89,2.24,2.24,0,0,1,1.59-2.3c.28-.06.16-.49-.12-.44a2.65,2.65,0,0,0-1.91,2.52A8.4,8.4,0,0,0,48,23.07a2.82,2.82,0,0,0,.68,1.6.22.22,0,0,0,.32-.31Z"/><path class="cls-2" d="M50.36,34.06V33a.23.23,0,0,0-.22-.23.24.24,0,0,0-.23.23v1.11a.23.23,0,0,0,.45,0Z"/><path class="cls-2" d="M50.51,30,48,35.93a.22.22,0,0,0,.39.22l1.07-1.6-.41,0a1.32,1.32,0,0,1-.18,1.09.23.23,0,0,0,.14.33,4.44,4.44,0,0,0,2.23-.11.23.23,0,0,0-.06-.44H49.32c-.24,0-.32.4-.06.44A6.27,6.27,0,0,1,52.18,37l0-.42a9,9,0,0,1-2.59.12c-.56-.06-1.33-.35-1.87-.05a1.08,1.08,0,0,0-.41,1.2c.14.84.35,1.66.53,2.49.06.28.49.16.43-.12l-.4-1.9a2.93,2.93,0,0,1-.14-.87c0-.54.59-.49,1-.43a10.31,10.31,0,0,0,3.59,0c.21,0,.19-.31,0-.41a6.4,6.4,0,0,0-3-1.24l-.06.44h1.85l-.06-.44a4,4,0,0,1-2,.1l.13.34a1.78,1.78,0,0,0,.22-1.44.22.22,0,0,0-.41-.05L48,35.93l.39.22,2.51-5.93c.12-.26-.27-.49-.38-.23Z"/><path class="cls-2" d="M47.84,38.49a30,30,0,0,0-.19,4l.29-.22a2.65,2.65,0,0,0-2.72.7,2.77,2.77,0,0,0-.47,2.88.23.23,0,0,0,.41.05l2.67-3.65c.11-.16-.08-.41-.25-.34a3.16,3.16,0,0,0-1.32,1,.22.22,0,0,0,.22.37,2.79,2.79,0,0,0,1.68-1.1l-.41,0,1.56,5.3a.22.22,0,0,0,.43-.12L48.18,42a.23.23,0,0,0-.41-.06,2.29,2.29,0,0,1-1.41.9l.22.38a2.67,2.67,0,0,1,1.12-.87L47.44,42l-2.67,3.65.41.06a2.35,2.35,0,0,1,.36-2.45,2.2,2.2,0,0,1,2.28-.58.22.22,0,0,0,.28-.21,30,30,0,0,1,.19-4c0-.28-.42-.28-.45,0Z"/><path class="cls-2" d="M49.66,45.92c-.54.16-.5.85-.19,1.21.49.56,1.31.1,1.78-.24L51,46.53,49.7,47.88a.22.22,0,0,0,.09.37.5.5,0,0,1,.39.47.23.23,0,0,0,.45,0,.94.94,0,0,0-.72-.9l.1.37,1.29-1.34c.17-.18-.06-.51-.27-.35a2.66,2.66,0,0,1-.67.39.82.82,0,0,1-.35,0,.29.29,0,0,1-.17-.07.42.42,0,0,1-.15-.3.26.26,0,0,1,0-.09s0-.08,0,0,0-.05.08-.06a.23.23,0,0,0-.12-.44Z"/><path class="cls-2" d="M49.85,49.28a9.68,9.68,0,0,1-1.14,6.64c-.12.21.19.47.36.27l1-1.28c.18-.23-.13-.55-.31-.32l-1,1.28.35.27a10.1,10.1,0,0,0,1.18-7c-.05-.29-.49-.17-.43.11Z"/><path class="cls-2" d="M53.4,36.86a4.6,4.6,0,0,0-.15,1.77c0,.28.45.29.45,0V36.25h-.45a12.62,12.62,0,0,0,.9,4.54c.11.26.54.15.43-.12a12.39,12.39,0,0,1-.88-4.42.23.23,0,0,0-.45,0v2.38h.45A4.18,4.18,0,0,1,53.84,37a.23.23,0,0,0-.44-.12Z"/><path class="cls-2" d="M53.67,37.73a1.84,1.84,0,0,1,2.27-.58l0-.35c-.13.12-.29,0-.36-.14s.05-.06,0,0l.12-.08a1.21,1.21,0,0,1,.32-.11,1.23,1.23,0,0,1,1.17.42l.2-.34A2.61,2.61,0,0,1,55.08,35c-.12-.26-.51,0-.39.23A3.05,3.05,0,0,0,57.33,37a.22.22,0,0,0,.19-.34,1.7,1.7,0,0,0-2.08-.48c-.18.09-.34.19-.36.4a.63.63,0,0,0,.19.48.69.69,0,0,0,.95.07.23.23,0,0,0,0-.36,2.31,2.31,0,0,0-2.89.74c-.17.24.22.47.39.23Z"/><path class="cls-2" d="M54.85,31.78a7.8,7.8,0,0,1,2.72-2.45c.25-.14,0-.53-.23-.39a8.39,8.39,0,0,0-2.88,2.61c-.16.24.23.47.39.23Z"/><path class="cls-2" d="M60.58,45.39a.23.23,0,0,0,0-.45.23.23,0,0,0,0,.45Z"/><path class="cls-2" d="M64.91,48.23a1.25,1.25,0,0,0,.63-.85.25.25,0,0,0-.06-.22.23.23,0,0,0-.22-.06,3.34,3.34,0,0,0-1.71,1.56.23.23,0,0,0,.08.31,1.3,1.3,0,0,0,1.48-.17.23.23,0,0,0-.32-.32l-.05,0,0,0-.12.07h0l-.08,0-.07,0H64.1a.81.81,0,0,1-.25-.09l.08.31a3.11,3.11,0,0,1,.62-.82,2.88,2.88,0,0,1,.39-.3l.23-.14.11-.05.07,0,0,0-.27-.27a.8.8,0,0,1-.16.35s0,0,0,0l0,0-.08.08a.74.74,0,0,1-.16.11.22.22,0,0,0-.08.3.23.23,0,0,0,.31.08Z"/><path class="cls-2" d="M65.1,48.57a2.25,2.25,0,0,0-.71,1.69.24.24,0,0,0,.23.23A1.63,1.63,0,0,0,66,50c.17-.18-.06-.51-.27-.36l-.91.63.31.31a22.33,22.33,0,0,0,1-2.61.23.23,0,0,0-.28-.28A4,4,0,0,0,64,48.78c-.19.19,0,.45.27.35,1.29-.57,1.44-2.12,2.37-3s3.46-.24,3.95-2a.22.22,0,0,0-.16-.27,2.37,2.37,0,0,0-1.69.26l.22.39a5.48,5.48,0,0,0,1.69-2.25c.46-.84,1.54-2.1,2.6-1.36.24.16.46-.23.22-.39a2.05,2.05,0,0,0-2.64.67c-.8.91-1,2.26-2.09,2.94a.22.22,0,0,0,.22.39,1.88,1.88,0,0,1,1.35-.22l-.16-.28c-.25.93-1.36,1-2.14,1.12a2.85,2.85,0,0,0-1.77.81c-.81.87-1,2.36-2.19,2.87l.27.35a3.67,3.67,0,0,1,1.62-1l-.27-.28a20.51,20.51,0,0,1-1,2.5c-.08.18.11.45.31.31l.9-.63-.27-.35a1.21,1.21,0,0,1-1,.36l.22.22a1.79,1.79,0,0,1,.58-1.37c.21-.2-.11-.52-.32-.32Z"/><path class="cls-2" d="M74.8,40.63l1.09-1.57a.23.23,0,0,0-.08-.31.24.24,0,0,0-.31.08L74.41,40.4a.23.23,0,0,0,.08.31.24.24,0,0,0,.31-.08Z"/><path class="cls-2" d="M77.47,37.08a15.69,15.69,0,0,0,1.79-3.85c.09-.27-.34-.39-.43-.12a15,15,0,0,1-1.75,3.74c-.16.24.23.47.39.23Z"/><path class="cls-2" d="M22.56,30.42s-.11,0-.16,0a.73.73,0,0,1-.31-.17,1.08,1.08,0,0,0-.62-.24c-.47,0-.79.38-1.2.54s-1,.08-1.46.34A.94.94,0,0,0,18.29,32a.22.22,0,0,0,.41,0,15.17,15.17,0,0,0,2.06-3.69l-.28.16a1,1,0,0,0,1.13-1.18c-.09-.27-.52-.16-.43.12a.49.49,0,0,1-.58.62.25.25,0,0,0-.28.16,14.89,14.89,0,0,1-2,3.59l.41,0c-.18-.57.69-.7,1.05-.75a2.61,2.61,0,0,0,.78-.18c.21-.1.39-.25.6-.36a.53.53,0,0,1,.63,0,1.22,1.22,0,0,0,.59.29c.38,0,.8-.34.58-.73s-.53,0-.39.23Z"/><path class="cls-2" d="M22.18,29c.17-1.72.25-3.44.26-5.17a.23.23,0,0,0-.34-.19l-1.43.65.31.31a4.71,4.71,0,0,0,.4-1.61.24.24,0,0,0-.29-.22,2.69,2.69,0,0,0-1.53,1.09c-.12.18.08.36.25.33a5.54,5.54,0,0,0,4-2.84c.27-.51.64-1.34-.14-1.59a3.91,3.91,0,0,1-1.25-.41,2.14,2.14,0,0,1-.89-1.47c0-.28-.49-.28-.45,0A2.61,2.61,0,0,0,22,19.56a2.86,2.86,0,0,0,.76.43,3.14,3.14,0,0,0,.51.12c.41.06.43.29.29.63a5.12,5.12,0,0,1-3.88,3L20,24a2.14,2.14,0,0,1,1.26-.88l-.28-.22a4.3,4.3,0,0,1-.34,1.38.22.22,0,0,0,.3.31L22.33,24l-.34-.2c0,1.73-.09,3.45-.26,5.17,0,.29.42.29.45,0Z"/><path class="cls-2" d="M21.65,18.28A3.47,3.47,0,0,1,24,15.19c.28-.09.16-.53-.12-.44a4,4,0,0,0-2.66,3.53c0,.29.43.29.45,0Z"/><path class="cls-2" d="M22.81,23a5.25,5.25,0,0,0,2.7-1l-.3-.31a3.77,3.77,0,0,1-1,1l.23.39,1.82-1.22a.23.23,0,0,0-.23-.39l-2,1c-.26.13,0,.52.23.39l2-1L26,21.47l-1.82,1.22c-.24.16,0,.55.23.39A4.49,4.49,0,0,0,25.59,22c.14-.18-.12-.44-.3-.31a4.86,4.86,0,0,1-2.48.9c-.29,0-.29.47,0,.45Z"/><path class="cls-2" d="M22.56,29.68a2.59,2.59,0,0,0,.82,3.65c.25.14.48-.25.22-.39a2.13,2.13,0,0,1-.65-3c.17-.23-.22-.46-.39-.23Z"/><path class="cls-2" d="M22.49,33A12.32,12.32,0,0,1,26,37.06a4.2,4.2,0,0,1-.52,4.59c-.2.21.12.53.32.32a4.54,4.54,0,0,0,.75-4.73c-.68-1.89-2.27-3.27-3.75-4.55-.22-.19-.54.13-.32.32Z"/><path class="cls-2" d="M28.76,34.23l1.32-1.35a.22.22,0,0,0,0-.31.22.22,0,0,0-.32,0l-1.32,1.35a.22.22,0,0,0,0,.31.22.22,0,0,0,.32,0Z"/><path class="cls-2" d="M29.69,32.93c1.23.06,1.52-1.44,2.43-1.93.36-.2.72,0,1.1-.06a1.37,1.37,0,0,0,.82-.32A3.35,3.35,0,0,0,35,28.78c.06-.28-.37-.4-.44-.12a2.69,2.69,0,0,1-.84,1.67c-.35.25-.71.11-1.11.11a1.29,1.29,0,0,0-.71.19,4.23,4.23,0,0,0-1,1.11c-.29.36-.62.77-1.12.74-.28,0-.28.44,0,.45Z"/><path class="cls-2" d="M34.36,29.39a.23.23,0,0,0,0-.45.23.23,0,0,0,0,.45Z"/><path class="cls-2" d="M34,26.5a2.67,2.67,0,0,1-1.65-1,.22.22,0,1,0-.38.23,3.13,3.13,0,0,0,1.91,1.21.23.23,0,0,0,.27-.16A.23.23,0,0,0,34,26.5Z"/><path class="cls-2" d="M33.18,22.45A2.32,2.32,0,0,1,32,19.86a.22.22,0,0,0-.43-.12A2.74,2.74,0,0,0,33,22.83c.25.13.48-.25.22-.38Z"/><path class="cls-2" d="M91.53,22.08a2.19,2.19,0,0,0-1.62.29.23.23,0,0,0,.18.41A12.88,12.88,0,0,1,94,22.56,3.32,3.32,0,0,1,95.4,23,1.46,1.46,0,0,1,96,24.54a4.33,4.33,0,0,1-1.31,2.89c-.38.26-.87.4-1.12.81a.86.86,0,0,0,0,1.05.2.2,0,0,0,.22.06,3.74,3.74,0,0,0,1.38-.62l-.33-.14a1.82,1.82,0,0,1-.14,1.48.23.23,0,0,0,.39.23,6.58,6.58,0,0,0,1-1.87l-.44-.06a1.11,1.11,0,0,0,1.64.91.22.22,0,0,0-.23-.38.66.66,0,0,1-1-.53.22.22,0,0,0-.44-.06,6.25,6.25,0,0,1-1,1.76l.39.23a2.34,2.34,0,0,0,.19-1.83.23.23,0,0,0-.33-.13,3.54,3.54,0,0,1-1.28.58l.21.06c-.46-.56.83-1,1.13-1.26a2.91,2.91,0,0,0,.84-1.18,9.27,9.27,0,0,0,.49-1.63,2.45,2.45,0,0,0-.08-1.58A2.78,2.78,0,0,0,94,22.11a13.69,13.69,0,0,0-4,.23l.17.41a1.77,1.77,0,0,1,1.27-.24c.28,0,.4-.38.12-.43Z"/><path class="cls-2" d="M97.24,29.18a1,1,0,0,0,.75.9c.44.17.92.09,1.36.25s.57.72.81,1.11a1,1,0,0,0,1.15.59c.27-.09.15-.52-.12-.44s-.66-.39-.8-.68a1.68,1.68,0,0,0-.76-.95,4.89,4.89,0,0,0-1.21-.23c-.28-.05-.71-.2-.73-.55s-.47-.29-.45,0Z"/><path class="cls-3" d="M84.18,59.6a.34.34,0,0,0-.42.42.41.41,0,0,0,.44.32.46.46,0,0,0,.36-.5,1,1,0,0,0,0-.17.13.13,0,0,1,0-.06s0,0,0,0,0,0,0,0,0,0,0,0,0,0,0,0a.09.09,0,0,1-.09,0c-.08,0-.1,0-.05,0l-.07-.54a.44.44,0,0,0-.06.72.51.51,0,0,0,.76-.07,2.28,2.28,0,0,0,.34-.8l.29-.9a.3.3,0,0,0-.21-.37.3.3,0,0,0-.37.21l-.39,1.21s0,.09,0,.13a.08.08,0,0,1,0,0s0,0,0,0l0,.08c0-.06-.06,0,0,0s0,0,0,0a.11.11,0,0,1,.08,0s0,0,0,0,0,0,0,0,0,0,0,0a.19.19,0,0,1,0,.07s0,0,0,.09-.1.09,0,.06a.29.29,0,0,0,.14-.3.3.3,0,0,0-.21-.24c-.33-.12-.58.21-.59.51a1.13,1.13,0,0,0,0,.18s0,.06,0,.09v0s.05-.08,0-.08a.24.24,0,0,1,.31,0l0,0s0,0,0,0v0a.28.28,0,0,1,0,.18l-.11.11-.19,0a.3.3,0,0,0,.37-.21.29.29,0,0,0-.21-.37Z"/><path class="cls-3" d="M87.65,56.1l-.44-.45a.27.27,0,0,0-.21-.09.29.29,0,0,0-.21.09.33.33,0,0,0-.09.21.29.29,0,0,0,.09.21l.43.46a.36.36,0,0,0,.22.09.31.31,0,0,0,.3-.3.4.4,0,0,0-.09-.22Z"/><path class="cls-3" d="M96.81,27.54a.38.38,0,0,0,0-.75.38.38,0,0,0,0,.75Z"/><path class="cls-3" d="M95.92,27.77a.38.38,0,0,0,0-.75.38.38,0,0,0,0,.75Z"/><path class="cls-3" d="M95.25,28.21a.38.38,0,0,0,0-.75.38.38,0,0,0,0,.75Z"/><path class="cls-3" d="M94.58,29.32a.38.38,0,0,0,0-.75.38.38,0,0,0,0,.75Z"/><path class="cls-3" d="M94.36,29.1a.38.38,0,0,0,0-.75.38.38,0,0,0,0,.75Z"/><path class="cls-3" d="M93.25,29.77a.38.38,0,0,0,0-.75.38.38,0,0,0,0,.75Z"/><path class="cls-3" d="M94.74,30.5v-.44a.44.44,0,0,0-.11-.27.37.37,0,0,0-.12-.07.28.28,0,0,0-.15,0,.39.39,0,0,0-.26.11.4.4,0,0,0-.11.27v.44a.39.39,0,0,0,.11.27.24.24,0,0,0,.12.07.23.23,0,0,0,.14,0,.44.44,0,0,0,.27-.11.46.46,0,0,0,.11-.27Z"/><path class="cls-3" d="M95.69,29.1a.38.38,0,0,0,0-.75.38.38,0,0,0,0,.75Z"/><path class="cls-3" d="M95.69,28.65a.38.38,0,0,0,0-.75.38.38,0,0,0,0,.75Z"/><path class="cls-3" d="M96.36,29.77a.38.38,0,0,0,0-.75.38.38,0,0,0,0,.75Z"/><path class="cls-3" d="M96.85,30.24,96.63,30a.37.37,0,0,0-.12-.07.28.28,0,0,0-.15,0,.23.23,0,0,0-.14,0,.24.24,0,0,0-.12.07l-.06.08a.32.32,0,0,0-.05.19v.1a.42.42,0,0,0,.1.17l.22.22a.24.24,0,0,0,.12.07.23.23,0,0,0,.14,0,.28.28,0,0,0,.15,0,.37.37,0,0,0,.12-.07l.06-.08a.41.41,0,0,0,0-.19l0-.1a.32.32,0,0,0-.09-.16Z"/><path class="cls-3" d="M97.92,30a.38.38,0,0,0,0-.75.38.38,0,0,0,0,.75Z"/><path class="cls-3" d="M99.25,29.77a.38.38,0,0,0,0-.75.38.38,0,0,0,0,.75Z"/><path class="cls-3" d="M100.36,30.43a.38.38,0,0,0,0-.75.38.38,0,0,0,0,.75Z"/><path class="cls-3" d="M99.85,30.72V30.5a.23.23,0,0,0,0-.14.24.24,0,0,0-.07-.12.28.28,0,0,0-.12-.08l-.15,0h-.1a.34.34,0,0,0-.16.1l-.06.07a.32.32,0,0,0-.05.19v.22a.25.25,0,0,0,0,.15.2.2,0,0,0,.08.12.25.25,0,0,0,.12.08.32.32,0,0,0,.14,0h.1a.37.37,0,0,0,.17-.1l.06-.08a.38.38,0,0,0,0-.19Z"/><path class="cls-3" d="M100.36,30.65a.38.38,0,0,0,0-.75.38.38,0,0,0,0,.75Z"/><path class="cls-3" d="M102.14,30.65a.38.38,0,0,0,0-.75.38.38,0,0,0,0,.75Z"/><path class="cls-3" d="M62.81,51.32a.38.38,0,0,0,0-.75.38.38,0,0,0,0,.75Z"/><path class="cls-3" d="M63,52.43a.38.38,0,0,0,0-.75.38.38,0,0,0,0,.75Z"/><path class="cls-3" d="M63.47,54a.38.38,0,0,0,0-.75.38.38,0,0,0,0,.75Z"/><path class="cls-3" d="M63.69,55.77a.38.38,0,0,0,0-.75.38.38,0,0,0,0,.75Z"/><path class="cls-3" d="M62.81,57.54a.38.38,0,0,0,0-.75.38.38,0,0,0,0,.75Z"/><path class="cls-3" d="M61.92,58a.38.38,0,0,0,0-.75.38.38,0,0,0,0,.75Z"/><path class="cls-3" d="M61.92,58.21a.38.38,0,0,0,0-.75.38.38,0,0,0,0,.75Z"/><path class="cls-3" d="M61.92,60.21h.22a.32.32,0,0,0,.14,0,.25.25,0,0,0,.12-.08.2.2,0,0,0,.08-.12.22.22,0,0,0,0-.14v-.1a.37.37,0,0,0-.1-.17l-.07-.06a.41.41,0,0,0-.19,0h-.22a.37.37,0,0,0-.15,0,.42.42,0,0,0-.12.08.25.25,0,0,0-.08.12.37.37,0,0,0,0,.15v.1a.39.39,0,0,0,.1.16l.08.06a.41.41,0,0,0,.19.05Z"/><path class="cls-3" d="M63.25,60.88a.38.38,0,0,0,0-.75.38.38,0,0,0,0,.75Z"/><path class="cls-3" d="M61.47,61.1a.38.38,0,0,0,0-.75.38.38,0,0,0,0,.75Z"/><path class="cls-3" d="M64,59.57l.23-.44a.25.25,0,0,0,0-.14.38.38,0,0,0,0-.15.27.27,0,0,0-.07-.13.36.36,0,0,0-.11-.1.39.39,0,0,0-.28,0,.41.41,0,0,0-.23.18l-.22.44a.24.24,0,0,0-.05.14.26.26,0,0,0,0,.15.24.24,0,0,0,.07.13.22.22,0,0,0,.1.09.37.37,0,0,0,.29,0,.38.38,0,0,0,.22-.17Z"/><path class="cls-3" d="M64.14,58a.38.38,0,0,0,0-.75.38.38,0,0,0,0,.75Z"/><path class="cls-3" d="M63.69,57h-.22a.17.17,0,0,0-.14,0,.37.37,0,0,0-.2.2.22.22,0,0,0,0,.14v.1a.42.42,0,0,0,.1.17l.07.05a.33.33,0,0,0,.19.06h.22a.26.26,0,0,0,.15,0,.24.24,0,0,0,.12-.07.42.42,0,0,0,.08-.12.4.4,0,0,0,0-.15v-.1a.34.34,0,0,0-.1-.16l-.08-.06a.32.32,0,0,0-.19,0Z"/><path class="cls-3" d="M61.76,57.06l-.22.67a.37.37,0,0,0,0,.29.34.34,0,0,0,.22.17.37.37,0,0,0,.29,0,.38.38,0,0,0,.17-.22l.23-.67a.35.35,0,0,0,0-.28.42.42,0,0,0-.22-.18.41.41,0,0,0-.29,0,.48.48,0,0,0-.18.22Z"/><path class="cls-3" d="M62.81,59.32a.38.38,0,0,0,0-.75.38.38,0,0,0,0,.75Z"/><path class="cls-3" d="M63.25,59.77a.38.38,0,0,0,0-.75.38.38,0,0,0,0,.75Z"/><path class="cls-3" d="M62.79,60.16a2.08,2.08,0,0,0,1-.75,1.1,1.1,0,0,0,0-1.12.83.83,0,0,0-.52-.35l-.15,0-.08,0h0s0,0,0,0,0,0,0,0,0,.07,0,0,0,0,0,0,0,0,0-.08,0-.06,0-.09,0,0,0,0,.06-.25.08-.38c0-.39,0-.79-.45-.91a.38.38,0,0,0-.2.73s0,0,0,0l0,0,0-.08c0,.09,0-.05,0,0v.08s0,.14,0,0,0,.06,0,.09,0,.14,0,.21a1.07,1.07,0,0,0,.19,1,.82.82,0,0,0,.36.18l.15,0,.09,0h0l.05,0s0,0,0,0,0,0,0,0,0,.13,0,.06v.13h0a.64.64,0,0,1,0,.07c0,.05,0,.05,0,0l0,0a.69.69,0,0,1-.16.18,3.42,3.42,0,0,1-.57.3.37.37,0,0,0-.13.51.38.38,0,0,0,.51.14Z"/><path class="cls-3" d="M62.93,55.74l-.22-.67a.43.43,0,0,0-.18-.22.37.37,0,0,0-.29,0A.39.39,0,0,0,62,55a.35.35,0,0,0,0,.28l.23.67a.38.38,0,0,0,.46.26.34.34,0,0,0,.22-.17.37.37,0,0,0,0-.29Z"/><path class="cls-3" d="M61.85,52.72V51.61a.38.38,0,0,0-.38-.37.38.38,0,0,0-.37.37v1.11a.38.38,0,0,0,.37.38.39.39,0,0,0,.38-.38Z"/><path class="cls-3" d="M62,49.36a4.92,4.92,0,0,1,.26-.43l.15-.21,0,0c0,.08,0,0,0,0l.08-.1a5.44,5.44,0,0,1,.73-.71.39.39,0,0,0,.11-.27.36.36,0,0,0-.11-.26.38.38,0,0,0-.53,0A5.29,5.29,0,0,0,61.38,49a.38.38,0,1,0,.65.38Z"/><path class="cls-3" d="M64.37,46.45A6.29,6.29,0,0,0,66.53,44a.39.39,0,0,0-.14-.51.37.37,0,0,0-.51.13,7.12,7.12,0,0,1-.36.67c-.07.1-.14.21-.22.31a2.93,2.93,0,0,1-.21.27,5.39,5.39,0,0,1-.53.54l-.29.24,0,0-.08.06L64,45.8a.37.37,0,0,0-.13.51.39.39,0,0,0,.51.14Z"/><path class="cls-3" d="M67.85,43.61v-.44a.44.44,0,0,0-.11-.27.37.37,0,0,0-.12-.07.28.28,0,0,0-.15,0,.39.39,0,0,0-.26.11.4.4,0,0,0-.11.27v.44a.39.39,0,0,0,.11.27.25.25,0,0,0,.12.08.32.32,0,0,0,.14,0,.38.38,0,0,0,.38-.38Z"/><path class="cls-3" d="M68.11,42l-.45-.23a.33.33,0,0,0-.14,0,.26.26,0,0,0-.15,0,.31.31,0,0,0-.13.06.24.24,0,0,0-.09.11.37.37,0,0,0,0,.29.38.38,0,0,0,.17.22l.45.22a.24.24,0,0,0,.14,0,.26.26,0,0,0,.15,0,.21.21,0,0,0,.12-.07.24.24,0,0,0,.1-.1.37.37,0,0,0,0-.29.38.38,0,0,0-.17-.22Z"/><path class="cls-3" d="M67.69,42a.38.38,0,0,0,0-.75.38.38,0,0,0,0,.75Z"/><path class="cls-3" d="M69.69,41.77h.45a.41.41,0,0,0,.26-.11.28.28,0,0,0,.08-.12.27.27,0,0,0,0-.15.31.31,0,0,0-.11-.26.36.36,0,0,0-.26-.11h-.45a.38.38,0,0,0-.26.11.25.25,0,0,0-.08.12.32.32,0,0,0,0,.14.39.39,0,0,0,.11.27.41.41,0,0,0,.26.11Z"/><path class="cls-3" d="M70.81,41.54a.38.38,0,0,0,0-.75.38.38,0,0,0,0,.75Z"/><path class="cls-3" d="M72.14,40.35h-.22a.37.37,0,0,0-.15,0,.42.42,0,0,0-.12.08.25.25,0,0,0-.08.12.32.32,0,0,0,0,.14v.1a.37.37,0,0,0,.1.17l.08.06a.41.41,0,0,0,.19.05h.22a.32.32,0,0,0,.14,0A.25.25,0,0,0,72.4,41a.2.2,0,0,0,.08-.12.25.25,0,0,0,0-.15v-.1a.39.39,0,0,0-.1-.16l-.07-.06a.41.41,0,0,0-.19,0Z"/><path class="cls-3" d="M70.14,41.1a.38.38,0,0,0,0-.75.38.38,0,0,0,0,.75Z"/><path class="cls-3" d="M69.78,40.19,69.11,40a.37.37,0,0,0-.29,0,.34.34,0,0,0-.17.22.37.37,0,0,0,0,.29.38.38,0,0,0,.22.17l.67.22a.41.41,0,0,0,.29,0,.44.44,0,0,0,.17-.23.38.38,0,0,0,0-.29.41.41,0,0,0-.22-.17Z"/><path class="cls-3" d="M69,40.21h1.11a.38.38,0,0,0,0-.75H69a.38.38,0,0,0-.38.38.38.38,0,0,0,.38.37Z"/><path class="cls-3" d="M70.58,40.21H71a.38.38,0,0,0,.26-.11.25.25,0,0,0,.08-.12.32.32,0,0,0,0-.14.35.35,0,0,0-.11-.27.36.36,0,0,0-.26-.11h-.45a.38.38,0,0,0-.26.11.25.25,0,0,0-.08.12.37.37,0,0,0,0,.15.34.34,0,0,0,.11.26.36.36,0,0,0,.26.11Z"/><path class="cls-3" d="M74.82,39.41A17.18,17.18,0,0,0,77,36.27a.38.38,0,0,0-.65-.38,16.3,16.3,0,0,1-2,3,.37.37,0,0,0,.53.53Z"/><path class="cls-3" d="M77.92,35.1a.38.38,0,0,0,0-.75.38.38,0,0,0,0,.75Z"/><path class="cls-3" d="M77.32,33.84v2a.38.38,0,0,0,.75,0v-2a.38.38,0,0,0-.38-.38.38.38,0,0,0-.37.38Z"/><path class="cls-3" d="M77.78,34.2l-.91-1.09a.38.38,0,0,0-.26-.11.37.37,0,0,0-.27.11.41.41,0,0,0-.11.26.44.44,0,0,0,.11.27l.91,1.09a.39.39,0,0,0,.27.11.36.36,0,0,0,.26-.11.35.35,0,0,0,.11-.27.38.38,0,0,0-.11-.26Z"/><path class="cls-3" d="M76,31.75a7,7,0,0,0-1.8-2.68.37.37,0,0,0-.53.53,6.34,6.34,0,0,1,1.61,2.34.39.39,0,0,0,.46.27.38.38,0,0,0,.26-.46Z"/><path class="cls-3" d="M73.07,28.46l-.22-.22a.28.28,0,0,0-.12-.08.4.4,0,0,0-.15,0,.32.32,0,0,0-.14,0,.2.2,0,0,0-.12.08l-.06.07a.41.41,0,0,0-.05.19v.1a.37.37,0,0,0,.1.17l.22.22a.25.25,0,0,0,.12.08.37.37,0,0,0,.15,0,.35.35,0,0,0,.14,0,.25.25,0,0,0,.12-.08l.06-.08a.38.38,0,0,0,.05-.19v-.1a.39.39,0,0,0-.1-.16Z"/><path class="cls-3" d="M72.14,27.9h-.45a.43.43,0,0,0-.26.11.35.35,0,0,0-.08.13.32.32,0,0,0,0,.14.39.39,0,0,0,.11.27.4.4,0,0,0,.26.1h.45a.4.4,0,0,0,.26-.1.26.26,0,0,0,.08-.13.22.22,0,0,0,0-.14A.35.35,0,0,0,72.4,28a.41.41,0,0,0-.26-.11Z"/><path class="cls-3" d="M73.92,28.43a.38.38,0,0,0,0-.75.38.38,0,0,0,0,.75Z"/><path class="cls-3" d="M70.14,39a4,4,0,0,0,3.31-1.62.37.37,0,0,0-.09-.48.38.38,0,0,0-.5,0s0,0,0,0h0c.05,0,0,0,0,0h0l0,0h0l0,0c0-.09,0,.08,0,0s0,.12,0,.06a.37.37,0,0,0-.13-.51.38.38,0,0,0-.51.13c-.44.64.56,1.42,1.09.88L72.81,37a3.25,3.25,0,0,1-2.67,1.25.38.38,0,0,0,0,.75Z"/><path class="cls-3" d="M72.91,34.08l-2.59.84.47.37a4,4,0,0,0-1.11-2.77c-.33-.35-.86.18-.53.53A3.25,3.25,0,0,1,70,35.29a.38.38,0,0,0,.48.36l2.59-.84c.46-.15.26-.88-.2-.73Z"/><path class="cls-3" d="M69.07,31.35l-.22-.22a.28.28,0,0,0-.12-.08.21.21,0,0,0-.15,0,.17.17,0,0,0-.14,0,.2.2,0,0,0-.12.08l-.06.07a.41.41,0,0,0-.05.19v.1a.42.42,0,0,0,.1.17l.22.22a.25.25,0,0,0,.12.08.37.37,0,0,0,.15,0A.35.35,0,0,0,69,32a.25.25,0,0,0,.12-.08l.06-.08a.41.41,0,0,0,.05-.19v-.1a.34.34,0,0,0-.1-.16Z"/><path class="cls-3" d="M67.51,30.24,67.29,30a.24.24,0,0,0-.12-.07.23.23,0,0,0-.14,0,.28.28,0,0,0-.15,0,.37.37,0,0,0-.12.07l-.06.08a.41.41,0,0,0,0,.19l0,.1a.4.4,0,0,0,.09.17l.22.22a.33.33,0,0,0,.13.07.27.27,0,0,0,.28,0,.24.24,0,0,0,.12-.07l.06-.08a.32.32,0,0,0,.05-.19v-.1a.34.34,0,0,0-.1-.16Z"/><path class="cls-3" d="M66.64,30.12l4.15,2.56a.38.38,0,0,0,.38-.65L67,29.47c-.41-.25-.79.4-.38.65Z"/><path class="cls-3" d="M68.72,31l2.44,2a.38.38,0,0,0,.53,0,.37.37,0,0,0,0-.53l-2.44-2a.4.4,0,0,0-.53,0,.37.37,0,0,0,0,.53Z"/><path class="cls-3" d="M70.73,31.17a3.87,3.87,0,0,0,1.91,3.16.37.37,0,0,0,.38-.64,3.1,3.1,0,0,1-1.09-1.07,3,3,0,0,1-.45-1.45.38.38,0,0,0-.38-.37.38.38,0,0,0-.37.37Z"/><path class="cls-3" d="M72.82,33.29A.94.94,0,0,1,73.48,32a.38.38,0,0,0,.09-.68c-2.56-1.21-5.09-2.52-7.73-3.51-.56-.22-2.27-1.15-2.75-.36a.55.55,0,0,0,.84.68.37.37,0,0,0-.16-.62l-4.66-1.07c-.47-.11-.67.61-.2.72l4.66,1.07-.17-.63-.06.07.36-.1.18.37.38.11.63.21,1.12.41c.83.33,1.65.69,2.47,1.06,1.57.73,3.14,1.49,4.71,2.23l.09-.68a1.68,1.68,0,0,0-1.1,2.41c.21.43.86,0,.64-.38Z"/><path class="cls-3" d="M57.59,27.87l-.22.44a.25.25,0,0,0,0,.14.26.26,0,0,0,0,.15.33.33,0,0,0,.07.13.47.47,0,0,0,.1.1.37.37,0,0,0,.29,0,.39.39,0,0,0,.23-.17l.22-.44a.25.25,0,0,0,0-.14.26.26,0,0,0,0-.15.33.33,0,0,0-.07-.13l-.1-.1a.37.37,0,0,0-.29,0,.39.39,0,0,0-.23.17Z"/><path class="cls-3" d="M55.92,30a.38.38,0,0,0,0-.75.38.38,0,0,0,0,.75Z"/><path class="cls-3" d="M53.47,30a.38.38,0,0,0,0-.75.38.38,0,0,0,0,.75Z"/><path class="cls-3" d="M51.92,29.77a.38.38,0,0,0,0-.75.38.38,0,0,0,0,.75Z"/><path class="cls-3" d="M50.58,29h-.22a.17.17,0,0,0-.14,0,.37.37,0,0,0-.2.2.17.17,0,0,0,0,.14v.1a.42.42,0,0,0,.1.17l.07.05a.33.33,0,0,0,.19.06h.22a.28.28,0,0,0,.15,0,.37.37,0,0,0,.12-.07l.08-.12a.4.4,0,0,0,0-.15l0-.1a.32.32,0,0,0-.09-.16l-.08-.06a.32.32,0,0,0-.19-.05Z"/><path class="cls-3" d="M49.92,29.77a.38.38,0,0,0,0-.75.38.38,0,0,0,0,.75Z"/><path class="cls-3" d="M50.14,32.21a.38.38,0,0,0,0-.75.38.38,0,0,0,0,.75Z"/><path class="cls-3" d="M48.36,34.21h1.11a.38.38,0,0,0,.38-.37.39.39,0,0,0-.38-.38H48.36a.38.38,0,0,0,0,.75Z"/><path class="cls-3" d="M50.48,34.23a1.25,1.25,0,0,1,.94.69l.14-.51a2.25,2.25,0,0,1-1.37.27.38.38,0,0,0-.36.63,4.88,4.88,0,0,0,1.26,1l.29-.69-1.75-.53c-.34-.11-.67.39-.36.62l1.37,1.08.36-.62-1.79-.49a.38.38,0,0,0-.2.73.94.94,0,0,0,.77-.07.73.73,0,0,0,.29-.26.5.5,0,0,0,.08-.46,1.58,1.58,0,0,0-.88-1.26,1,1,0,0,0-.73,0A1,1,0,0,0,48,35c-.2.62-.36,1.26-.54,1.88a.37.37,0,0,0,.72.2L48.53,36l.15-.51c0-.11,0-.34.14-.42s.26,0,.34.08a1.47,1.47,0,0,1,.28.76l0-.29c-.06.11-.16.11-.27.06l-.2.73,1.8.48c.33.09.67-.38.36-.63L49.8,35.18l-.37.63,1.75.54a.38.38,0,0,0,.29-.69,4.11,4.11,0,0,1-1.11-.88L50,35.4a3.15,3.15,0,0,0,1.95-.34.38.38,0,0,0,.13-.51,2,2,0,0,0-1.39-1,.38.38,0,0,0-.46.26.37.37,0,0,0,.26.46Z"/><path class="cls-3" d="M47.22,37.42a1.91,1.91,0,0,0,.56,3.27l-.27-.26a2.09,2.09,0,0,1-.72,1.73A7.43,7.43,0,0,0,45.48,44a1.35,1.35,0,0,0-.1,1.14.75.75,0,0,0,.84.34,1.23,1.23,0,0,0,.81-.65c.17-.37.14-.87.46-1.16s-.17-.85-.53-.53a1.75,1.75,0,0,0-.48.92,2.23,2.23,0,0,1-.13.46c-.08.13-.19.14-.29.22s0,0,0,.05a.84.84,0,0,1,0-.27,1.73,1.73,0,0,1,.16-.37,4.05,4.05,0,0,1,.53-.77c.75-.9,1.75-1.82,1.47-3.1A.39.39,0,0,0,48,40a1.15,1.15,0,0,1-.38-1.89c.38-.29,0-.94-.38-.65Z"/><path class="cls-3" d="M48.21,44.28v3.78a.38.38,0,0,0,.75,0V44.28a.38.38,0,0,0-.75,0Z"/><path class="cls-3" d="M48.72,47.57a4.11,4.11,0,0,0,1.2,1.29.42.42,0,0,0,.29,0,.4.4,0,0,0,.23-.17.39.39,0,0,0-.14-.52l-.15-.11.07.06a3.69,3.69,0,0,1-.65-.66l.06.08a3.3,3.3,0,0,1-.26-.39.37.37,0,0,0-.51-.13.39.39,0,0,0-.14.51Z"/><path class="cls-3" d="M50.52,48V48a.24.24,0,0,1,0-.12V48a.22.22,0,0,1,0-.08v0c0-.06,0,0,0,0a.49.49,0,0,0,0-.07l0,0s-.06.07,0,0l0-.05s.06,0,0,0h0l0,0,0,0s.07,0,.09,0l-.48-.36a.28.28,0,0,1,0,.09l0-.1c0,.11,0,.22-.08.33l0,.09,0,0s0,0,0,0A1.19,1.19,0,0,1,50,48l-.09.14-.05.07,0,0s.05-.06,0,0a2,2,0,0,1-.25.25.37.37,0,1,0,.53.53,2.38,2.38,0,0,0,.8-1.59.34.34,0,0,0-.15-.29A.34.34,0,0,0,50.5,47a.93.93,0,0,0-.57.42.91.91,0,0,0-.13.7.34.34,0,0,0,.17.22.37.37,0,0,0,.29,0,.38.38,0,0,0,.26-.46Z"/><path class="cls-3" d="M49.63,49.65c-.84.11-.6,1.21-.4,1.75a2,2,0,0,1-.37,2c-.33.35.2.89.53.53a2.7,2.7,0,0,0,.7-2.22c-.05-.35-.2-.65-.28-1a1.11,1.11,0,0,1,0-.37c0,.07,0,0,0,0s0,0,0,0,0,0,0,0h0a.39.39,0,0,0,.27-.46.38.38,0,0,0-.47-.26Z"/><path class="cls-3" d="M49.35,25.43a7.68,7.68,0,0,1-1.07-2.58.37.37,0,1,0-.72.2A8.31,8.31,0,0,0,48.7,25.8a.39.39,0,0,0,.51.14.38.38,0,0,0,.14-.51Z"/><path class="cls-3" d="M49.39,23.74a4.48,4.48,0,0,1-.12-.46,2,2,0,0,1-.05-.24s0-.08,0-.12,0-.06,0-.06a4.3,4.3,0,0,1,0-.95l-.27.36.92-.14.21,0,.12,0c.1,0-.05,0,0,0s.08,0,0,0h0l-.1-.06c-.15-.11-.07-.37.06-.45a.3.3,0,0,1,.4.13l0,.19V22a.39.39,0,0,0-.26-.46.37.37,0,0,0-.46.26.41.41,0,0,0,.23.49.46.46,0,0,0,.44,0,.45.45,0,0,0,.22-.4.51.51,0,0,0-.36-.45,2,2,0,0,0-.84.05l-.88.14a.4.4,0,0,0-.28.36,5.1,5.1,0,0,0,.23,2,.38.38,0,0,0,.46.27.37.37,0,0,0,.26-.46Z"/><path class="cls-3" d="M31.58,32.92c0,.07,0,0,0,0l.05-.05s0,0,0,0l.06,0,.05,0h0l.07,0h0l-.32-.56a1.35,1.35,0,0,1-.15.26l0,0,0,0-.05.06-.1.11-.06.05s-.06.07,0,0a.5.5,0,0,1-.12.08l-.13.07,0,0h0l-.08,0,.29.68a4.17,4.17,0,0,0,1.44-1.33.38.38,0,0,0-.33-.56,4.07,4.07,0,0,0-1.88.62.37.37,0,0,0,.18.69,2.37,2.37,0,0,0,2.16-1.23.37.37,0,0,0-.65-.37c0,.08-.09.15-.14.23s0,0,0,0,0,.05-.05.06a.76.76,0,0,1-.09.09l-.09.09-.06.05s0,0,0,0l-.12.08a.41.41,0,0,1-.11.07l-.11.06-.06,0h0l-.24.08-.13,0h-.07c-.05,0,.09,0,0,0a2.62,2.62,0,0,1-.28,0l.19.7a3,3,0,0,1,.4-.21l.09,0c.08,0-.05,0,0,0l.21-.07a3,3,0,0,1,.4-.12l.23,0h.15l-.32-.57-.13.18h0l0,0-.08.1a4,4,0,0,1-.29.29l-.16.14-.05,0s0,0,0,0l-.07.06-.38.23a.38.38,0,0,0-.15.47.36.36,0,0,0,.44.22,1.92,1.92,0,0,0,1.16-1,.35.35,0,0,0,0-.37.36.36,0,0,0-.32-.19,1.26,1.26,0,0,0-.9.51.38.38,0,0,0,.65.38Z"/><path class="cls-3" d="M32.92,31.59l1.51-2a.37.37,0,0,0-.64-.38l-1.52,2a.37.37,0,0,0,.14.51.38.38,0,0,0,.51-.13Z"/><path class="cls-3" d="M34.54,25.08a9.23,9.23,0,0,0-2.73-.75c-.27,0-.4.26-.36.47a1.36,1.36,0,0,0,.57.86,1.41,1.41,0,0,0,1,.22.38.38,0,0,0,.27-.31.37.37,0,0,0-.18-.37l-.57-.38-.28.69.65.24a.37.37,0,1,0,.2-.72l-.65-.24A.37.37,0,0,0,32,25a.39.39,0,0,0,.16.47l.56.37.09-.68s0,0,0,0h-.09l-.09,0-.08,0s0,0,0,0L32.4,25s0,0,0,0a.2.2,0,0,1-.07-.06l-.06-.06s0,0,0,0l0-.08s0-.08,0,0,0-.11,0-.17l-.36.48a8.06,8.06,0,0,1,2.35.65.4.4,0,0,0,.52-.13.39.39,0,0,0-.14-.52Z"/><path class="cls-3" d="M32.28,22.29l0-.07,0,.09a.42.42,0,0,1,0-.16v.1a.49.49,0,0,1,0-.17v.1a.49.49,0,0,1,0-.2l0,.09a.6.6,0,0,1,.09-.15l-.06.08a.34.34,0,0,1,.12-.12l-.08.06.06,0-.56-.32a.13.13,0,0,0,0,.06v-.1a.42.42,0,0,1,0,.15l0-.08a1.19,1.19,0,0,1-.09.15l.06-.08a.93.93,0,0,1-.14.14l.07-.06a.38.38,0,0,1-.15.09l.09,0a.48.48,0,0,1-.17.05h0a.46.46,0,0,0-.27.11.44.44,0,0,0-.11.27.38.38,0,0,0,.38.37,1,1,0,0,0,.76-.29,1.11,1.11,0,0,0,.34-.73.38.38,0,0,0-.57-.33,1.08,1.08,0,0,0-.38,1.42.38.38,0,0,0,.65-.38Z"/><path class="cls-3" d="M26.86,23.23l0,.05s0,0,0,0-.13,0,0,0l-.13,0c.09,0,0,0,0,0a.33.33,0,0,1-.27-.12s0,0,0,0l0-.06s0,0,0,0a.14.14,0,0,0,0-.06s0,0,0-.06h0a.4.4,0,0,0,0-.11v0a.13.13,0,0,1,0-.06s.06-.13,0-.05.08-.13,0-.06l.09-.09a.37.37,0,0,0,.1-.36.39.39,0,0,0-.27-.26A2.88,2.88,0,0,0,24.56,22l.36.62s0,0,0,0h0a.1.1,0,0,1-.09,0h0s0,0,0,0l0,0c0,.05,0-.06,0,0s0-.09,0,0v-.06s0,0,0,0,.1-.13,0-.07a.37.37,0,1,0,.53.53.63.63,0,0,0,0-.9.62.62,0,0,0-.9-.05.38.38,0,0,0,.36.63,2.3,2.3,0,0,1,1.31.15l-.17-.63a1.12,1.12,0,0,0-.08,1.56,1.11,1.11,0,0,0,1.58,0,.37.37,0,0,0,0-.53.39.39,0,0,0-.53,0Z"/><path class="cls-3" d="M19.92,24.21a.38.38,0,0,0,0-.75.38.38,0,0,0,0,.75Z"/><path class="cls-3" d="M18.74,22.57a2,2,0,0,0,1.64,2.62.37.37,0,0,0,.37-.37.38.38,0,0,0-.37-.38c.1,0,0,0,0,0l-.08,0-.16-.05c.09,0,0,0,0,0l-.07,0-.14-.09c-.06,0,.05.05,0,0l-.06-.06a.57.57,0,0,1-.11-.11L19.67,24c-.05-.06,0,.06,0,0l-.09-.15a1.09,1.09,0,0,1-.08-.15c0-.07,0,0,0,0s0-.05,0-.07a1.42,1.42,0,0,1-.05-.16s0-.06,0-.08,0,0,0,0V23s0,.08,0,0,0-.06,0-.08a.85.85,0,0,1,.06-.17.39.39,0,0,0-.27-.47.4.4,0,0,0-.46.27Z"/><path class="cls-3" d="M20,26.17l-.22.67a.48.48,0,0,0,0,.29.44.44,0,0,0,.23.17.38.38,0,0,0,.29,0,.41.41,0,0,0,.17-.22l.21-.67a.41.41,0,0,0,0-.29.39.39,0,0,0-.23-.17.37.37,0,0,0-.29,0,.44.44,0,0,0-.17.23Z"/><path class="cls-3" d="M19.47,29.77a.38.38,0,0,0,0-.75.38.38,0,0,0,0,.75Z"/><path class="cls-3" d="M19.69,31.78l2.22.23a.38.38,0,0,0,.38-.38.38.38,0,0,0-.38-.37L19.69,31a.38.38,0,0,0-.37.37.38.38,0,0,0,.37.38Z"/><path class="cls-3" d="M22.42,33s0,0,0,0l.08.06.13.12a3.07,3.07,0,0,1,.26.25c.08.09.17.18.25.28l.06.07c0,.06,0,0,0,0l.12.16A4.85,4.85,0,0,1,24,35.27a.37.37,0,0,0,.72-.2,5.47,5.47,0,0,0-1.91-2.7.38.38,0,0,0-.52.13.39.39,0,0,0,.14.51Z"/><path class="cls-3" d="M24.58,35.74a6.08,6.08,0,0,1-.25,4.38.39.39,0,0,0,.13.52A.39.39,0,0,0,25,40.5a6.81,6.81,0,0,0,.32-5c-.15-.46-.87-.26-.72.2Z"/><path class="cls-3" d="M22.85,21.79l-.22-.22a.42.42,0,0,0-.12-.08.4.4,0,0,0-.15,0,.32.32,0,0,0-.14,0,.25.25,0,0,0-.12.08l-.06.08a.3.3,0,0,0-.05.19v.1a.39.39,0,0,0,.1.16l.22.22a.2.2,0,0,0,.12.08.32.32,0,0,0,.14,0,.4.4,0,0,0,.15,0,.28.28,0,0,0,.12-.08l.06-.07a.41.41,0,0,0,.05-.19l0-.1a.35.35,0,0,0-.09-.17Z"/><path class="cls-3" d="M23.6,21.85a1.33,1.33,0,0,0,.57-1.28,3,3,0,0,0-.74-1.52,2.31,2.31,0,0,1-.54-1.73,6,6,0,0,1,.64-2c.19-.44-.45-.82-.65-.38a4.9,4.9,0,0,0-.61,3.55A7.2,7.2,0,0,0,23.18,20c.2.31.45,1,0,1.22s0,.91.38.64Z"/><path class="cls-3" d="M22.78,16.62a6.58,6.58,0,0,1,3.8-1.21.38.38,0,0,0,0-.75A7.21,7.21,0,0,0,22.4,16a.38.38,0,0,0,.38.65Z"/><path class="cls-3" d="M25.34,15.67a.58.58,0,0,0,.53.15.66.66,0,0,0,.35-.22.75.75,0,0,0,.08-.89,1.79,1.79,0,0,0-.64-.52l-.09-.06c-.06,0,.05,0,0,0l-.07-.06,0,0h0l0-.07s0,0,0,0,0,0,0-.05,0,.08,0,0,0,0,0,0,0,0,0,0l-.42.17A3.44,3.44,0,0,0,26.91,14a.39.39,0,0,0,.22-.18.37.37,0,0,0,0-.29.38.38,0,0,0-.46-.26,2.7,2.7,0,0,1-.4.14l-.22,0H26a3,3,0,0,1-.42,0h-.21s-.09,0,0,0l-.13,0a.39.39,0,0,0-.42.18.72.72,0,0,0-.07.5.91.91,0,0,0,.21.4,2,2,0,0,0,.56.43s.11.05.13.09l0,0,0,0,.06.06c.05,0,0-.07,0,0l0,.06,0,0s0,0,0,0v0s0,0,0,0,0,0,0,.06,0-.09,0,0,0,.07,0,0,0,0,0,0,.08,0,0,0h.1l.09,0,0,0a.39.39,0,0,0-.53,0,.38.38,0,0,0,0,.53Z"/><path class="cls-3" d="M89.49,34.93a3.08,3.08,0,0,0-1.89-.78.38.38,0,0,0-.36.48A4.36,4.36,0,0,0,89.07,37a.38.38,0,0,0,.51-.14.38.38,0,0,0-.13-.51l-.15-.09a.18.18,0,0,0-.07,0l0,0L89,36l-.22-.23-.12-.13,0-.07s0,0,0,0a4.94,4.94,0,0,1-.36-.57l-.07-.15,0-.06c0-.11,0,.06,0,0s-.07-.22-.11-.32l-.36.47h.11s.12,0,0,0L88,35a1.63,1.63,0,0,1,.39.13h0l.1,0,.18.11.18.12,0,0,.09.08a.37.37,0,0,0,.53-.53Z"/><path class="cls-3" d="M86.89,35.82a3.58,3.58,0,0,0,1.82,1.48.38.38,0,0,0,.46-.26.37.37,0,0,0-.26-.46.43.43,0,0,1-.12,0h0l-.06,0-.22-.12-.21-.13-.1-.07h0l0,0a4,4,0,0,1-.36-.35l-.08-.1s0,0,0,0l0-.05-.15-.22a.38.38,0,0,0-.51-.13.38.38,0,0,0-.14.51Z"/><path class="cls-3" d="M87.1,36.72v3.34a.38.38,0,0,0,.75,0V36.72a.38.38,0,0,0-.75,0Z"/><path class="cls-3" d="M81,38.35l-1.78-3.12-.22.55a4.9,4.9,0,0,1,2.15-.24c.38.05.5-.52.19-.69s-1.2-.66-.76-1.09c.12-.12.36,0,.52,0a.81.81,0,0,0,.54-.17c.45-.43-.14-.89-.41-1.21A16.31,16.31,0,0,1,80,30.62l-.42.55,3.13,1c.46.15.66-.57.2-.72l-3.13-1a.38.38,0,0,0-.42.55,17.93,17.93,0,0,0,1.85,2.39l-.11-.26c.16-.13.19-.18.09-.17h-.35a1,1,0,0,0-.48.09,1,1,0,0,0-.54.75c-.16.83.56,1.35,1.19,1.7l.19-.7a5.36,5.36,0,0,0-2.35.27.38.38,0,0,0-.23.55l1.79,3.12c.23.42.88,0,.64-.38Z"/><path class="cls-3" d="M80.08,31.2l0,0a.41.41,0,0,0,.1.37c.42.47,1.06-.19.65-.65a4,4,0,0,0-.86-.6l-1-.67-.09.68a9.22,9.22,0,0,0,3.89-3.49c.28-.37-.28-.69-.58-.45l-.94.75.53.53a14.22,14.22,0,0,1,3.85-3.18l-.45-.59a11.53,11.53,0,0,0-2.39,2.73c-.26.41.39.79.65.38a11,11,0,0,1,2.27-2.58c.33-.28-.09-.79-.46-.58a14.43,14.43,0,0,0-4,3.29.37.37,0,0,0,.53.53L82.7,27l-.59-.46a8.37,8.37,0,0,1-3.45,3.15.38.38,0,0,0-.09.68l.84.56.39.26s.41.29.4.19l.11-.26h.38l.1.36v0c.17-.45-.55-.65-.72-.2Z"/><path class="cls-3" d="M82.43,27.47a20.19,20.19,0,0,1,9.79-4.15l-.1-.73-1.83.76a.38.38,0,0,0,.1.74,1.63,1.63,0,0,0,1-.28.38.38,0,0,0-.29-.69q-3.28.7-6.54,1.58l.29.69a18.57,18.57,0,0,1,3-1.32l3.06-1c.32-.1.39-.65,0-.72a8.06,8.06,0,0,0-5.13.77c-.43.22-.05.87.38.65a7.18,7.18,0,0,1,4.55-.7v-.72l-3.25,1a21.05,21.05,0,0,0-2.94,1.34.38.38,0,0,0,.29.69c2.16-.59,4.35-1.12,6.54-1.59L91,23.16a1,1,0,0,1-.65.18l.1.73,1.83-.76c.34-.15.36-.8-.1-.74A21.19,21.19,0,0,0,81.9,26.94c-.38.3.16.83.53.53Z"/><path class="cls-1" d="M85.84,29.08,84,29.9l.64.83a2.59,2.59,0,0,0,.83-2,.54.54,0,0,0-.67-.51,10,10,0,0,0-3.28,1.72l.89.37a.71.71,0,0,1,.15-.37.53.53,0,0,0-.31-.77,1.6,1.6,0,0,0-1.36.2.53.53,0,0,0,.27,1l.73.06a.53.53,0,1,0,0-1.05l-.73-.06.26,1a.61.61,0,0,1,.55-.1l-.32-.77a1.78,1.78,0,0,0-.29.9.52.52,0,0,0,.33.48.53.53,0,0,0,.57-.11A8.89,8.89,0,0,1,85.1,29.2l-.66-.5A1.57,1.57,0,0,1,83.91,30a.53.53,0,0,0,0,.69.55.55,0,0,0,.68.13L86.37,30a.52.52,0,0,0,.18-.71.52.52,0,0,0-.71-.19Z"/><path class="cls-1" d="M77.5,36.93c-.38.7.61,1.5,1.14.86A.53.53,0,0,0,78,37a1.45,1.45,0,0,0-.69.67l.9.53.3-.61a.53.53,0,0,0-.72-.71,1.09,1.09,0,0,0-.63.77l1,.14,0-1.43a1.68,1.68,0,0,1,0-.59,5.14,5.14,0,0,1,.2-.55,6.15,6.15,0,0,1,1.37-1.91l-.88-.51a.19.19,0,0,1-.29.16c-.22-.08-.3-.38-.31-.58a.53.53,0,0,0-.79-.45l-.52.32.77.31a7.29,7.29,0,0,0-1-1.73.53.53,0,0,0-.74,0,.52.52,0,0,0,0,.74,5.73,5.73,0,0,1,.73,1.27.53.53,0,0,0,.77.31L78,32.8l-.79-.46A1.66,1.66,0,0,0,78.36,34,1.26,1.26,0,0,0,79.9,33a.53.53,0,0,0-.88-.51,6.83,6.83,0,0,0-1.58,2.22,3.19,3.19,0,0,0-.34,1.38l.06,1.62c0,.57.9.74,1,.14,0-.11,0-.1.14-.15L77.61,37l-.29.61c-.3.6.59,1.13.9.53a.54.54,0,0,1,.32-.29L77.9,37h0l.27-.07.26.29-.07.26,0,0c.33-.59-.58-1.12-.9-.53Z"/><path class="cls-1" d="M51.79,33.48c-.44-1.16-.93-2.31-1.29-3.5a6,6,0,0,1-.21-3.48l-.65.37.81.34a.53.53,0,0,0,.65-.37.54.54,0,0,0-.37-.65l-.81-.34a.53.53,0,0,0-.64.37c-.75,2.56.6,5.2,1.5,7.53.24.63,1.26.36,1-.27Z"/><path class="cls-1" d="M50.07,24.72a2.54,2.54,0,0,0,1.9,2.2.53.53,0,0,0,.67-.5,1.74,1.74,0,0,0-.9-1.63.53.53,0,0,0-.72.71,2.31,2.31,0,0,0,1.18,1c.38.15.75-.29.65-.65a5.05,5.05,0,0,0-1.38-2.19.53.53,0,0,0-.82.64,2.5,2.5,0,0,0,1.14,1.22.53.53,0,0,0,.53-.91,2.86,2.86,0,0,1-.86-1.06l-.6.77,1.69.49.14-1a1.56,1.56,0,0,1-1.06-.64l-.45.79a1.27,1.27,0,0,1,.81.17l.41-1a2.21,2.21,0,0,1-1.22-.83l-.59.77a5.91,5.91,0,0,1,2,.77l.4-1-1.26-.42-.14,1a7.22,7.22,0,0,1,2.86.91l.27-1-2.4-.3c-.59-.07-.71.9-.14,1l4.41,1v-1a1.66,1.66,0,0,1-1.75-.46l-.37.89a7.31,7.31,0,0,1,2.74.5l.14-1a5.65,5.65,0,0,1-2.22-.45c-.49-.2-.89.55-.51.88a5.31,5.31,0,0,0,3.47,1.35c.68,0,.67-1,0-1.05l-2.86-.18c-.67-.05-.67,1,0,1.05l2.86.18V24.8a4.16,4.16,0,0,1-2.73-1l-.51.88a6.66,6.66,0,0,0,2.5.48.53.53,0,0,0,.14-1,8.22,8.22,0,0,0-3-.53.53.53,0,0,0-.37.9,2.73,2.73,0,0,0,2.77.74.54.54,0,0,0,0-1l-4.41-1-.14,1,2.4.3c.53.06.69-.74.26-1a8.6,8.6,0,0,0-3.39-1.05c-.62-.06-.67.85-.14,1l1.26.43c.58.19.9-.66.41-1a6.67,6.67,0,0,0-2.28-.88c-.4-.08-.88.36-.59.77a3.33,3.33,0,0,0,1.85,1.31.53.53,0,0,0,.4-1,2.24,2.24,0,0,0-1.34-.31c-.36,0-.7.44-.45.79a2.68,2.68,0,0,0,2,1.16c.6.07.68-.87.14-1l-1.69-.5a.54.54,0,0,0-.59.78,4.09,4.09,0,0,0,1.24,1.44l.53-.91a1.62,1.62,0,0,1-.77-.84l-.82.64a3.84,3.84,0,0,1,1.1,1.72l.65-.64a1.13,1.13,0,0,1-.56-.52l-.71.72a.73.73,0,0,1,.38.73l.66-.51a1.46,1.46,0,0,1-1.13-1.19.53.53,0,0,0-1,0Z"/><path class="cls-1" d="M42.58,22.8a.53.53,0,0,0,0-1.05.53.53,0,0,0,0,1.05Z"/><path class="cls-1" d="M43.58,21.73a4,4,0,0,0-1.75-.55.53.53,0,0,0-.27,1,3.81,3.81,0,0,0,2.44.33c.49-.09.45-.72.13-1a10.66,10.66,0,0,0-3.46-1.67l-.14,1a31.42,31.42,0,0,0,4.65.13V20a9.5,9.5,0,0,1-3.71-.36l-.28,1a22.4,22.4,0,0,0,5.48.52c.56,0,.74-.93.14-1a35.56,35.56,0,0,0-5.34-.56.53.53,0,0,0-.14,1,12.28,12.28,0,0,0,2.4.47V20a18,18,0,0,1-3.59-.23c-.55-.09-1.1-.2-1.65-.31-.23-.05-1.49-.17-1.61-.37l.06.41-.38.2-.36-.37,0,.08.51-.67-2-.1.14,1,1.24-.23c.57-.11.45-1.09-.14-1a2.72,2.72,0,0,0-1.49.6.53.53,0,0,0,.23.88A1.5,1.5,0,0,0,36.39,19a.53.53,0,0,0-.08-.63,1.57,1.57,0,0,0-1.86-.18l.72.72.37-.57a.53.53,0,0,0-.09-.63,1.29,1.29,0,0,0-1-.45l.37.9a1.44,1.44,0,0,0,.42-1.36c-.07-.44-.61-.44-.88-.23A9.09,9.09,0,0,1,31.84,18c-.63.23-.36,1.25.28,1a10.78,10.78,0,0,0,3-1.63l-.88-.23-.15.34a.53.53,0,0,0,.37.89l.3.14-.08-.64-.37.57a.53.53,0,0,0,.72.72.45.45,0,0,1,.59,0l-.09-.64a.46.46,0,0,1-.5.37l.23.88a1.38,1.38,0,0,1,.75-.3l-.14-1-1.24.24c-.61.12-.43,1,.14,1l2,.1a.52.52,0,0,0,.5-.66A.67.67,0,0,0,36,18.93c-.51.72.4,1.14,1,1.27a25.57,25.57,0,0,0,6.74.84.53.53,0,0,0,0-1.05,10.38,10.38,0,0,1-2.12-.44l-.14,1a33,33,0,0,1,5.06.53l.14-1a21.09,21.09,0,0,1-5.2-.48.52.52,0,0,0-.28,1,10.15,10.15,0,0,0,4,.4c.66-.06.68-1.08,0-1.05a31.42,31.42,0,0,1-4.65-.13c-.6-.06-.69.88-.14,1a9.89,9.89,0,0,1,3.21,1.57l.12-1a2.62,2.62,0,0,1-1.63-.23l-.26,1a2.81,2.81,0,0,1,1.22.41.53.53,0,0,0,.53-.91Z"/><path class="cls-1" d="M26.26,17.89a.91.91,0,0,1-.49-.65.54.54,0,0,0-.51-.38l-.92.1.45.79,1.36-2a.53.53,0,0,0-.59-.77,4.43,4.43,0,0,0-1.9,1.12.51.51,0,0,0,0,.69.52.52,0,0,0,.67.14,8.49,8.49,0,0,0,1.37-1.24.52.52,0,0,0-.74-.74l-1.47,1.34a.52.52,0,0,0,.1.82,2.46,2.46,0,0,1,1.2,1.28l1-.28c-.35-.84-1.21-1.82-2.24-1.39a1.42,1.42,0,0,0-.8.92,1.08,1.08,0,0,0,.43,1.2l.41-1a1.53,1.53,0,0,1-1.09-1.13.53.53,0,0,0-1-.13l-.48.87a.53.53,0,0,0,.31.77l.88.32a.53.53,0,0,0,.65-.36.54.54,0,0,0-.37-.65l-.88-.32.32.77.47-.87L21.46,17a2.57,2.57,0,0,0,1.82,1.87.52.52,0,0,0,.62-.3.54.54,0,0,0-.22-.66.09.09,0,0,1,.06.06l0,0c0,.06,0,.06,0,0v0s0-.13,0,0,.05-.13,0-.05.05-.09.07-.13,0,0,.05-.05,0,0,0,0,.06,0,0,0,.07,0,0,0,.14,0,.08,0,.15,0,.11,0a1.09,1.09,0,0,1,.23.14,1.73,1.73,0,0,1,.39.55.54.54,0,0,0,.64.37.53.53,0,0,0,.37-.65,3.57,3.57,0,0,0-1.68-1.91l.11.83,1.47-1.34-.74-.74A7.36,7.36,0,0,1,23.76,16l.64.83A3.29,3.29,0,0,1,25.83,16l-.59-.77-1.35,2a.53.53,0,0,0,.45.79l.92-.1-.5-.39a1.92,1.92,0,0,0,1,1.28c.6.31,1.13-.6.53-.91Z"/><path class="cls-1" d="M23.51,28.72a1.47,1.47,0,0,0-1.41,0,.49.49,0,0,0-.24.31.52.52,0,0,0,.36.65.64.64,0,0,0,.41-.05.2.2,0,0,1,.08,0l-.13.05a.94.94,0,0,1,.24-.06l-.14,0a1,1,0,0,1,.25,0l-.14,0a.94.94,0,0,1,.24.06l-.13-.05a.2.2,0,0,1,.08,0,.58.58,0,0,0,.41.05.53.53,0,0,0,.12-1Z"/><path class="cls-1" d="M21.86,28.14c0,.08,0,.05,0,0a.43.43,0,0,1,0,.05c0,.07,0,.06,0,0s0,.05,0,.07,0,.05,0,.07,0-.1,0-.05a.25.25,0,0,1,0,.07c0,.09.06-.11,0,0a.37.37,0,0,0-.07.12s.08-.09,0,0,0,0,0,.05l0,0,0,0-.06,0s.12,0,0,0l-.08,0,.64.65c0-.1-.05.11,0,0a.43.43,0,0,0,0-.07,1.48,1.48,0,0,0,.08-.13l-.05.07,0,0,0-.06.11-.1s-.12.08,0,0l.06,0,.13-.07.07,0c-.13.07-.06,0,0,0l.15-.05.16,0s-.14,0-.05,0h.27a.8.8,0,0,1,.15,0l.08,0c.09,0-.12-.06,0,0l.14.07,0,0s0,0,0,0l0,0a.52.52,0,0,0,.74-.74,1.94,1.94,0,0,0-1.78-.4,1.91,1.91,0,0,0-1.36,1.2.51.51,0,0,0,.14.51.53.53,0,0,0,.51.13,1.25,1.25,0,0,0,.8-1.8.53.53,0,0,0-.72-.18.52.52,0,0,0-.18.71Z"/><path class="cls-1" d="M83.19,30.12a.68.68,0,0,0-.61-.17.69.69,0,0,0-.42.31.64.64,0,0,0,.47.95.67.67,0,0,0,.51-.14,1,1,0,0,0,.28-.49l.28-.83a.52.52,0,0,0-.64-.64l-1.46.29.28,1c.52-.21,1.15-.51,1.26-1.13a1,1,0,0,0-1-1.29l.46.79.37-.56a.53.53,0,0,0,0-.59.52.52,0,0,0-.55-.18,2.67,2.67,0,0,0-2.1,1.81.52.52,0,1,0,1,.28.59.59,0,0,1,.06-.14c-.07.12,0,0,0,0a2,2,0,0,1,.14-.25s.06-.12,0,0a.38.38,0,0,1,.11-.11,1.7,1.7,0,0,1,.19-.19c.08-.07-.08.06,0,0L82,28.7l.24-.12s0,0,0,0l.07,0,.11,0a1.59,1.59,0,0,1,.3-.06l-.59-.77-.38.56a.53.53,0,0,0,.45.79h0l-.06,0h0s0,0,0,0,0,.08,0,.08,0-.1,0,0,0,0,0,0,0,0,0-.06v.09c0-.08,0-.1,0,0s0,0,0,0,0,0,0-.06l0,.06c-.07.11.05,0,0,0s-.06.07-.09.08l.05,0-.07.05-.2.12-.11.05-.08,0h0a.52.52,0,1,0,.28,1l1.45-.29-.64-.65-.22.63c0,.1-.08.2-.1.3s0,.05.17-.18a.27.27,0,0,1,.23,0c.27,0,.34.25.23.7a.39.39,0,0,1-.55,0,.53.53,0,0,0,.74,0,.52.52,0,0,0,0-.74Z"/><path class="cls-1" d="M71,32.09c-.08-.06.12.14.06.06a.41.41,0,0,1,.07.11s0,.11,0,0l0,.1c0,.14,0,0,0,0v.13c0,.11,0-.06,0,.06l1-.12-1.3-1.7a.52.52,0,0,0-.52-.25.51.51,0,0,0-.44.37,3.87,3.87,0,0,0,.8,3,.53.53,0,0,0,.64.08.55.55,0,0,0,.24-.59,1.63,1.63,0,0,0-.77-1,.53.53,0,0,0-.53,0,1.3,1.3,0,0,0-.53,1.43,1.38,1.38,0,0,0,1.15,1,2,2,0,0,0,1.68-.58,4,4,0,0,0,.87-1.55l-.5.38c.15,0-.05,0,0,0l.12,0c.09,0,0,0,0,0l.11.06s.07,0,0,0l.1.09,0,0a1,1,0,0,1,.09.13.52.52,0,0,0,.71.19.53.53,0,0,0,.19-.72A1.8,1.8,0,0,0,72.9,32a.53.53,0,0,0-.51.39,4.18,4.18,0,0,1-.2.51l-.14.25L72,33.3l0,0s0,0,0,0a2.18,2.18,0,0,1-.21.22l0,0h0l-.11.07-.14.07c.07,0,0,0,0,0l-.13,0c-.13,0,.07,0-.06,0h-.13c-.06,0,.06,0,0,0l-.15,0c.07,0,0,0,0,0s-.06,0,0,0l-.09-.09c.09.11,0-.15,0,0a.56.56,0,0,1,0-.12c0-.09,0,.06,0,0a.34.34,0,0,0,0-.1c0-.11,0,.09,0,0l0-.09c0-.06,0,.08,0,0s-.07.07,0,0-.08.05,0,0h-.53a.53.53,0,0,1,.29.4l.88-.51-.06-.08L71.28,33a2.54,2.54,0,0,1-.16-.28,2.87,2.87,0,0,1-.18-.48l-.06-.28v-.05s0,0,0,0,0-.09,0-.14,0-.21,0-.31,0-.1,0-.14a.76.76,0,0,1,0-.09l-1,.13L71.2,33a.54.54,0,0,0,.52.25.52.52,0,0,0,.44-.38,1.62,1.62,0,0,0-.66-1.71.53.53,0,0,0-.72.19.55.55,0,0,0,.19.72Z"/><path class="cls-1" d="M72.52,32.42A1.91,1.91,0,0,0,74,33.91a.56.56,0,0,0,.4,0,.53.53,0,0,0,.19-.72.49.49,0,0,0-.31-.24L74,32.82l.13,0a1.92,1.92,0,0,1-.31-.18l.11.09a1.6,1.6,0,0,1-.26-.26l.08.1a2,2,0,0,1-.19-.31l.06.12a1.4,1.4,0,0,1-.09-.29.53.53,0,0,0-.24-.31.52.52,0,0,0-.4-.06.55.55,0,0,0-.32.24l0,.13a.66.66,0,0,0,0,.28Z"/><path class="cls-1" d="M72.68,32.31a2.26,2.26,0,0,0,.79.89,1.26,1.26,0,0,0,1.19,0A.91.91,0,0,0,75,32a.85.85,0,0,0-1.17-.38.54.54,0,0,0-.19.72,2.65,2.65,0,0,0,1.2,1.14v-.91a1.61,1.61,0,0,0-.77,1.27.51.51,0,0,0,.52.52.5.5,0,0,0,.37-.15.65.65,0,0,0,.16-.37c0,.17,0,0,0,0a.29.29,0,0,1,0-.09c0-.05,0,0,0,0l0-.06,0-.09,0,0,0,0,.07-.08a.46.46,0,0,1,.07-.07l0,0,0,0a.52.52,0,0,0,.26-.45.54.54,0,0,0-.26-.46,2.19,2.19,0,0,1-.3-.16l-.07,0c-.08-.06.07.06,0,0l-.13-.11-.1-.11a.23.23,0,0,1-.07-.07l0,0,0,0a.6.6,0,0,0-.09-.13l-.09-.16-.19.72c.08-.05-.13,0-.05,0h-.09s0,0-.09,0h0s0,0-.06,0l0,0s-.1-.09,0,0,0,0,0,0l0,.06c0-.07,0-.11,0,0s0-.12,0-.06,0-.11,0,0l0-.06,0,0,0-.06,0,.05s.12-.09,0,0,.1,0,0,0l-.07,0h0s-.09,0,0,0h-.06l-.07,0c-.06,0,.11.06,0,0L74,32.26l0,0s0,0,0,0-.1-.09-.13-.12l0,0c0,.07,0,0,0,0a3.45,3.45,0,0,1-.2-.32.53.53,0,1,0-.91.53Z"/><path class="cls-1" d="M85.92,28.14h1.33a.53.53,0,0,0,0-1.05H85.92a.53.53,0,1,0,0,1.05Z"/><path class="cls-1" d="M89,23.36a17.72,17.72,0,0,1,5.26-2.74c.64-.21.36-1.22-.28-1a18.72,18.72,0,0,0-5.51,2.84.55.55,0,0,0-.19.72.53.53,0,0,0,.72.19Z"/><path class="cls-1" d="M43.55,26.87l.22-1.4-1-.14,0,.83a.53.53,0,0,0,1.05,0l0-.68c0-.58-.94-.74-1-.14A6.09,6.09,0,0,0,44,30.1l.74-.74a4.62,4.62,0,0,1-1.21-2.52l-1,.27a10.2,10.2,0,0,1,.95,1.71,7.22,7.22,0,0,1,.31.89,1.7,1.7,0,0,1,.06.31s.07.23,0,.06.21,0,.18,0l-.13,1a2.76,2.76,0,0,0,1.25-4.6c-.2-.21-.45-.38-.67-.57a1.79,1.79,0,0,1-.23-.25.17.17,0,0,1,0-.07c0-.06,0,.08,0-.05.2-.65-.81-.93-1-.28a1.4,1.4,0,0,0,.6,1.46,2.64,2.64,0,0,1,1,1.11A1.73,1.73,0,0,1,43.62,30a.53.53,0,0,0-.12,1,1,1,0,0,0,1.26-.37,1.63,1.63,0,0,0,0-1.4,10.63,10.63,0,0,0-1.3-2.64.53.53,0,0,0-1,.26A5.81,5.81,0,0,0,44,30.1a.52.52,0,0,0,.74,0,.53.53,0,0,0,0-.74,5,5,0,0,1-1-3.74l-1-.14,0,.68h1.05l0-.83c0-.57-.93-.73-1-.14l-.23,1.4a.54.54,0,0,0,.37.64.53.53,0,0,0,.65-.36Z"/><path class="cls-1" d="M43.94,27l-.21-3.33a.53.53,0,1,0-1,0L42.89,27a.53.53,0,0,0,.53.52.52.52,0,0,0,.52-.52Z"/><path class="cls-1" d="M43.76,26.72a1.94,1.94,0,0,1,0-.24c0-.05,0-.09,0,0s0-.09,0-.14a3.17,3.17,0,0,1,.12-.44.49.49,0,0,0,0-.11c0-.14,0,.1,0,0l.1-.2a3.45,3.45,0,0,1,.25-.41l0-.05.05-.06.16-.18.18-.17.08-.07s.07-.06,0,0a2.8,2.8,0,0,1,.4-.27l.2-.1c.13-.06-.1,0,0,0l.13-.05a.54.54,0,0,0,.36-.65.53.53,0,0,0-.64-.36,4,4,0,0,0-2.64,3.57.53.53,0,1,0,1,0Z"/><path class="cls-1" d="M43.69,22.15a17.94,17.94,0,0,1,1.94,0,1.17,1.17,0,0,0,.32,0c.13.06.13,0,0-.12,0,.06,0,.11,0,.16a1.2,1.2,0,0,0-.07.7c.16.72,1,.81,1.55,1l.18.05c.07,0,.07,0,.07,0s0,.09,0,0,0,.05,0,.07a1.16,1.16,0,0,0,.05,1.43,4.47,4.47,0,0,0,1.35.83l1.74.92c.6.31,1.13-.59.53-.91l-1.74-.91-.83-.44c-.19-.11-.28-.13-.24-.31s.23-.43.22-.71a.92.92,0,0,0-.15-.51,1.42,1.42,0,0,0-.87-.53l-.47-.1c-.09,0-.3-.12-.34-.12s0-.06,0,0,0,0,0-.12a1.23,1.23,0,0,0,.05-.78c-.2-.58-.81-.63-1.33-.66a17.94,17.94,0,0,0-1.94,0c-.67,0-.67,1.08,0,1Z"/><path class="cls-4" d="M117.84,57.39v1.78a.52.52,0,0,0,.52.52.53.53,0,0,0,.53-.52V57.39a.53.53,0,0,0-1,0Z"/><path class="cls-4" d="M118.44,58.44l-.66.22a.6.6,0,0,0-.32.24.36.36,0,0,0-.06.2.5.5,0,0,0,0,.21.5.5,0,0,0,.24.31.53.53,0,0,0,.41.06l.66-.23a.55.55,0,0,0,.32-.24.42.42,0,0,0,.06-.19.5.5,0,0,0,0-.21.55.55,0,0,0-.24-.32.58.58,0,0,0-.41-.05Z"/><path class="cls-4" d="M116.67,59.15l-1.65.32.51.88.58-.51a.53.53,0,0,0,0-.74.54.54,0,0,0-.75,0l-.57.51a.52.52,0,0,0-.09.63.57.57,0,0,0,.6.25l1.65-.33a.53.53,0,0,0,.37-.64.54.54,0,0,0-.65-.37Z"/><path class="cls-4" d="M118.24,59.3l.09,0s0,0,0,0l.14,0,.33-.1.19,0h0a2.22,2.22,0,0,1,.37,0h.42l.17,0,.33.08.16.06.1,0a.54.54,0,0,0,.72-.19.53.53,0,0,0-.19-.72,4.05,4.05,0,0,0-3.42,0,.52.52,0,0,0-.19.71.53.53,0,0,0,.72.19Z"/><path class="cls-4" d="M117.84,60.06v1.33a.53.53,0,0,0,.52.53.54.54,0,0,0,.53-.53V60.06a.53.53,0,1,0-1,0Z"/><path class="cls-4" d="M118.21,60.79a1.14,1.14,0,0,0-.28.47,1.28,1.28,0,0,0,0,.55.83.83,0,0,0,0,.15,1.45,1.45,0,0,0,.12.25,1.18,1.18,0,0,0,.38.39,1,1,0,0,0,.57.16.58.58,0,0,0,.37-.15.52.52,0,0,0,.15-.38.58.58,0,0,0-.15-.37.56.56,0,0,0-.37-.15h-.09l.14,0-.13,0,.13.05-.13-.07.11.08a.57.57,0,0,1-.11-.11l.08.11-.1-.17,0,.12a1.05,1.05,0,0,1,0-.19l0,.14a.54.54,0,0,1,0-.18l0,.14a.74.74,0,0,1,0-.14l-.06.13a.41.41,0,0,1,.07-.11l-.08.11a.1.1,0,0,1,0-.06.55.55,0,0,0,.15-.38.53.53,0,0,0-.15-.37.51.51,0,0,0-.37-.15.56.56,0,0,0-.37.15Z"/><path class="cls-4" d="M121.76,56.37l0,0-.12-.06.11.07-.11-.09.09.09-.09-.1a.67.67,0,0,1,.11.18l-.05-.12a1.67,1.67,0,0,1,.1.4l0-.14a2.75,2.75,0,0,0,.22.93,1,1,0,0,0,.86.56.94.94,0,0,0,.8-.65.71.71,0,0,0-.49-.93.53.53,0,0,0-.28,1h0l-.13-.05,0,0-.11-.09,0,0-.08-.11,0,0-.06-.13,0,0,0-.14v-.07a.31.31,0,0,1,0,.08l0-.12a.53.53,0,0,1-.06.1l.08-.1a.6.6,0,0,1-.08.08l.11-.08-.07,0,.12-.06-.07,0h.08l.14,0-.06,0,.12,0a.39.39,0,0,1-.11-.06l.1.08a.94.94,0,0,1-.1-.1l.08.1a1.09,1.09,0,0,1-.08-.15l0,.13a1.7,1.7,0,0,1-.11-.43l0,.14a3,3,0,0,0-.14-.74,1.29,1.29,0,0,0-.27-.45,1,1,0,0,0-.44-.27.52.52,0,0,0-.64.36.53.53,0,0,0,.36.65Z"/><path class="cls-4" d="M122.61,55.56l-.45-.89a.5.5,0,0,0-.31-.24.56.56,0,0,0-.4,0,.51.51,0,0,0-.24.32l0,.14a.48.48,0,0,0,.07.26l.44.89a.55.55,0,0,0,.32.24.51.51,0,0,0,.4,0,.53.53,0,0,0,.24-.31l0-.14a.5.5,0,0,0-.07-.27Z"/><path class="cls-4" d="M121.46,54a7.4,7.4,0,0,0-3-3.39.53.53,0,1,0-.53.91c.15.09.3.18.44.28l.23.17,0,0a.39.39,0,0,0,.1.08,7.57,7.57,0,0,1,.76.74l.16.19.08.1,0,0a4.27,4.27,0,0,1,.3.44,5.5,5.5,0,0,1,.51,1,.53.53,0,0,0,.72.18.54.54,0,0,0,.19-.71Z"/><path class="cls-4" d="M119.18,50.88a7,7,0,0,1,4.51-2.08.54.54,0,0,0,.53-.53.52.52,0,0,0-.53-.52,8.13,8.13,0,0,0-5.25,2.39.52.52,0,0,0,.74.74Z"/><path class="cls-4" d="M117,51.53h-.45a.62.62,0,0,0-.37.16.34.34,0,0,0-.11.17.45.45,0,0,0,0,.2l0,.14a.53.53,0,0,0,.13.23l.11.08a.48.48,0,0,0,.26.07H117a.34.34,0,0,0,.2,0,.45.45,0,0,0,.17-.11.39.39,0,0,0,.11-.17.34.34,0,0,0,0-.2l0-.14a.48.48,0,0,0-.13-.23l-.11-.09a.59.59,0,0,0-.26-.07Z"/><path class="cls-4" d="M117.16,51.34a2,2,0,0,0-.85,0,1,1,0,0,0-.29.08,1.93,1.93,0,0,0-.38.19.6.6,0,0,0-.24.32.56.56,0,0,0,0,.4.55.55,0,0,0,.32.24.51.51,0,0,0,.4,0,1.41,1.41,0,0,1,.24-.13l-.12.05a1.4,1.4,0,0,1,.35-.1l-.14,0a2.16,2.16,0,0,1,.36,0l-.14,0,.16,0a.58.58,0,0,0,.41-.06.5.5,0,0,0,.24-.31.55.55,0,0,0,0-.4.57.57,0,0,0-.32-.25Z"/><path class="cls-4" d="M115.21,52.27l-.07,0-.12,0-.29.07-.16,0H114s-.16,0,0,0l-.17,0-.28-.07-.12,0-.07,0a.54.54,0,0,0-.72.19.53.53,0,0,0,.19.72,3.8,3.8,0,0,0,1.49.32,3.67,3.67,0,0,0,1.49-.33.53.53,0,0,0,.19-.72.55.55,0,0,0-.72-.19Z"/><path class="cls-4" d="M113,52.47a1.58,1.58,0,0,0-.69.91,1.61,1.61,0,0,0,.11,1.14.54.54,0,0,0,.72.19.54.54,0,0,0,.19-.72l0-.06,0,.12a.86.86,0,0,1-.06-.23l0,.14a1.41,1.41,0,0,1,0-.29l0,.14a1.38,1.38,0,0,1,.08-.27l-.06.13a1.28,1.28,0,0,1,.15-.25l-.09.11a.85.85,0,0,1,.17-.16l-.11.08.1-.07a.54.54,0,0,0,.19-.72.53.53,0,0,0-.72-.19Z"/><path class="cls-4" d="M113.33,55.84V55a.54.54,0,0,0-.15-.37.52.52,0,0,0-.37-.16.55.55,0,0,0-.38.16.54.54,0,0,0-.15.37v.89a.58.58,0,0,0,.15.37.52.52,0,0,0,.38.15.51.51,0,0,0,.52-.52Z"/><path class="cls-4" d="M113.62,50.18a3.76,3.76,0,0,0-3,.4.54.54,0,0,0-.19.72.53.53,0,0,0,.72.18l.31-.16.07,0h0l.14,0,.33-.1.13,0s.21,0,.08,0a2.29,2.29,0,0,1,.64,0h.13l.08,0,.34.08a.53.53,0,0,0,.64-.37.52.52,0,0,0-.37-.64Z"/><path class="cls-5" d="M111.47,50.13h-1.11a.38.38,0,0,0,0,.75h1.11a.38.38,0,1,0,0-.75Z"/><path class="cls-5" d="M110.36,49.46a1.11,1.11,0,0,0-.8.25,1,1,0,0,0-.29.33.58.58,0,0,0-.1.21,1.23,1.23,0,0,0,0,.25.38.38,0,0,0,.1.27.46.46,0,0,0,.27.11.39.39,0,0,0,.27-.11l0-.08a.39.39,0,0,0,.06-.19h0l0,.1a1.09,1.09,0,0,1,.05-.17l0,.09a1.74,1.74,0,0,1,.11-.18l-.06.08.14-.14-.07.06a.58.58,0,0,1,.18-.11l-.09,0,.2,0h.09a.39.39,0,0,0,.27-.11.41.41,0,0,0,.11-.26.44.44,0,0,0-.11-.27l-.08-.06a.41.41,0,0,0-.19,0Z"/><path class="cls-5" d="M109.48,50.14l-.66.45a.39.39,0,0,0-.17.23.37.37,0,0,0,0,.29.39.39,0,0,0,.23.17.38.38,0,0,0,.29,0l.65-.46a.36.36,0,0,0,.18-.22.42.42,0,0,0,0-.29.36.36,0,0,0-.23-.17.35.35,0,0,0-.28,0Z"/><path class="cls-5" d="M110.77,50.47l.22-.19h0l.06,0,.12-.08.25-.14.07,0s0,0,0,0l.15-.06.28-.07.15,0h.61a.39.39,0,0,0,.46-.26.38.38,0,0,0-.26-.46,3.15,3.15,0,0,0-2.66.85.38.38,0,0,0,0,.53.39.39,0,0,0,.53,0Z"/><path class="cls-5" d="M111.25,49.77H113a.38.38,0,0,0,.37-.38A.38.38,0,0,0,113,49h-1.78a.38.38,0,0,0-.38.37.39.39,0,0,0,.38.38Z"/><path class="cls-5" d="M119.3,50l.48-.68a.36.36,0,0,0-.06-.45.42.42,0,0,1-.14-.17.29.29,0,0,1,0-.22l-.26.26,2.94-1.19a.38.38,0,0,0,.26-.46.37.37,0,0,0-.46-.26l-2.25.91-.55.22a.7.7,0,0,0-.33.2.57.57,0,0,0-.1.31,1.07,1.07,0,0,0,.38.93l-.06-.46-.48.68a.38.38,0,0,0,.14.51.37.37,0,0,0,.51-.13Z"/><path class="cls-5" d="M122.25,47.33a.58.58,0,0,1,.19,0h.2l-.1,0a1.38,1.38,0,0,1,.29.08l-.09,0a1,1,0,0,1,.24.15l-.07-.06.06.05.08-.59-.14.08.09,0a.9.9,0,0,1-.22.06h0a.73.73,0,0,1-.24-.07l.09,0a1,1,0,0,1-.17-.1l.07.06,0,0a.4.4,0,0,0-.27-.11.36.36,0,0,0-.26.11.38.38,0,0,0,0,.53,1.3,1.3,0,0,0,.77.32,1.21,1.21,0,0,0,.74-.19.41.41,0,0,0,.18-.28.37.37,0,0,0-.11-.31,1.48,1.48,0,0,0-1.45-.32.39.39,0,0,0-.23.17.41.41,0,0,0,0,.29.38.38,0,0,0,.46.26Z"/><path class="cls-6" d="M118.74,55.61V55a.38.38,0,1,0-.75,0v1.05a.38.38,0,0,0,.37.37.38.38,0,0,0,.38-.37V55H118v.6a.38.38,0,0,0,.37.38.39.39,0,0,0,.38-.38Z"/><path class="cls-6" d="M118,54.5v.72a.38.38,0,0,0,.37.37.38.38,0,0,0,.38-.37v-.94a.39.39,0,0,0-.38-.38.38.38,0,0,0-.37.38v.94a.38.38,0,0,0,.37.37.38.38,0,0,0,.38-.37V54.5a.38.38,0,0,0-.38-.37.38.38,0,0,0-.37.37Z"/><path class="cls-6" d="M119,53.56a1.3,1.3,0,0,0,.67,2.08.38.38,0,0,0,.43-.17,1.67,1.67,0,0,0-.3-2,.37.37,0,0,0-.4-.08.43.43,0,0,0-.24.35l-.07.55.57-.32a3.78,3.78,0,0,0-1.2-.48A.38.38,0,0,0,118,54a4.83,4.83,0,0,0,1.15,1.39l.37-.62a.77.77,0,0,0-.88.33.38.38,0,0,0,.06.46l.81.87a.37.37,0,0,0,.53-.53l-.81-.87.05.45s0,0,0,0,0,0,0,0l0,0s0,0,0,0,.09,0,0,0h0s0,0,0,0a.37.37,0,0,0,.42-.17.38.38,0,0,0-.06-.46,4.09,4.09,0,0,1-1-1.24l-.43.55a3.34,3.34,0,0,1,1,.4.37.37,0,0,0,.38,0,.39.39,0,0,0,.18-.32l.07-.55-.64.26.08.07s.07.09,0,0l.09.15s0,.09,0,0l0,.1a1.16,1.16,0,0,1,0,.18s0,0,0,0a.38.38,0,0,1,0,.1s0,.07,0,.11,0,0,0,0a1.21,1.21,0,0,1,0,.18c0,.09,0,0,0,0l0,.09.42-.17-.11,0c-.07,0,0,0,0,0l-.09-.06c.07.05,0,0,0,0l-.08-.08c.06.07,0,0,0,0l0-.1c0-.07,0,.06,0,0l0-.1s0-.12,0-.06,0,0,0-.06,0-.07,0-.1,0,0,0,0a.09.09,0,0,0,0,0,.29.29,0,0,0,0-.1s0,0,0,0l0,0,0-.05h0a.37.37,0,0,0-.53-.53Z"/><path class="cls-6" d="M120.93,51.75a2.1,2.1,0,0,0,.53,2.17.38.38,0,0,0,.63-.17,11.29,11.29,0,0,0,.43-2.89h-.75v.75a.38.38,0,0,0,.75,0v-.75a.37.37,0,0,0-.37-.37.38.38,0,0,0-.38.37,10.62,10.62,0,0,1-.41,2.69l.63-.17a1.19,1.19,0,0,1-.38-.66,1.36,1.36,0,0,1,0-.77.37.37,0,0,0-.26-.46.38.38,0,0,0-.46.26Z"/><path class="cls-6" d="M120.2,56c.06-.08,0,0,0,0s-.09,0,0,0-.11,0,0,0-.09,0,0,0-.07,0,0,0l0,0s-.06,0,0,0l0,0s0-.07,0,0,0-.09,0,0,0,0,0,0,0-.12,0-.08,0-.07,0,0,.06-.07,0,0,.06,0,0,0l0,0c.13,0,0,0,0,0s.11,0,0,0,.06,0,0,0l0,0,0,0s0-.05,0,0l0,0s0,.08,0,0,0,.09,0,0,0,.08,0,0,0-.11,0-.16a.32.32,0,0,0-.1-.21,1.26,1.26,0,0,0-1.63-.14,1.15,1.15,0,0,0-.53.89.36.36,0,0,0,.37.37.38.38,0,0,0,.38-.37c0-.08,0,.06,0,0s0,0,0,0,0,0,0-.06,0,.08,0,0l.06-.1s-.06.07,0,0l0,0,0,0s.07-.05,0,0h0l0,0,.1-.06h0l.07,0,.1,0h0c-.07,0,0,0,0,0h.16s-.09,0,0,0l.11,0c.06,0,0,0,0,0l0,0,0,0s0,0,0,0l.09.09-.1-.37a.69.69,0,0,0,1.22.54.68.68,0,0,0-1.08-.78.37.37,0,1,0,.53.53Z"/><path class="cls-6" d="M116.45,54.84A1.71,1.71,0,0,0,115,55a.39.39,0,0,0-.08.59,3.57,3.57,0,0,0,1.85,1.06l.1-.74h-.13a1.6,1.6,0,0,0-.21,0l-.1,0,0,0h0l-.2-.11-.08,0a.09.09,0,0,0,0,0h0s-.11-.09-.15-.14l-.07-.08,0,0h0l-.12-.19-.42.55,1.15.24a.38.38,0,0,0,.48-.36,1,1,0,0,0-.52-.82l-.19.7.57,0a.37.37,0,0,0,.37-.33.38.38,0,0,0-.27-.41,7,7,0,0,0-1.76-.25.37.37,0,0,0-.37.32.38.38,0,0,0,.27.42,1.7,1.7,0,0,0,1.26-.25.4.4,0,0,0,.14-.52.39.39,0,0,0-.52-.13,1.18,1.18,0,0,1-.19.11c-.06,0,0,0,0,0l-.06,0-.12,0h-.08c.06,0,0,0,0,0h-.22c-.06,0,.09,0,0,0l-.1.74.4,0,.2,0h.15a6.83,6.83,0,0,1,.81.17l.1-.73-.57,0a.39.39,0,0,0-.37.27.38.38,0,0,0,.18.42l.06,0c.05,0,0,0,0,0l0,0s0,0,0,0l0,.06s0-.06,0,0,0,0,0,.06,0-.08,0,0l.47-.36-1.15-.24a.38.38,0,0,0-.4.13.38.38,0,0,0,0,.42,2.07,2.07,0,0,0,1.79,1.08.36.36,0,0,0,.37-.32A.38.38,0,0,0,117,56l-.46-.13-.1,0s0,0,0,0l-.06,0-.22-.11-.19-.12-.1-.07s-.06-.05,0,0,0,0,0,0a2.9,2.9,0,0,1-.36-.34l-.07.59.12-.07s.08,0,0,0,0,0,0,0l.12,0,.07,0s.09,0,0,0,0,0,0,0h.19l.07,0,.13,0a.37.37,0,0,0,.46-.26.38.38,0,0,0-.26-.46Z"/><path class="cls-6" d="M116.48,48.51l-.13,1a.39.39,0,0,0,.38.38,2.38,2.38,0,0,1,.38,0h.24l.08,0a1.9,1.9,0,0,1,.39.11,1.09,1.09,0,0,1,.3.13,2.3,2.3,0,0,1,.59.41,2.22,2.22,0,0,1,.45.57.38.38,0,0,0,.65-.38,3.31,3.31,0,0,0-3.08-1.62l.37.37.13-1a.38.38,0,0,0-.75,0Z"/><path d="M79.69,82.73a.23.23,0,0,0,0-.45.23.23,0,0,0,0,.45Z"/><path d="M80.17,82.49q-.6,14.12,0,28.23c0,.29.46.29.45,0q-.65-14.1,0-28.23c0-.29-.44-.28-.45,0Z"/><path d="M40.56,56.06q.13,9.66-.08,19.33a.23.23,0,0,0,.45,0q.21-9.66.08-19.33a.23.23,0,0,0-.45,0Z"/><path d="M16,74.42a10.91,10.91,0,0,0-7-.53c-2.3.43-5,1-6.87,2.41A5.42,5.42,0,0,0,.07,81.5a8.43,8.43,0,0,0,3.54,5.12c7.22,5.47,20.11,5.06,25.2-3.2.83-1.35,2.24-3.91.15-4.72a37.57,37.57,0,0,0-5.27-1.19l-5.5-1.2c-.28-.07-.4.37-.12.43l7.18,1.57a19.38,19.38,0,0,1,3.23.72,1.74,1.74,0,0,1,.9,2.12,11,11,0,0,1-.62,1.46c-1.87,3.52-5.61,5.81-9.41,6.7a19.63,19.63,0,0,1-12.8-1.43c-3.46-1.67-8.08-5.77-5.31-10,1.42-2.15,4.33-2.78,6.67-3.33,2.58-.6,5.42-1,7.87.23.26.13.49-.26.23-.39Z"/><path d="M1.15,84.78c-.65,2.48,1.81,4,3.77,4.85a29.31,29.31,0,0,0,9.89,2.21c5.3.21,11.84-1.54,14.35-6.7.13-.26-.26-.49-.39-.23-2.22,4.58-7.83,6.39-12.58,6.49a27,27,0,0,1-8.28-1.21c-2.25-.66-7.19-2-6.33-5.29a.22.22,0,0,0-.43-.12Z"/><path d="M14.87,80.78l-.51-3-.22-1.34A5.05,5.05,0,0,1,13.93,75c.08-.64.8-.26,1.19-.15a8.5,8.5,0,0,0,1.29.28,9.82,9.82,0,0,0,2.54,0c.86-.12,3.29-.53,2.93-1.9-.13-.54-.72-.81-1.2-1a9.83,9.83,0,0,0-2.23-.31c-1.53-.09-3.76.11-4.37,1.81-.1.28.34.4.43.12.55-1.53,2.79-1.56,4.11-1.47a7.58,7.58,0,0,1,2.16.36,1.14,1.14,0,0,1,.63.46c.19.39-.21.7-.5.87a6.11,6.11,0,0,1-2.26.6,8.78,8.78,0,0,1-2.4-.06,8.42,8.42,0,0,1-1.08-.25,2.65,2.65,0,0,0-1-.23.83.83,0,0,0-.7,1c.06.91.3,1.84.45,2.74l.5,3c.05.29.48.17.44-.12Z"/><path d="M21.41,74.24c-.22,1-.49,1.92-.8,2.87a15.93,15.93,0,0,1-1,2.67,2,2,0,0,1-2.07.86,11.93,11.93,0,0,0-2.39,0c-.28,0-.16.48.12.44,1.49-.26,3.6.63,4.62-.9A6.39,6.39,0,0,0,20.42,79c.19-.5.38-1,.55-1.53.34-1,.63-2,.88-3.1.06-.28-.37-.4-.44-.12Z"/><path d="M17.56,73.32a2.18,2.18,0,0,0-.46-2.19A3.18,3.18,0,0,0,14.8,70c-.28,0-.28.43,0,.45a2.74,2.74,0,0,1,2,1,1.76,1.76,0,0,1,.37,1.78c-.05.11.05.24.16.28a.23.23,0,0,0,.27-.16Z"/><path d="M17,70.73a1.14,1.14,0,0,1-.11-.11c0-.05.05.07,0,0a.43.43,0,0,1,0-.07l0,0c0-.07,0,.09,0,0a.53.53,0,0,1,0-.12s0-.1,0,0,0,0,0,0V70.2c0-.09,0,.08,0,0s0,0,0-.06l0-.13c0-.07,0,0,0,0a.2.2,0,0,0,0-.08.61.61,0,0,1,.07-.1l0,0s0,0,0,0l0,0a.57.57,0,0,1,.11-.11l0,0c0,.07,0,0,0,0l.13-.08s.1,0,0,0,0,0,0,0l.17,0a.38.38,0,0,0,.26-.46.38.38,0,0,0-.46-.26,1.63,1.63,0,0,0-1.2,1.06,1.34,1.34,0,0,0,.35,1.44.38.38,0,0,0,.53,0,.39.39,0,0,0,0-.53Z"/><path d="M16.18,70,15,68.58a.38.38,0,0,0-.26-.11.37.37,0,0,0-.27.11.37.37,0,0,0,0,.53l1.15,1.41a.36.36,0,0,0,.26.11.4.4,0,0,0,.27-.11.41.41,0,0,0,.11-.26.5.5,0,0,0-.11-.27Z"/><path d="M14.91,92.32l.34,19.43a.23.23,0,0,0,.45,0l-.34-19.43c0-.29-.46-.29-.45,0Z"/><path d="M16.39,91.62q.16,10.06-.07,20.13c0,.29.44.29.45,0q.23-10.06.07-20.13a.23.23,0,0,0-.45,0Z"/><path d="M15.46,110.19c-1.58-.15-3.47-.31-4.9.56a4.63,4.63,0,0,0-1.49,1.79c-.61,1-1.22,2.1-1.82,3.15a.23.23,0,0,0,.25.33,6,6,0,0,0,2.63-1.36c.79-.73,1.07-2.09,2.17-2.4a4.92,4.92,0,0,1,1.67-.08c.47,0,1,0,1.29.48a2.94,2.94,0,0,1,.25,1.12,14.62,14.62,0,0,1-.18,4.33c0,.23.3.42.41.17a11.11,11.11,0,0,0,1-4.08,12.35,12.35,0,0,1-.05-2.5c.23-.9,1.42-1.12,2.25-1.06a3.78,3.78,0,0,1,1.86.67,3.13,3.13,0,0,1,.76.78c.11.19.43.72.31.93-.38.71-2-.16-2.55-.35l-2.56-.86c-.27-.09-.39.34-.11.43l3.49,1.18c.49.16,1.65.82,2.07.18.31-.46,0-1.24-.22-1.66a3.58,3.58,0,0,0-1.65-1.4c-1.18-.52-3.46-.63-4.06.83a2.13,2.13,0,0,0-.06,1.12,10.05,10.05,0,0,1-.9,5.57l.41.17a14.75,14.75,0,0,0,.16-4.78,2,2,0,0,0-.55-1.36,2.73,2.73,0,0,0-1.62-.38c-1.09,0-2.28.06-2.87,1.1a5.78,5.78,0,0,1-1.23,1.67,5.46,5.46,0,0,1-2.27,1.1l.26.33,1.46-2.54a5.86,5.86,0,0,1,1.69-2.23c1.34-.84,3.18-.64,4.67-.5.29,0,.29-.43,0-.45Z"/><path d="M12.3,113.62a.23.23,0,0,0,0-.45.23.23,0,0,0,0,.45Z"/><path d="M16,72.56h.58a.23.23,0,0,0,.23-.22.24.24,0,0,0-.23-.23H16a.23.23,0,0,0,0,.45Z"/><path d="M16.62,70.52c.32-2.39,2.94-3.77,5.15-3.81a.23.23,0,0,0,.11-.42,4.41,4.41,0,0,0-4.33.48A7.57,7.57,0,0,0,15,70.86c-.1.27.34.39.43.12a7.19,7.19,0,0,1,2.26-3.77,4,4,0,0,1,3.95-.53l.11-.42c-2.38,0-5.23,1.55-5.59,4.14,0,.28.4.4.44.12Z"/><path d="M15.45,70.93c-.1-.89-1.12-1.27-1.9-1.27A4.64,4.64,0,0,0,10.76,71c-.21.16.05.47.27.35a6.7,6.7,0,0,1,3.48-.82.23.23,0,0,0,0-.45,7.19,7.19,0,0,0-3.71.88l.28.36a4.4,4.4,0,0,1,2.29-1.16c.53,0,1.55.15,1.63.82,0,.29.48.29.45,0Z"/><path d="M14.52,69.37h-.07s-.06,0,0,0,0,0,0,0h-.07l-.05,0h0s0,0,0,0l-.1,0-.05,0s0,0,0,0L14,69.15l0-.05s0,0,0,0l0,0L13.9,69l0,0v0s0,0,0,0a1,1,0,0,0,0-.1s0-.07,0-.1,0,0,0,0v-.16s0,0,0,0a.43.43,0,0,0,0,0l0-.1v0l0-.06,0,0h0l.09-.09s0,0,0,0l.05,0,.06,0s0,0,0,0h0a.25.25,0,0,0,.16-.28.24.24,0,0,0-.28-.16,1,1,0,0,0-.7.9,1.16,1.16,0,0,0,.48,1,1.21,1.21,0,0,0,.67.21.23.23,0,0,0,.22-.23.22.22,0,0,0-.22-.22Z"/><path d="M1.25,82.83A3.39,3.39,0,0,1,3.86,85a8.2,8.2,0,0,0,1.85,3.18c.22.18.54-.13.32-.32-1.07-.89-1.3-2.24-1.94-3.4a3.72,3.72,0,0,0-2.84-2c-.28,0-.28.42,0,.45Z"/><path d="M6.87,88.09,6,87.89a.23.23,0,0,0-.26.33,3.54,3.54,0,0,0,2.81,1.45,42.64,42.64,0,0,0,4.8.28,84.14,84.14,0,0,0,11.11-.47c.29,0,.29-.48,0-.45a84.47,84.47,0,0,1-9.68.5c-1.55,0-3.11-.07-4.67-.17-1.28-.09-3.27-.07-4-1.37l-.25.33.88.2c.29.07.41-.37.12-.43Z"/><path d="M14.59,109.59c-.17.67.18,1.28.2,1.94,0,.9-1.21.73-1.81.83a5.1,5.1,0,0,0-3.71,2.44c-.13.25.25.48.39.22a4.88,4.88,0,0,1,4.07-2.29c.68,0,1.45-.25,1.51-1.06,0-.66-.39-1.3-.21-2a.23.23,0,0,0-.44-.12Z"/><path d="M17.12,75.84a.23.23,0,0,0,0-.45.23.23,0,0,0,0,.45Z"/><path d="M16.34,75.8l1.28.07.61,0,.31,0,.11,0c0-.25.06-.27.2,0l-.16.21a2.74,2.74,0,0,0,1.1-.39l-.22-.39a1.2,1.2,0,0,0-.54.93.22.22,0,0,0,.22.23c.69,0,1.47-.55,1.28-1.3a.22.22,0,0,0-.33-.14,2.69,2.69,0,0,0-1.07,1.24.23.23,0,0,0,.38.22l.5-.61-.38-.21-1.15,3,.44.06,0-.74-.16.21a1.72,1.72,0,0,0,1.54-1.58h-.45a3.4,3.4,0,0,1-1,2.62.22.22,0,0,0,.31.31,3.77,3.77,0,0,0,1.17-2.93.23.23,0,0,0-.45,0c0,.65-.63,1.06-1.21,1.15a.25.25,0,0,0-.17.22l0,.74a.23.23,0,0,0,.45.06l1.15-3c.08-.2-.24-.38-.38-.21l-.5.6.38.22a2.13,2.13,0,0,1,.86-1l-.33-.14c.12.47-.47.75-.85.74l.23.22a.74.74,0,0,1,.31-.54c.23-.16,0-.54-.22-.39a2.6,2.6,0,0,1-1,.35.23.23,0,0,0-.17.22.32.32,0,0,0,.52.22c.28-.17.15-.5-.11-.6a1.35,1.35,0,0,0-.49-.07l-.66,0-1.32-.07c-.29,0-.28.44,0,.45Z"/><path d="M15.49,80.6h1a.23.23,0,0,0,.06-.44.45.45,0,0,0-.58.41c0,.33.34.47.6.51a4.63,4.63,0,0,0,2.12-.25c.27-.09.15-.53-.12-.43a5,5,0,0,1-1.32.25,3,3,0,0,1-.6,0l-.14,0s-.07-.05-.09-.05,0,0,0,0h0l.06-.44h-1a.23.23,0,0,0,0,.45Z"/><path d="M19.33,80.66l1.72-.51a.22.22,0,0,0-.12-.43l-1.72.5c-.27.08-.15.52.12.44Z"/><path d="M21.27,80.19A4.22,4.22,0,0,1,22.2,78a.23.23,0,0,0-.32-.32l-1.12.89a.23.23,0,0,0,0,.32.24.24,0,0,0,.32,0L22.2,78l-.32-.32a4.74,4.74,0,0,0-1.06,2.55.23.23,0,0,0,.22.23.24.24,0,0,0,.23-.23Z"/><path d="M12.25,115a.31.31,0,0,1,.15-.33c.21-.13.08-.49-.17-.41a.69.69,0,0,1-.53,0,.56.56,0,0,1-.21-.16s0,0,0,0l0,0v0s0,0,0,0,0,0,0,0l-.06.16.81-.72a.23.23,0,0,0-.32-.32l-.67.6a.73.73,0,0,0-.18.17.31.31,0,0,0,0,.23.7.7,0,0,0,.12.28,1.13,1.13,0,0,0,1.24.38l-.17-.41a.74.74,0,0,0-.36.84.22.22,0,0,0,.43-.12Z"/><path class="cls-6" d="M15.29,76.77a.23.23,0,0,0,0-.45.23.23,0,0,0,0,.45Z"/><path class="cls-6" d="M14.7,76.77l.38,2.12a.23.23,0,0,0,.28.15.22.22,0,0,0,.16-.27l-.39-2.12a.23.23,0,0,0-.28-.16.23.23,0,0,0-.15.28Z"/><path class="cls-6" d="M14.23,76.61a6.24,6.24,0,0,0,1.41,2.07c.2.2.52-.11.32-.32a5.78,5.78,0,0,1-1.3-1.87.22.22,0,1,0-.43.12Z"/><path class="cls-6" d="M16.2,76.33a1.59,1.59,0,0,0,.34,2,.23.23,0,0,0,.32-.32,1.12,1.12,0,0,1-.27-.31.92.92,0,0,1-.14-.39.82.82,0,0,1,0-.18V77a.13.13,0,0,0,0-.06h0v0a1.22,1.22,0,0,1,.15-.39c.15-.25-.24-.47-.39-.23Z"/><path class="cls-6" d="M16.91,76.4A5.13,5.13,0,0,0,17,78.31a.23.23,0,0,0,.41.06l1.51-2-.35.05a1.2,1.2,0,0,1,.21,1.15c-.09.28.34.4.43.12a3.72,3.72,0,0,1,.6-1.06l-.38-.1a2.79,2.79,0,0,1-.81,2.67A7.83,7.83,0,0,1,16,80.8a.22.22,0,0,0,.06.44A3.51,3.51,0,0,0,17.84,81c.27-.11.15-.55-.12-.44a3.16,3.16,0,0,1-1.69.23l.06.44a7.76,7.76,0,0,0,3-1.85,3.16,3.16,0,0,0,.82-3,.23.23,0,0,0-.37-.1,4.26,4.26,0,0,0-.71,1.26l.43.12a1.64,1.64,0,0,0-.32-1.59.22.22,0,0,0-.35,0l-1.52,2,.42,0a4.91,4.91,0,0,1-.11-1.79c0-.29-.41-.29-.45,0Z"/><path class="cls-6" d="M17.12,80.73h-1.5l.06.44,1.84-.47a.22.22,0,0,0-.12-.43l-1.84.47a.23.23,0,0,0,.06.44h1.5c.29,0,.29-.46,0-.45Z"/><path class="cls-6" d="M18.68,79.64l.39-1.9h-.43a3,3,0,0,1,.14,1.08.23.23,0,0,0,.42.11l.8-1.52-.41-.17-.46,2.65a.23.23,0,0,0,.44.12l.31-1-.43-.12a.53.53,0,0,1-.29.35l.34.19a12.35,12.35,0,0,1,.79-3.5c.05-.15-.13-.34-.28-.28a2.19,2.19,0,0,0-.86.61c-.18.22.14.54.32.32a1.59,1.59,0,0,1,.66-.49l-.28-.28a13.18,13.18,0,0,0-.8,3.62.22.22,0,0,0,.34.19.91.91,0,0,0,.49-.61.22.22,0,0,0-.43-.12l-.32,1,.44.12L20,77.36c0-.24-.28-.42-.41-.18l-.8,1.52.42.12a3.48,3.48,0,0,0-.16-1.2.22.22,0,0,0-.43,0l-.39,1.9c-.06.29.37.41.43.12Z"/><path class="cls-6" d="M19.41,76.41v0s0,0,0,0v0s0,0,0,0l0,0s0,0,0,0l0,0h0s0,0,0,0l.12,0,.53-.09a1.25,1.25,0,0,0,.89-.79,3.13,3.13,0,0,0,.2-.66.23.23,0,0,0-.15-.28.23.23,0,0,0-.28.16,3.58,3.58,0,0,1-.16.56s0,0,0,0l0,0,0,.07-.07.13,0,.06,0,0h0a.94.94,0,0,1-.1.1s-.05,0,0,0l-.05,0-.06,0,0,0s0,0,0,0a1.28,1.28,0,0,1-.28.07,2.35,2.35,0,0,0-.53.09.49.49,0,0,0-.38.49.23.23,0,0,0,.23.22c.11,0,.24-.1.22-.22Z"/><path class="cls-6" d="M20.84,73.5l-.51-.61a.21.21,0,0,0-.15-.07.22.22,0,0,0-.16.07.24.24,0,0,0-.07.16.26.26,0,0,0,.07.16l.5.6a.21.21,0,0,0,.16.07.24.24,0,0,0,.23-.23.26.26,0,0,0-.07-.15Z"/><path class="cls-6" d="M19,72.16a15.57,15.57,0,0,0-1.81-.11,6.29,6.29,0,0,0-1.62.12,1.12,1.12,0,0,0-.86.9c-.15.61-.28,1.23-.41,1.84-.07.28.37.4.43.12l.36-1.61a1.3,1.3,0,0,1,.23-.63,1,1,0,0,1,.56-.23,10.61,10.61,0,0,1,1.49-.06c.54,0,1.09,0,1.63.11.29,0,.29-.42,0-.45Z"/><path class="cls-6" d="M18.48,72.66a2.76,2.76,0,0,1,1.86.56.23.23,0,0,0,.32-.32,3.24,3.24,0,0,0-2.18-.69.23.23,0,0,0-.22.23.22.22,0,0,0,.22.22Z"/><path class="cls-6" d="M14.71,78.36A1.43,1.43,0,0,0,16,77.3a2.85,2.85,0,0,0-.44-2c-.14-.26-.53,0-.39.23a2.43,2.43,0,0,1,.41,1.58,1,1,0,0,1-.84.8c-.28,0-.29.48,0,.45Z"/><path d="M14.41,5.55a10.43,10.43,0,0,1-2.3,3.3.22.22,0,0,0,.31.32l1.5-1.34-.32-.32-1.84,2c-.38.41-1.12,1-.72,1.61a1.54,1.54,0,0,0,.63.47l1.17.54,2.48,1.15c.27.12.49-.27.23-.39l-2-.91c-.62-.28-1.28-.53-1.87-.87-.13-.07-.3-.17-.34-.33s.14-.36.25-.48l.8-.84,1.49-1.58a.23.23,0,0,0-.32-.32L12.11,8.85l.31.32a10.43,10.43,0,0,0,2.37-3.39c.12-.26-.27-.49-.38-.23Z"/><path d="M14,11.82a25.78,25.78,0,0,0,7.73,3.34c.28.07.4-.37.12-.44a25.19,25.19,0,0,1-7.62-3.29c-.25-.15-.47.23-.23.39Z"/><path d="M21.5,14.11c1.16-.47,2.37,0,3.49.39s2.19.77,3.27,1.2a61.47,61.47,0,0,1,6.46,3.06c.25.14.48-.25.23-.38a61.11,61.11,0,0,0-6.8-3.21q-1.74-.69-3.51-1.26a4.66,4.66,0,0,0-3.26-.23c-.27.1-.15.54.12.43Z"/><path d="M31.06,18.59q12.47,2.85,24.68,6.6c.28.09.4-.35.12-.43Q43.65,21,31.18,18.15c-.28-.06-.4.37-.12.44Z"/><path d="M56,25.71a58.33,58.33,0,0,1,9.93,4.82c1.48.9,2.9,1.9,4.31,2.9a11.36,11.36,0,0,0,4.17,2.08c.28.06.4-.38.12-.44a11.94,11.94,0,0,1-4.43-2.29c-1.47-1.05-3-2.06-4.51-3a58.76,58.76,0,0,0-9.47-4.53c-.27-.1-.39.33-.12.44Z"/><path d="M78.27,35.17a99.67,99.67,0,0,0,10.32-5.7c.24-.15,0-.54-.23-.39A96.84,96.84,0,0,1,78,34.78c-.26.13,0,.52.23.39Z"/><path d="M91.55,27.49c-.18-.16.7-.71.82-.8l1-.75,2-1.47,4.14-3c.23-.16,0-.55-.23-.38L93.13,25.6c-.51.36-1,.71-1.52,1.08-.25.2-.57.5-.45.86.21.59,1.17,0,.71-.36-.22-.19-.54.13-.32.31Z"/><path d="M106.36,17.68a2.6,2.6,0,0,1,1.84-1.51.22.22,0,0,0,.16-.27.22.22,0,0,0-.28-.16,3.06,3.06,0,0,0-2.15,1.82.22.22,0,0,0,.16.27.21.21,0,0,0,.27-.15Z"/><path d="M111.14,14.83a1.67,1.67,0,0,0,1.53-.77.24.24,0,0,0-.08-.31.24.24,0,0,0-.31.08l-.06.08s0,0,0,0l0,0-.12.13,0,0s0,0,0,0h0l0,0-.16.1-.05,0-.08,0-.18,0h-.34a.22.22,0,0,0-.22.23.22.22,0,0,0,.22.22Z"/><path d="M113.48,13.84a.23.23,0,0,0,0-.45.23.23,0,0,0,0,.45Z"/><path d="M113,13v-.67a.22.22,0,0,0-.22-.22.22.22,0,0,0-.23.22V13a.23.23,0,0,0,.45,0Z"/><path d="M111.48,9.84a.23.23,0,0,0,0-.45.23.23,0,0,0,0,.45Z"/><path d="M111.32,8.76l-.67-.58a.24.24,0,0,0-.28,0,2.25,2.25,0,0,0-.77,1.08.25.25,0,0,0,.16.28.24.24,0,0,0,.28-.16.78.78,0,0,1,0-.14v0l0-.06a1.88,1.88,0,0,1,.14-.24.1.1,0,0,1,0-.05s0,0,0,0l.1-.12.09-.09a.1.1,0,0,0,0,0l0,0-.27,0,.67.58a.23.23,0,0,0,.32,0,.22.22,0,0,0,0-.32Z"/><path d="M106.81,10.06h-.67a.22.22,0,0,0-.22.22.23.23,0,0,0,.22.23h.67a.22.22,0,0,0,.22-.23.22.22,0,0,0-.22-.22Z"/><path d="M105.08,10.74a2.33,2.33,0,0,0-1.28.85.23.23,0,0,0,.14.33l1.54.3a.23.23,0,0,0,.27-.16.23.23,0,0,0-.15-.28l-1.54-.29.13.33v0l0,0,0-.06.12-.12.23-.17a1.69,1.69,0,0,1,.57-.24.23.23,0,0,0,.16-.28.24.24,0,0,0-.28-.16Z"/><path d="M106.14,11.51a.23.23,0,0,0,0-.45.23.23,0,0,0,0,.45Z"/><path d="M77.37,29.61V25.53l-.44.06a1,1,0,0,1-.45,1l.34.19-.24-4.22c0-.28-.46-.29-.45,0l.24,4.22a.22.22,0,0,0,.34.19,1.4,1.4,0,0,0,.65-1.54.22.22,0,0,0-.44.06v4.08a.23.23,0,0,0,.45,0Z"/><path d="M76.14,21.84a.23.23,0,0,0,0-.45.23.23,0,0,0,0,.45Z"/><path d="M77.08,22.24A74.88,74.88,0,0,1,91,14.2c.26-.12,0-.51-.23-.39a74.8,74.8,0,0,0-13.86,8c-.24.17,0,.56.22.39Z"/><path d="M87.2,16.39,101.5,7.1c.17-.11.12-.45-.11-.42a3.75,3.75,0,0,0-2.72,1.6c-.14.19.13.41.31.31l6-3.31a20,20,0,0,1,2.78-1.55c.52-.41,1.09-.34,1.7.22.07.28.13.57.19.86.14.71.24,1.42.32,2.14,0,.28.48.28.45,0-.12-1.08-.1-2.81-.74-3.72-.51-.72-1.33-.33-1.95,0-3,1.62-6,3.31-8.93,5l.31.31a3.25,3.25,0,0,1,2.33-1.38l-.12-.42L87,16c-.25.16,0,.55.22.39Z"/><path d="M16.1,7.54A35.85,35.85,0,0,1,15.71.22c0-.29-.43-.29-.45,0a17,17,0,0,0,.08,3.11l.44-.06-.09-.38c-.06-.28-.5-.16-.43.12l.09.38c.06.24.47.2.44-.06A17,17,0,0,1,15.71.22h-.45a36.32,36.32,0,0,0,.41,7.44c0,.29.48.17.43-.12Z"/><path d="M15.48.84a.23.23,0,0,0,0-.45.23.23,0,0,0,0,.45Z"/><path d="M15.25.28V.61a.24.24,0,0,0,.23.23.19.19,0,0,0,.15-.07A.19.19,0,0,0,15.7.61V.28a.2.2,0,0,0-.07-.16.17.17,0,0,0-.15-.06.23.23,0,0,0-.16.06.26.26,0,0,0-.07.16Z"/><path d="M16.34,1.51a21.6,21.6,0,0,0,6.08,3c.28.09.4-.35.12-.43a21,21,0,0,1-6-2.93c-.24-.17-.46.22-.23.39Z"/><path d="M23.42,3.77A65.63,65.63,0,0,0,35.27,9.48q6.72,2.64,13.55,5Q62.47,19.28,76.47,23a.23.23,0,0,0,.12-.44Q62.84,18.92,49.4,14.24,42.8,11.95,36.28,9.4a69.32,69.32,0,0,1-12.63-6c-.25-.15-.47.23-.23.39Z"/><path d="M106.31,17.46a18.09,18.09,0,0,0,5.6-3.18c.64-.54,1.57-1.21,1.2-2.16a3.13,3.13,0,0,0-1.93-1.53c-.27-.1-.39.33-.12.43.62.23,1.6.71,1.68,1.46.06.45-.34.76-.64,1s-.71.62-1.08.91a17.49,17.49,0,0,1-4.83,2.6c-.27.1-.16.53.12.44Z"/><path d="M104,15.51a37.53,37.53,0,0,0,6.19-3.95c.74-.58,1.74-1.27,1.86-2.29a1.36,1.36,0,0,0-1.25-1.57c-.29,0-.29.46,0,.45a.82.82,0,0,1,.78.73,1.5,1.5,0,0,1-.44,1.25A13.76,13.76,0,0,1,108.84,12a35.84,35.84,0,0,1-5.12,3.14c-.26.13,0,.52.23.39Z"/><path d="M104.25,45v5a.23.23,0,0,0,.45,0V45a.23.23,0,0,0-.45,0Z"/><path d="M78.25,61v2a.23.23,0,0,0,.45,0V61a.23.23,0,0,0-.45,0Z"/><path d="M77.81,64.51a.23.23,0,0,0,0-.45.23.23,0,0,0,0,.45Z"/></g></g></svg>