<svg xmlns="http://www.w3.org/2000/svg" viewBox="0 0 498.63 123.01"><defs><style>.cls-1{fill:none;stroke:#fff;stroke-miterlimit:10;stroke-width:0.4px;}.cls-2{fill:#fff;}</style></defs><g id="Layer_2" data-name="Layer 2"><g id="Elegant_lines" data-name="Elegant lines"><rect class="cls-1" x="24.59" y="37.81" width="1.8" height="1.82" rx="0.24" transform="translate(50.27 77.45) rotate(180)"/><path class="cls-2" d="M65,7.63A13.22,13.22,0,0,0,70.12,6a.6.6,0,0,0-.46-1.1L64.87,6.25A.6.6,0,0,0,65,7.43a24,24,0,0,0,7.85-1.17L72.56,5.1,68.41,6.62l.46,1.1a2.77,2.77,0,0,1,3.6,1.52,2.69,2.69,0,0,1-2.08,3.41,2.39,2.39,0,0,1-2.8-2.34,2.82,2.82,0,0,1,.49-2c.17-.22.22-.28.45,0A2.52,2.52,0,0,1,69,9.54c.23,1.33.31,2.7.46,4l.47,4.05c.09.76,1.29.77,1.2,0l-.59-5.12L70.24,10a5.49,5.49,0,0,0-.41-1.79c-.41-.89-1.52-1.79-2.42-.9a3.77,3.77,0,0,0-1,2.71c0,2,1.54,4,3.73,3.87a4,4,0,0,0,3.66-4.4,4,4,0,0,0-5.51-2.82.61.61,0,0,0,.47,1.1l4.15-1.52c.72-.27.42-1.4-.32-1.16A22.64,22.64,0,0,1,65,6.23l.16,1.17L70,6.05,69.52,5A11.88,11.88,0,0,1,65,6.43c-.76.09-.77,1.29,0,1.2Z" transform="translate(-0.71)"/><path class="cls-2" d="M68.39,8.63a89,89,0,0,0,1.62,19c.15.75,1.3.43,1.16-.32A87.29,87.29,0,0,1,69.59,8.63a.6.6,0,0,0-1.2,0Z" transform="translate(-0.71)"/><path class="cls-2" d="M65.89,15.36l3.92,20.48c.15.76,1.3.44,1.16-.32L67,15.05c-.14-.76-1.3-.44-1.15.31Z" transform="translate(-0.71)"/><path class="cls-2" d="M68.23,12.74l3.24,27c.09.76,1.29.77,1.2,0l-3.24-27c-.09-.75-1.29-.76-1.2,0Z" transform="translate(-0.71)"/><path class="cls-2" d="M70.68,18.46l2.64,32.73c.06.76,1.26.77,1.2,0L71.88,18.46c-.06-.76-1.26-.77-1.2,0Z" transform="translate(-0.71)"/><path class="cls-2" d="M72.07,29.06a65.06,65.06,0,0,0,.05,17.13c.13,1,.13,2.29.81,3.09a1.19,1.19,0,0,0,1.63.28c.91-.78-.33-2.65-1.16-1.58-.46.6.38,1.46.85.85-.56.11-.72,0-.47-.41a2.35,2.35,0,0,1-.17-.44,8.77,8.77,0,0,1-.2-1.14c-.13-.85-.24-1.7-.33-2.56-.18-1.68-.29-3.38-.34-5.07a66.27,66.27,0,0,1,.53-10.15c.1-.76-1.1-.75-1.2,0Z" transform="translate(-0.71)"/><path class="cls-2" d="M65.8,66.53h4.29a.6.6,0,0,0,0-1.2H64.42a.6.6,0,0,0,0,1.2H82.7v-1.2l-4.49.06v1.2l6.92-.86c2.13-.27,4.35-.4,6.45-.84,3.74-.78,2.7-4.51,1-6.81a.61.61,0,0,0-.94-.12,2.69,2.69,0,0,0-.9,2.24c0,.77,1.25.77,1.2,0a1.63,1.63,0,0,1,.55-1.39l-.94-.12c.72,1,1.78,2.5,1.39,3.81-.49,1.61-3.32,1.46-4.62,1.62L78.21,65.39c-.74.09-.79,1.21,0,1.2l4.49-.06a.6.6,0,0,0,0-1.2H64.42v1.2h5.67a.6.6,0,0,0,0-1.2H65.8a.6.6,0,0,0,0,1.2Z" transform="translate(-0.71)"/><path class="cls-2" d="M106.06,39.29l5-6-1-.42a67.62,67.62,0,0,0,.39,14.43c.1.76,1.26.44,1.16-.32a65.28,65.28,0,0,1-.35-14.11.6.6,0,0,0-1-.43l-5,6c-.49.59.35,1.44.85.85Z" transform="translate(-0.71)"/><path class="cls-2" d="M110.85,38.12a77.34,77.34,0,0,0,1.59,25.24.6.6,0,0,0,1,.26,29.71,29.71,0,0,0,7.87-16.37l-1.18-.16a30.22,30.22,0,0,1-3,11.84c-.72,1.45-2,3.22-3.71,3.54-2.39.44-2.37-2.71-2.37-4.25q0-6.48,0-13l0-6.36a10,10,0,0,0-.54-4.25c-.38-.85-1.43-2.07-2.51-1.69-.6.22-1.2,1.23-1.51,1.76a7.6,7.6,0,0,0-1,2.73.6.6,0,0,0,1.15.32,8.36,8.36,0,0,1,1.87-3l-.94-.13a1.42,1.42,0,0,1-.71,2c-.71.31-.1,1.35.6,1a2.61,2.61,0,0,0,1.15-3.65.6.6,0,0,0-.94-.12,9.56,9.56,0,0,0-2.18,3.51l1.15.32a6.72,6.72,0,0,1,.94-2.61c.23-.36.56-1.06,1.06-.93s.61.66.74,1c.75,1.69.42,3.88.42,5.67l-.05,13.2c0,2-.16,4.06,0,6a3.93,3.93,0,0,0,1.86,3.3c2.58,1.32,5.25-1.65,6.3-3.67a31,31,0,0,0,3.29-12.65c0-.66-1.09-.83-1.18-.16a28.62,28.62,0,0,1-7.56,15.84l1,.27a76.21,76.21,0,0,1-1.55-24.92c.08-.77-1.12-.76-1.2,0Z" transform="translate(-0.71)"/><path class="cls-2" d="M112.12,18.23,110,24.05a.6.6,0,0,0,.42.74.62.62,0,0,0,.74-.42l2.14-5.82a.6.6,0,1,0-1.16-.32Z" transform="translate(-0.71)"/><path class="cls-2" d="M130.25,65.39a5.54,5.54,0,0,0,6.57-1.12c.52-.57-.33-1.42-.85-.85a4.31,4.31,0,0,1-5.12.93c-.68-.36-1.28.67-.6,1Z" transform="translate(-0.71)"/><path class="cls-2" d="M128.84,67.41a12,12,0,0,0,8.52-5.24c.43-.64-.6-1.24-1-.61a10.71,10.71,0,0,1-7.49,4.65.62.62,0,0,0-.6.6.6.6,0,0,0,.6.6Z" transform="translate(-0.71)"/><path class="cls-2" d="M133.29,63.48a54.9,54.9,0,0,1,2-13.66h-1.15a8.63,8.63,0,0,1,0,5.72c-.22.63.81,1.08,1.09.46l2.33-5-1.1-.15a7.13,7.13,0,0,1-.33,5.33l1.09.46,1.62-10.68a.6.6,0,0,0-1.1-.46l-2.1,3.19,1.12.31q1.14-11.54,2.86-23c.12-.76-1-1.08-1.15-.32Q136.71,37.25,135.57,49c-.06.63.82.75,1.12.3l2.1-3.2-1.1-.46-1.61,10.68c-.09.61.78,1.14,1.09.46a8.41,8.41,0,0,0,.46-6.25c-.14-.45-.87-.64-1.1-.14l-2.32,5.06,1.09.46a9.63,9.63,0,0,0,0-6.36.6.6,0,0,0-1.15,0,56,56,0,0,0-2.08,14,.6.6,0,0,0,1.2,0Z" transform="translate(-0.71)"/><path class="cls-2" d="M140.33,34.12l2.46-13.9c.13-.76-1-1.08-1.16-.32l-2.45,13.9c-.14.76,1,1.08,1.15.32Z" transform="translate(-0.71)"/><path class="cls-2" d="M141.36,29.09a102.67,102.67,0,0,1,1-16.15c.18-1.27.38-2.54.62-3.8.09-.49.08-1.1.58-1.31.7-.3,1.41.67,1.76,1.21a46.71,46.71,0,0,1,3.4,6.55c4.28,9.69,5.24,20.29,6.7,30.66L158,64.39a.6.6,0,0,0,.74.42l4.34-1.17a.6.6,0,0,0-.32-1.16l-4.87,1.2.46,1.1a10.43,10.43,0,0,0,4.41-4.53.6.6,0,0,0-1-.6c-.87,1.16-2.64.77-3.57-.09-1.12-1-1.4-2.76-1.55-4.2-.27-2.47-.25-5-1.85-7-.47-.61-1.31.25-.84.85,2.31,3,.65,7.33,2.76,10.45,1.37,2,4.49,2.73,6.09.6l-1-.6a9.23,9.23,0,0,1-4,4.09.6.6,0,0,0,.46,1.1l4.87-1.2-.32-1.16-4.34,1.17.74.42-2.56-18.14c-.84-6-1.52-12-2.72-17.94a62.29,62.29,0,0,0-5.25-15.44q-.9-1.8-1.92-3.54a5.42,5.42,0,0,0-2.08-2.29c-2-1-2.61,1.06-2.88,2.58a104.18,104.18,0,0,0-1.58,19.79.6.6,0,0,0,1.2,0Z" transform="translate(-0.71)"/><path class="cls-2" d="M139,44.18a.5.5,0,0,1,.26-.42c.06.24.19.31.36.2a5.5,5.5,0,0,1,.67.11,3.34,3.34,0,0,0,1.54,0c1.2-.23,2.38-.49,3.57-.74l7.27-1.51-.32-1.16a30.35,30.35,0,0,1-9.65,1.93.6.6,0,0,0-.16,1.18,14,14,0,0,0,6.43.57c.76-.1.44-1.26-.32-1.16a12.79,12.79,0,0,1-5.79-.56l-.16,1.17a31.78,31.78,0,0,0,10-2,.6.6,0,0,0-.32-1.16l-5.81,1.21-2.91.6a7.31,7.31,0,0,1-3,.39,2.2,2.2,0,0,0-1.89.15,1.11,1.11,0,0,0-.39,1.42c.52.86,2.13.49,1.83-.61a.6.6,0,0,0-1.16.31Z" transform="translate(-0.71)"/><path class="cls-2" d="M173.47,64a11.67,11.67,0,0,0,9.24-1,.6.6,0,0,0-.3-1.11A36.41,36.41,0,0,0,172.2,64a.6.6,0,0,0,.16,1.18,13,13,0,0,0,7.72-1.44.6.6,0,0,0-.15-1.09l-4.72-1.17c-.75-.19-1.07,1-.32,1.15l4.72,1.17-.14-1.09A12,12,0,0,1,172.36,64l.16,1.18A35.31,35.31,0,0,1,182.41,63l-.3-1.12a10.5,10.5,0,0,1-8.33.89c-.73-.23-1.05.93-.31,1.16Z" transform="translate(-0.71)"/><path class="cls-2" d="M174.31,60.8h.79a.61.61,0,0,0,.43-.17.41.41,0,0,0,.12-.2.36.36,0,0,0,0-.23.57.57,0,0,0-.17-.42.62.62,0,0,0-.43-.18h-.79a.62.62,0,0,0-.43.18.39.39,0,0,0-.12.19.37.37,0,0,0,0,.23.57.57,0,0,0,.17.43.61.61,0,0,0,.43.17Z" transform="translate(-0.71)"/><path class="cls-2" d="M180.73,61q-.51-25.45-2.09-50.86c-.08-1.41,0-3.34-1.28-4.29a2,2,0,0,0-2.89.41.61.61,0,0,0,.36.89l6.53.93c.76.1,1.08-1.05.32-1.16L175.14,6l.36.88c.64-.92,1.53.35,1.69.87a7.36,7.36,0,0,1,.19,1.41c.09,1.16.15,2.32.22,3.48.14,2.33.27,4.65.4,7,.24,4.57.47,9.14.66,13.71q.6,13.83.87,27.68a.6.6,0,0,0,1.2,0Z" transform="translate(-0.71)"/><path class="cls-2" d="M183.76,9.42c3.51,8.42,6.49,17,9.22,25.76,1.34,4.28,2.62,8.58,3.89,12.89.63,2.15,1.28,4.3,1.89,6.46a5.5,5.5,0,0,1,.3,3,1.2,1.2,0,0,1-1.16,1c-.42,0-.9-.12-.91-.63l-.9.52a2.39,2.39,0,0,0,3.12-.42,4.29,4.29,0,0,0,.93-4,19.16,19.16,0,0,1-.41-3.37,10.29,10.29,0,0,1,.69-3.19,52.14,52.14,0,0,1,2.88-5.8A78.33,78.33,0,0,0,211,18.56c.36-2.17.59-4.34.81-6.52.18-1.74.52-4.26,2.47-4.85A.6.6,0,0,0,214,6c-2.62.78-3.13,3.79-3.36,6.16a83.91,83.91,0,0,1-2,12,78.12,78.12,0,0,1-3.8,11.46c-1.56,3.68-3.72,7.07-5.25,10.75a11.24,11.24,0,0,0-1,5.57,28.52,28.52,0,0,1,.47,3.32c0,1.1-1,3.06-2.37,2.09a.6.6,0,0,0-.9.51c.06,2.23,3.21,2.34,4.15.64.75-1.34.36-2.94,0-4.33-.58-2.08-1.21-4.15-1.82-6.23-2.46-8.38-5-16.74-7.87-25-1.64-4.68-3.39-9.32-5.3-13.9-.29-.7-1.45-.39-1.16.32Z" transform="translate(-0.71)"/><path class="cls-2" d="M208.61,12.51A28.53,28.53,0,0,0,217.86,11a.6.6,0,0,0-.16-1.18l-2.13-.21v1.2l2.93.28c.67.07.82-1,.16-1.17-4-.82-6.15,3.5-6,6.88a47.17,47.17,0,0,0,1.09,6.66q.72,3.94,1.21,7.93a146.15,146.15,0,0,1,.58,30.3c0,.43.41.63.76.58a2.86,2.86,0,0,0,2.33-2,.57.57,0,0,0-.15-.58,2.48,2.48,0,0,0-3.55.08.61.61,0,0,0,.43,1,21,21,0,0,0,5.74-.7l-.76-.58a3.34,3.34,0,0,0,2.53,3.61.6.6,0,0,0,.32-1.16,2.14,2.14,0,0,1-1.65-2.45.6.6,0,0,0-.76-.57,20.26,20.26,0,0,1-5.42.65l.42,1a1.27,1.27,0,0,1,1.85-.07l-.15-.58a1.73,1.73,0,0,1-1.5,1.2l.76.58a147,147,0,0,0-.2-26.95c-.44-4.36-1.07-8.71-1.9-13-.44-2.28-1.12-4.7-.63-7,.43-2,2.14-4.07,4.36-3.62l.16-1.18-2.93-.28c-.77-.08-.76,1.12,0,1.2l2.13.21-.16-1.18a27.39,27.39,0,0,1-8.93,1.49.6.6,0,0,0,0,1.2Z" transform="translate(-0.71)"/><path class="cls-2" d="M227.22,6.51a1,1,0,0,1-1.3-.26c-.22-.28-.19-.27,0-.54a2.79,2.79,0,0,1,.45-.63,4,4,0,0,1,2.92-1.15,4.27,4.27,0,0,1,3,1.15,5.43,5.43,0,0,1,1.5,3.69,7.72,7.72,0,0,1-1.34,4.59c-.44.64.6,1.24,1,.61,1.94-2.85,2.28-7.48-.53-9.92-2.25-1.94-6.24-1.79-7.95.8a1.8,1.8,0,0,0-.42,1.28,2.06,2.06,0,0,0,.65,1.14,2.17,2.17,0,0,0,2.6.27c.64-.42,0-1.46-.61-1Z" transform="translate(-0.71)"/><path class="cls-2" d="M257.39,21a10,10,0,0,0,1.8-5.93l-1.18.16a8.16,8.16,0,0,1,.45,5,.6.6,0,0,0,1.16.32,7.52,7.52,0,0,0-2.38-7.64,8.22,8.22,0,0,0-7.92-1.88c-7.14,2-9.6,9.91-9.89,16.5-.14,3.1-.5,7.26,1.39,9.94a5.66,5.66,0,0,0,3.64,2.16,12.8,12.8,0,0,1,5,1.82c6.74,4.72,5.92,14.92,1.56,21-2.3,3.19-6.65,5.61-10.42,3.28a4.65,4.65,0,0,1-2.28-4.38,4.16,4.16,0,0,1,2.83-3.91.6.6,0,0,0-.16-1.18l-4.49-.2v1.2l5.08,0a.6.6,0,0,0,0-1.2l-5.08,0a.6.6,0,0,0,0,1.2l4.49.2-.16-1.18a5.49,5.49,0,0,0-3.72,5.65A6.15,6.15,0,0,0,242,67.57c7.3,1.8,12.12-6.15,13.29-12.23,1.25-6.51-1.37-14.5-8.39-16.41-1.91-.52-4.07-.45-5.25-2.32a10.26,10.26,0,0,1-1.07-5.24c-.09-4.3.08-8.81,2-12.76,1.71-3.59,5.34-6.9,9.55-6.7,4,.19,7.53,4.38,6.34,8.34l1.16.32a9.24,9.24,0,0,0-.45-5.64c-.24-.59-1.19-.57-1.18.16a8.93,8.93,0,0,1-1.64,5.32c-.44.64.6,1.24,1,.61Z" transform="translate(-0.71)"/><path class="cls-2" d="M310.81,20l.55-3.14a.6.6,0,0,0-1.1-.46l-1.6,2.68,1,.61a5.73,5.73,0,0,0-1.3-6.53,6.29,6.29,0,0,0-6.88-1.29c-6.41,2.49-7.13,10.31-7.25,16.22a83.93,83.93,0,0,0,2.9,22.79c1.28,4.92,3.05,11.85,8.44,13.82s11-4.13,9.1-9.49l-.42.74.76.22-.16-.59a18.77,18.77,0,0,1-4.63,9.31c-.52.57.33,1.42.85.85a19.82,19.82,0,0,0,4.1-6.73c.31-.83,1.08-2.52.84-3.43s-1.4-1-2.08-.79a.61.61,0,0,0-.42.74c1.57,4.41-2.8,9.72-7.48,8.07s-6.23-7.5-7.37-11.66a87.18,87.18,0,0,1-3.11-18.14,68.29,68.29,0,0,1,0-9.16,17.68,17.68,0,0,1,2.24-8.18c1.52-2.41,4.52-4.52,7.5-3.75,2.6.66,4.52,3.85,3.29,6.37a.6.6,0,0,0,1,.61L311.3,17l-1.1-.46-.54,3.14c-.13.76,1,1.08,1.15.32Z" transform="translate(-0.71)"/><path class="cls-2" d="M324.6,65.46l4.6-.11L329,64.17l-5.29.94c-.67.12-.51,1.2.16,1.18,7-.28,6.51-9.74,6.91-14.55a222,222,0,0,1,3.11-22.83q1.08-5.7,2.45-11.33c.37-1.51.58-3.29,1.49-4.59s1.84-.78,2.29.55c.3.87.49,1.8.73,2.7q2.91,11.09,5.29,22.3,1.32,6.2,2.47,12.44.59,3.12,1.12,6.25c.19,1.12.38,2.24.56,3.36.08.49.16,1,.23,1.45s.12.77.16,1.16c0,1-.31,1.36-.88.94l-.26,1,2.28-.58a.6.6,0,0,0-.32-1.16l-2.28.58a.61.61,0,0,0-.26,1,1.59,1.59,0,0,0,2.5-.18c.92-1.25.17-3.42-.05-4.78q-1-6.26-2.23-12.49-2.43-12.69-5.54-25.24c-.51-2.05-1-4.1-1.57-6.14-.38-1.44-.55-3.52-1.68-4.6-2.48-2.39-4.3,2.06-4.74,3.82a221.9,221.9,0,0,0-4.81,24.9q-.93,6.91-1.45,13.87c-.27,3.71-.3,10.73-5.52,10.94l.16,1.17,5.29-.93c.67-.12.51-1.19-.16-1.18l-4.6.11a.6.6,0,0,0,0,1.2Z" transform="translate(-0.71)"/><path class="cls-2" d="M331.78,48.33a55.34,55.34,0,0,0,15.75-2.41.6.6,0,0,0-.16-1.18,42.05,42.05,0,0,0-8.09,0,.6.6,0,0,0-.16,1.18l2.07.66c.74.23,1.05-.93.32-1.16l-2.07-.66L339.28,46a42.05,42.05,0,0,1,8.09,0l-.16-1.18a54.16,54.16,0,0,1-15.43,2.37.6.6,0,0,0,0,1.2Z" transform="translate(-0.71)"/><path class="cls-2" d="M367.47,77.23a3.17,3.17,0,0,0,1.25,4.8c2.29,1,4.66-1,5.45-3a11.7,11.7,0,0,0,.56-4.59c-.06-2.1-.16-4.2-.21-6.3-.08-3.76-.08-7.53,0-11.29Q374.76,45,376,33.3c.42-4,.94-8,1.55-12a52.66,52.66,0,0,1,2.09-9.55,17.81,17.81,0,0,1,2.94-5.48c1.16-1.39,3.14-2.94,5-2.09,2.8,1.26,1.93,5.72,1.33,8a.6.6,0,0,0,1.1.46c2.78-4.23-.54-10.63-5.78-10a9,9,0,0,0-6.48,4.58c-1.79,3.05-1.95,6.79-1.93,10.24a433,433,0,0,1-2.3,50.41c-.26,2.3-.53,4.59-.83,6.88-.26,2-.38,4.29-1.28,6.17a3.77,3.77,0,1,1-6.82-3.15l-1.12-.3c-.12,2.34-.08,6.23,2.83,6.93,1.9.45,4.31-.92,3.76-3.08a.6.6,0,0,0-1.16.31c.44,1.71-2.27,2-3.17,1.11-1.32-1.31-1.15-3.58-1.06-5.27a.61.61,0,0,0-1.12-.31,5.21,5.21,0,0,0,1.87,6.79,5,5,0,0,0,6.69-1.81c1.73-2.75,1.7-6.71,2.09-9.85Q375,66,375.59,59.71q1.13-12.57,1.43-25.18.17-6.44.1-12.86c0-3.91-.41-8,.8-11.81C379,6.48,382.54,2.68,386.47,4c3.18,1.05,4.3,5.38,2.55,8l1.1.46c.58-2.21,1-4.82.15-7a4.08,4.08,0,0,0-4.88-2.58c-2.77.72-4.63,3.52-5.81,5.92a34.14,34.14,0,0,0-2.69,9.13,258.19,258.19,0,0,0-3.63,44.76c0,4.2.3,8.41.28,12.61,0,2-.38,4.36-2.31,5.42a2.09,2.09,0,0,1-2.67-.29,1.82,1.82,0,0,1-.24-2.37c.49-.58-.35-1.44-.85-.84Z" transform="translate(-0.71)"/><path class="cls-2" d="M368.49,43.51a165.82,165.82,0,0,0,16.44-2.76.6.6,0,0,0-.16-1.18,44.45,44.45,0,0,0-18,5c-.57.3-.25,1.08.3,1.12a36.72,36.72,0,0,0,13.54-1.54c.73-.22.42-1.38-.32-1.15a35.86,35.86,0,0,1-13.22,1.49l.3,1.12a43.12,43.12,0,0,1,17.4-4.84l-.16-1.18a159.48,159.48,0,0,1-16.12,2.72c-.75.09-.76,1.29,0,1.2Z" transform="translate(-0.71)"/><path class="cls-2" d="M412.11,66.49a24.17,24.17,0,0,0,7.82.37,41.42,41.42,0,0,0,7.35-1.11,7.36,7.36,0,0,0,4.55-3.17,4.77,4.77,0,0,0,.11-4.93c-.34-.56-1.35-.2-1.1.46a3.52,3.52,0,0,1-1.49,4.09c-1.59,1.16-3.72,1-5.56.73-3-.48-6-1.34-8.89,0-.59.27-.23,1.09.3,1.12,2,.13,2.65-2.17,2.73-3.77a88.32,88.32,0,0,0-.31-9.76,162.59,162.59,0,0,0-2.48-19.65c-.13-.66-1.2-.51-1.18.16l1,29.89a.6.6,0,0,0,1.2,0l0-31.95V21c0-2-.59-5.33,1-6.92,1.15-1.19,3.16-1,4.67-1.24A4.65,4.65,0,0,0,425.23,11c.33-.47-.22-1-.68-.88l-6.23,1.14c-.77.14-.43,1.26.32,1.16,3.12-.43,6.24-.89,9.37-1.29,1.58-.19,2.8.06,3.42,1.64a9.36,9.36,0,0,1,.5,3.36l1.18-.16c-1.13-3.43-4.68-4.48-8-4.65a48,48,0,0,0-6.67.38l-8.61.77.16,1.18c2.84-.58,5,2,5.83,4.38.91,2.65,1,5.59,1.37,8.36l2.19,17.73.9-.52-2.46-1.8v1a12.12,12.12,0,0,1,6.8-2.5.6.6,0,0,0,0-1.2l-4.07-.26v1.2a21.5,21.5,0,0,0,11.88-2.9l-.9-.52.34,5.8a.6.6,0,0,0,1.18.16A4.53,4.53,0,0,0,431,37.41a.6.6,0,0,0-.6,1,3.32,3.32,0,0,1,1.56,3.84l1.18.16-.34-5.8a.6.6,0,0,0-.9-.52,20.27,20.27,0,0,1-11.28,2.74c-.77,0-.77,1.15,0,1.2l4.07.26v-1.2a13.2,13.2,0,0,0-7.41,2.67.61.61,0,0,0,0,1l2.47,1.81a.6.6,0,0,0,.9-.52L418,23c-.33-2.71-.64-5.63-2.31-7.89a6,6,0,0,0-6-2.61c-.66.14-.52,1.24.16,1.18,4.53-.4,9.12-1.06,13.67-1.17,3.08-.07,7.29.36,8.41,3.79a.6.6,0,0,0,1.18-.16c0-2.29-.42-5.56-3.1-6.2-1.63-.38-3.69.23-5.31.45l-6.4.88.32,1.16,6.23-1.15-.68-.88c-1.46,2.07-5,1-7,2.14-2.81,1.56-2.2,5.53-2.2,8.2V60.9h1.2l-1-29.89-1.18.16a157.84,157.84,0,0,1,2.27,16.91c.21,2.74.36,5.49.43,8.24,0,1.2.75,6.66-1.48,6.51l.31,1.12c3.95-1.78,8.21,1,12.3.2,2.78-.58,5.29-3.44,4.19-6.36l-1.1.46a3.87,3.87,0,0,1-.82,4.67c-1.31,1.37-3.33,1.8-5.13,2.09-4.1.67-8.42,1.27-12.52.33-.75-.18-1.07,1-.32,1.15Z" transform="translate(-0.71)"/><path class="cls-2" d="M308.64,65.08h-2.39a.6.6,0,0,0-.6.6.61.61,0,0,0,.6.6h2.39a.62.62,0,0,0,.6-.6.61.61,0,0,0-.6-.6Z" transform="translate(-0.71)"/><path class="cls-2" d="M69.13,44.65a44.62,44.62,0,0,0,3.42,16.07.6.6,0,0,0,1.18-.16,33.23,33.23,0,0,0-2-15.64.6.6,0,0,0-1.18.16,41.16,41.16,0,0,0,1.84,13,.61.61,0,0,0,1.16,0A13,13,0,0,0,72.1,47.82a.61.61,0,0,0-1.12.3l.14,7.81c0,1.24.11,2.5.06,3.74s-.66,1.63-1.78,1.92c-.89.23-2.22.47-2.24,1.63,0,1.63,3,1.81,4.11,1.69.75-.09.79-1.2,0-1.2l-4.38,0c-.66,0-.84,1.07-.16,1.18A14.6,14.6,0,0,0,76,63.34a.61.61,0,0,0,.12-.94,3.52,3.52,0,0,0-3.65-.89.61.61,0,0,0-.44.58,4.18,4.18,0,0,0,1.47,3.11.6.6,0,0,0,.84,0,2.07,2.07,0,0,0-.41-3.4c-1.75-.72-2.26,2.58-2.06,3.65a.59.59,0,0,0,.57.44l19.12-1.24a.61.61,0,0,0,.3-1.12,5,5,0,0,0-5.25.06.6.6,0,0,0,.14,1.09,6.56,6.56,0,0,0,4.35-.1.63.63,0,0,0,.44-.58,7.35,7.35,0,0,0-1.31-4.49l-.09.73L91.62,59a.61.61,0,0,0-.42-1,1.84,1.84,0,0,0-.85,3.32c.63.46,1.23-.58.61-1-.33-.23-.22-1,.24-1.09l-.43-1-1.53,1.28a.61.61,0,0,0-.1.73A6.26,6.26,0,0,1,90.29,64l.44-.58a5.56,5.56,0,0,1-3.71.11l.14,1.09a3.8,3.8,0,0,1,4-.06l.3-1.11L72.39,64.69l.58.44a2.53,2.53,0,0,1,.87-2.43l-.58.16a.87.87,0,0,1,.19,1.5h.84a3.07,3.07,0,0,1-1.11-2.27l-.44.58a2.32,2.32,0,0,1,2.48.58l.12-.94a13.24,13.24,0,0,1-8.29,1.38l-.16,1.18,4.38,0v-1.2c-.31,0-2.92,0-2.82-.57,0-.2,1.48-.44,1.65-.49a2.72,2.72,0,0,0,2.19-2c.4-1.78,0-3.87,0-5.68l-.12-6.84-1.12.31a11.77,11.77,0,0,1,1.32,9.28h1.16a40.3,40.3,0,0,1-1.8-12.63l-1.18.16a32.41,32.41,0,0,1,2,15.32l1.18-.16a43.53,43.53,0,0,1-3.38-15.75.6.6,0,0,0-1.2,0Z" transform="translate(-0.71)"/><path class="cls-2" d="M110.76,22.67l1.79-2.45a.61.61,0,0,0,0-.61.65.65,0,0,0-.52-.3,2.4,2.4,0,0,0-2.28,1.42,2.51,2.51,0,0,0,.25,2.8.61.61,0,0,0,.85,0,5.9,5.9,0,0,0,1.65-1.83,2.44,2.44,0,0,0,0-2.44,1.82,1.82,0,0,0-2.06-.92c-.83.29-.59,1.42-.06,1.88a2,2,0,0,0,1.67.45,1.39,1.39,0,0,0,.74-.38,1,1,0,0,0,.26-1.14,2,2,0,0,0-1.81-.81,2.3,2.3,0,0,0-1.75,1,1.57,1.57,0,0,0,.43,2.19,1.66,1.66,0,0,0,2.18-.12.61.61,0,0,0,.1-.72,1.58,1.58,0,0,0-1.93-.6,1.91,1.91,0,0,0-.89.67,1.45,1.45,0,0,0-.23,1.13.59.59,0,0,0,.73.41.6.6,0,0,0,.42-.73c0,.17,0,0,0,0,0,.15,0,0,0,0s-.06.06,0,0,.13-.16,0,0l.08-.09.06-.05c-.07.05-.08.05,0,0l.1-.07.08,0h0l.14,0s.19,0,0,0h.16c.06,0,.15.05,0,0l.15,0c-.15,0,0,0,0,0s0,0,0,0l.06.06s0,0,0,0l0,.07.1-.73s-.17.13,0,.06c0,0-.19.08,0,0l-.16.05c.09,0,.07,0,0,0s-.21,0-.06,0l-.17-.05c-.11,0,.09.06,0,0a.57.57,0,0,0-.13-.08s0,0,0,0a.18.18,0,0,1-.07-.05s-.14-.18-.05,0a.41.41,0,0,0-.07-.11c0-.06,0-.05,0,0l0-.08s0-.05,0-.08,0,.1,0,0a.28.28,0,0,1,0-.09c0,.07,0,.09,0,0a.38.38,0,0,0,0-.15c0,.15,0,0,0-.05s.14-.17,0-.06l.09-.09s.18-.14.05-.05l.15-.1a.8.8,0,0,1,.16-.08h0l.17-.05s.23,0,.06,0h.37l.17.05c.13,0-.1-.06,0,0l.15.09s0,0,0,0l.07.06s.14.17,0,.05l-.06-.46a.29.29,0,0,1,0,.09c0,.13,0,0,0,0l0,.08c0,.1,0-.05,0,0l-.06,0s.14-.07,0,0l-.06,0c-.07.06.12,0,0,0a.57.57,0,0,0-.14,0c-.06,0,.14,0,0,0h-.09s-.22,0-.11,0-.08,0-.12,0-.13,0-.15-.05.1.05,0,0l-.08,0-.07,0c-.11-.07,0,0,0,0a1.1,1.1,0,0,1-.12-.11c-.07-.07,0,.08,0,0a.16.16,0,0,0,0-.07c0-.07,0,.05,0,.05l0-.09c0-.08,0,0,0,.07v-.09c0-.05,0,.13,0,0a.61.61,0,0,1,0-.11l-.42.42.15-.05c.11,0-.08,0,0,0s.17,0,0,0l.12,0s0,0,0,0l.07,0,.11.06c.11.07,0-.05,0,0l.12.11,0,.05.09.14a.75.75,0,0,1,.07.12s0,0,0,0l0,.08a1.67,1.67,0,0,1,.08.3c0-.13,0,.05,0,.06a1,1,0,0,1,0,.17c0-.12,0,0,0,.08a.83.83,0,0,1,0,.15.85.85,0,0,1-.09.24,2.59,2.59,0,0,1-.37.56,8.19,8.19,0,0,1-1.09,1h.85c-.1-.12.06.1,0,0l-.06-.1-.06-.12c0-.05,0,.1,0,0a2.17,2.17,0,0,1-.07-.24c0-.08,0-.07,0,0a.57.57,0,0,0,0-.13c0-.09,0-.17,0-.26s0,.12,0,0,0-.09,0-.13a1.83,1.83,0,0,1,.08-.25c0-.06,0-.08,0,0l.06-.13.12-.2A.44.44,0,0,1,111,21c-.08.11,0,0,0,0a1.21,1.21,0,0,1,.16-.16l.1-.09c-.08.06,0,0,0,0a1,1,0,0,1,.2-.11c.12-.07-.12,0,0,0l.1,0,.11,0c.13,0-.11,0,0,0a2.43,2.43,0,0,1,.27,0l-.52-.9-1.79,2.46a.61.61,0,0,0,.22.82.62.62,0,0,0,.82-.22Z" transform="translate(-0.71)"/><path class="cls-2" d="M109.27,22.31a2.82,2.82,0,0,0,1.14,3.74.62.62,0,0,0,.73-.09c1.15-1,2.42-2.33,2.24-4a2.7,2.7,0,0,0-1-1.9,1.78,1.78,0,0,0-2-.13,2,2,0,0,0-1,1.66,1.31,1.31,0,0,0,.08.48,1.11,1.11,0,0,0,.12.27.35.35,0,0,0,0,.08c.11.11.13.15.07.11s0,0,0,0a1.73,1.73,0,0,0,.59.64,2.39,2.39,0,0,0,3-1,2.15,2.15,0,0,0-1-3.09,3.26,3.26,0,0,0-3.59.6,4.78,4.78,0,0,0-1,4.37,3.12,3.12,0,0,0,.41,1.19,2,2,0,0,0,.85.58,2.68,2.68,0,0,0,1.79,0,3.1,3.1,0,0,0,1.51-1.16,2.19,2.19,0,0,0,.35-.85,1.14,1.14,0,0,0-.24-1.12A2.36,2.36,0,0,0,109,23a2,2,0,0,0-.42.87c0,.29.08.69.42.74a3.5,3.5,0,0,0,2.6-.62,2.68,2.68,0,0,0,1.19-2.31A1.8,1.8,0,0,0,111.56,20a2.54,2.54,0,0,0-1.91.16,1.52,1.52,0,0,0-.81,1.85.62.62,0,0,0,.74.42.6.6,0,0,0,.42-.74.75.75,0,0,1,0-.16c0-.06,0,.05,0,.06v-.09c0-.09,0-.08,0,0,0-.08.06-.15,0,0l.07-.12c0-.05,0,.05,0,.05l0-.06.09-.08c-.1.09,0,0,0,0l.14-.07s0,0,0,0l.08,0,.31-.07c-.12,0,0,0,0,0h.3c.11,0,0,0,0,0l.09,0,.15,0s.18.08,0,0l.11.06c.05,0,.14.12.05,0l.11.1,0,0a.18.18,0,0,1,0,.07c0,.05.06.11,0,0a1.21,1.21,0,0,1,0,.18.3.3,0,0,1,0,.14,1.77,1.77,0,0,1,0,.23c0-.08,0,.07,0,.09s-.07.22,0,.16a1.71,1.71,0,0,1-.5.66,2.54,2.54,0,0,1-.81.44l-.27.07-.15,0-.27,0h-.1s-.19,0-.11,0l.42.73a1,1,0,0,1,.82-.81l.14,0h.42s.23.08.12,0l.14.08.09.06h0a.8.8,0,0,1,.15.17l-.17-.43c0,.1,0,.2,0,.3,0-.06,0,0,0,0s0,.09,0,.14a.69.69,0,0,1-.05.13c0-.06,0,0,0,0s-.09.14-.13.22-.08.1,0,0l-.09.11-.19.18,0,0-.1.06c-.08.06-.17.1-.25.15l-.06,0c.06,0-.08,0-.1,0l-.25.07-.14,0h0a2.62,2.62,0,0,1-.28,0h-.11c.12,0,0,0,0,0l-.24-.07c.1,0,0,0,0,0l-.12-.07s-.07-.05,0,0L109,24.5l.15.27c-.51-1.35-.72-3.27.5-4.32.08-.06-.06.05,0,0l.1-.07.21-.12s.18-.08.1-.05a1.52,1.52,0,0,1,.28-.09l.21-.05h.14a2.8,2.8,0,0,1,.5,0l.13,0,.19.06.11,0h0a1.19,1.19,0,0,1,.22.12s.19.13.11.06.11.1.16.16l.07.08h0a1,1,0,0,1,.13.23c.06.1,0,0,0,0a.42.42,0,0,1,0,.1s0,.07,0,.11h0v.2c0-.13,0,0,0,.08a.29.29,0,0,1,0,.1c0-.11,0,0,0,0a1.62,1.62,0,0,1-.1.18l-.06.08h0l-.17.17-.08.07c-.07.06.08-.05,0,0l-.16.1-.18.1h0l-.12,0-.19.05c-.15,0,.06,0-.08,0h-.17c-.11,0,0,0,0,0l-.14,0c-.08,0,.07.05,0,0l-.07-.05c-.07,0,.07.07,0,0l-.06-.07c-.06-.06,0,.08,0,0l-.11-.21c-.08-.14-.07-.06-.13-.2,0,.12,0-.12,0,0s0,0,0-.06,0,.09,0,0,.08-.24,0-.16a.79.79,0,0,1,.22-.31l.09-.07s.23-.13.15-.1a.86.86,0,0,1,.23-.06c-.11,0,.1,0,.13,0-.13,0,.12,0,0,0a1.16,1.16,0,0,1,.22.13c-.06,0,0,0,0,0l.14.13a.68.68,0,0,1,.09.14,1.37,1.37,0,0,1,.19.47,1.86,1.86,0,0,1,0,1.07,5.48,5.48,0,0,1-1.81,2.27L111,25a1.48,1.48,0,0,1-.77-.91,1.55,1.55,0,0,1,0-1.2c.36-.68-.68-1.29-1-.6Z" transform="translate(-0.71)"/><path class="cls-2" d="M104.37,37.75a12.11,12.11,0,0,0,3.12-2.39c.28-.31.85-1.36,1.21-1.54.6-.3,1.15.64,1.36,1a12.83,12.83,0,0,1,.87,4.52c.18,1.68.32,3.37.43,5.06A125.35,125.35,0,0,1,111,64.77a.6.6,0,0,0,1,.42c4-4.83,5.29-11.1,6.37-17.14.14-.75-1-1.08-1.16-.32-1,5.8-2.16,12-6.06,16.61l1,.43a124.28,124.28,0,0,0,.1-23.7c-.22-2.37,0-6.43-2.21-8.07a1.76,1.76,0,0,0-2.21-.13c-.68.61-1.12,1.56-1.81,2.21a11.27,11.27,0,0,1-2.3,1.63c-.68.37-.08,1.41.6,1Z" transform="translate(-0.71)"/><path class="cls-2" d="M134.2,66.28l2.13-3.49-1-.6a2.12,2.12,0,0,1-1.52,1.13l.76.58a147,147,0,0,1-.31-15H133l.09,10a.6.6,0,0,0,1.11.3,15.62,15.62,0,0,0,2.44-6.52l-1.18-.16a14.06,14.06,0,0,1-.89,4.66l1.18.16a86.43,86.43,0,0,1,2.51-20.57l-1.18-.16a39.67,39.67,0,0,1-2.73,13.26l1.18.16a30.34,30.34,0,0,1,.94-6.9l-1.18-.16a18.61,18.61,0,0,1-1.91,7.32l1.12.3a75.68,75.68,0,0,1,2.89-20.06l-1.18-.16a19.88,19.88,0,0,1-.95,8l1.18.16a37,37,0,0,1,2.11-10.91l-1.18-.16a19.2,19.2,0,0,1-.87,8.21l1.16.32.63-4.19a13.72,13.72,0,0,0,.27-1.8,15.55,15.55,0,0,0-.22-2,51.61,51.61,0,0,1-.11-8.34c.05-.78-1.13-.76-1.2,0a8.73,8.73,0,0,1-1.28,3.77l1.1.47,2.39-9.32-1.18-.16L137.76,20c0,.66,1.06.83,1.18.16l1.5-8.08-1.15-.32-2.06,11.75,1.18.16A37.74,37.74,0,0,1,140,12.12L138.84,12l-.24,2.4c-.07.77,1.13.76,1.2,0L140,12c.06-.69-1-.78-1.18-.15a39.05,39.05,0,0,0-1.65,11.87c0,.65,1.06.85,1.18.16l2.05-11.75c.14-.75-1-1.08-1.15-.32l-1.5,8.08L139,20l.32-5.62a.6.6,0,0,0-1.18-.16l-2.39,9.32a.6.6,0,0,0,1.09.46,10.19,10.19,0,0,0,1.45-4.38h-1.2a51.42,51.42,0,0,0,.07,7.85,17.27,17.27,0,0,1,0,4.25l-.6,3.94a.6.6,0,0,0,1.16.32,20.06,20.06,0,0,0,.91-8.53.6.6,0,0,0-1.18-.16,38.39,38.39,0,0,0-2.15,11.23c0,.7,1,.78,1.18.16a20.76,20.76,0,0,0,1-8.35.6.6,0,0,0-1.17-.16,76.87,76.87,0,0,0-2.94,20.38.6.6,0,0,0,1.11.31,20.12,20.12,0,0,0,2.08-7.93.6.6,0,0,0-1.18-.16,32,32,0,0,0-1,7.22c0,.72.94.75,1.18.16a40.8,40.8,0,0,0,2.77-13.58.6.6,0,0,0-1.17-.16,87.59,87.59,0,0,0-2.56,20.89.6.6,0,0,0,1.18.16,14.94,14.94,0,0,0,.93-5c0-.66-1.09-.85-1.18-.16a14.9,14.9,0,0,1-2.31,6.24l1.12.3-.09-10a.6.6,0,0,0-1.2,0,147,147,0,0,0,.31,15,.62.62,0,0,0,.76.58,3.27,3.27,0,0,0,2.24-1.69.6.6,0,0,0-1-.6l-2.13,3.48c-.4.66.64,1.26,1,.61Z" transform="translate(-0.71)"/><path class="cls-2" d="M143.64,13c.76-.63,1.73.9,2,1.4a21.31,21.31,0,0,1,1.09,3.15q.9,2.81,1.68,5.66Q150,29,151,35q1.06,6.1,1.53,12.29c.29,3.71.16,7.45.45,11.16.21,2.67.93,5.6,3.66,6.69.72.29,1-.87.32-1.15-3.07-1.23-2.83-5.73-2.86-8.43-.05-4.26-.31-8.52-.78-12.75a130.35,130.35,0,0,0-5.17-24.65c-.53-1.7-2.27-8.55-5.36-6-.6.5.25,1.34.84.85Z" transform="translate(-0.71)"/><path class="cls-2" d="M183.64,60.67a2.1,2.1,0,0,0,3-.69c.91-1.41.48-3.57.35-5.12-.34-4-1-8.07-1.77-12.07-1.55-8.44-3.31-17-2-25.63l-1.09.14a206.87,206.87,0,0,1,13.19,37.11.6.6,0,0,0,1.16-.32A208.27,208.27,0,0,0,183.16,16.7a.6.6,0,0,0-1.09.14c-1.12,7.11-.21,14.23,1,21.25.65,3.66,1.38,7.3,1.94,11,.29,1.85.53,3.71.69,5.57.06.75.64,6.59-1.5,5-.62-.46-1.22.58-.6,1Z" transform="translate(-0.71)"/><path class="cls-2" d="M201.17,52.33A125.87,125.87,0,0,0,210,23.52c.14-.76-1-1.08-1.15-.32a125.26,125.26,0,0,1-8.66,28.52c-.31.7.72,1.32,1,.61Z" transform="translate(-0.71)"/><path class="cls-2" d="M210.61,21.85a195.71,195.71,0,0,1,3.08,36.72.6.6,0,0,0,1.2,0,197.38,197.38,0,0,0-3.12-37c-.14-.76-1.29-.44-1.16.32Z" transform="translate(-0.71)"/><path class="cls-2" d="M228.63,7.36a1.34,1.34,0,0,1,1.14-.9h.39a2,2,0,0,1,.44,0,2.86,2.86,0,0,1,.89.32,2.21,2.21,0,0,1,1.13,1.36,3.79,3.79,0,0,1-.47,2.79,7,7,0,0,1-2.42,2.45c-.65.41,0,1.45.61,1,2.12-1.33,4-3.72,3.49-6.36a3.77,3.77,0,0,0-4.1-2.82,2.58,2.58,0,0,0-2.25,1.78c-.25.73.91,1,1.15.31Z" transform="translate(-0.71)"/><path class="cls-2" d="M240.33,13.81a60.94,60.94,0,0,0-5.62,18.54c-.33,2.63-.19,5.46,1.78,7.45,1.77,1.79,4.3,2.42,6.51,3.44,4.31,2,7.05,5.95,6.48,10.79a15.14,15.14,0,0,1-7.07,10.68c-1.49.92-3.5,1.93-5.31,1.58-2.38-.46-2.09-3.51-1.78-5.3l-1.18-.15c.1,1.26,1.3,2,2.16.84a14.84,14.84,0,0,0,2.45-5.59l-1.16-.32-1,4.1c-.13.53.61,1.1,1,.59a8.61,8.61,0,0,0,1.54-7.66.61.61,0,0,0-1.1-.15l-1.86,3.25,1.1.46,1.07-3.75a.61.61,0,0,0-.88-.68c-5.24,2.35-2.35,9.18.31,12.43a.61.61,0,0,0,.94-.12c2-2.77,4.36-10.49-.87-11.21-4.35-.6-3.28,6.48-2.54,8.74a10.43,10.43,0,0,0,4.42,6,.6.6,0,0,0,.6-1,9.5,9.5,0,0,1-4-5.75c-.51-1.75-1-4.2-.09-5.92a1.36,1.36,0,0,1,1.54-.83,2.3,2.3,0,0,1,2,2.21,11.71,11.71,0,0,1-2.08,7.19l.95-.12c-2.21-2.69-5-8.57-.56-10.54l-.88-.68L236.15,56a.6.6,0,0,0,1.1.46l1.86-3.24-1.1-.14a7.33,7.33,0,0,1-1.23,6.49l1,.58,1-4.1c.17-.75-1-1.07-1.16-.32a19.93,19.93,0,0,1-.85,2.72,10,10,0,0,1-.61,1.28c-.07.13-.79,1.06-.79,1.07-.05-.63-1.06-.88-1.18-.16-.32,1.84-.58,4.22.79,5.73a4.21,4.21,0,0,0,4,1c4.11-.74,7.77-4.12,9.8-7.62,2.19-3.78,2.84-8.58.65-12.51a12.1,12.1,0,0,0-5.15-4.79c-2.47-1.27-5.76-1.82-7.46-4.21-1.13-1.6-1.13-3.66-.92-5.53a48.74,48.74,0,0,1,1.23-6.46,62.71,62.71,0,0,1,4.28-11.89c.33-.7-.7-1.3-1-.61Z" transform="translate(-0.71)"/><path class="cls-2" d="M240.59,14.47c2.79-4.12,8.08-7.59,13.23-6.05,4.3,1.28,7.45,6.26,5.84,10.63-.27.72.89,1,1.16.31,1.81-4.91-1.69-10.43-6.43-12-5.73-1.91-11.72,1.91-14.84,6.53-.43.64.61,1.24,1,.6Z" transform="translate(-0.71)"/><path class="cls-2" d="M308,14.31A8.64,8.64,0,0,0,297.8,18c-1.28,2.18-1.35,4.84-1.56,7.29-.24,2.77-.45,5.54-.55,8.32a60.41,60.41,0,0,0,1.13,15.54,34.12,34.12,0,0,0,2.45,7.15c1,2.07,2.22,4.44,4.09,5.85,3.55,2.68,8.8-.34,8.87-4.62a.6.6,0,0,0-1.2,0,4.62,4.62,0,0,1-3.13,4.18c-2.1.78-3.87-.23-5.16-1.9a29.1,29.1,0,0,1-5-12,58.09,58.09,0,0,1-.92-13c0-2.23.19-4.46.35-6.68a56.77,56.77,0,0,1,.69-6.9,7.45,7.45,0,0,1,9.82-5.8c.72.28,1-.88.32-1.15Z" transform="translate(-0.71)"/><path class="cls-2" d="M330.82,64.71a12.38,12.38,0,0,0,3.76-9.66c-.05-.77-1.25-.78-1.2,0A11.2,11.2,0,0,1,330,63.86c-.56.53.29,1.38.85.85Z" transform="translate(-0.71)"/><path class="cls-2" d="M335.74,43.78a222.49,222.49,0,0,0,4.42-22.18c.12-.75-1-1.08-1.15-.32q-1.67,11.2-4.42,22.18c-.19.75,1,1.07,1.15.32Z" transform="translate(-0.71)"/><path class="cls-2" d="M340.43,22.33a327.73,327.73,0,0,1,2,35.16.6.6,0,0,0,1.2,0,327.73,327.73,0,0,0-2-35.16c-.09-.76-1.29-.77-1.2,0Z" transform="translate(-0.71)"/><path class="cls-2" d="M345.34,58.91h1.6a.6.6,0,0,0,0-1.2h-1.6a.6.6,0,0,0,0,1.2Z" transform="translate(-0.71)"/><path class="cls-2" d="M373.24,82.75c6.74-.18,7.41-10.29,8-15a126.42,126.42,0,0,0,1.05-13.47c.09-3.41-.57-8.19,2.27-10.73,1.18-1,2.92-1.71,3.14-3.47A2.14,2.14,0,0,0,386,37.44c-.77-.09-.76,1.11,0,1.2s.68,1.06.54,1.5a2.93,2.93,0,0,1-1.2,1.36,16.27,16.27,0,0,0-1.8,1.39,8.13,8.13,0,0,0-2,4.35,36.62,36.62,0,0,0-.31,5.54q0,3.63-.3,7.24A98.07,98.07,0,0,1,379,74.2c-.66,3-2.16,7.25-5.78,7.35a.6.6,0,0,0,0,1.2Z" transform="translate(-0.71)"/><path class="cls-2" d="M380.14,35.38c.22-9.36.67-20.86,9.2-26.76l-.88-.36,1.68,4.38c.27.71,1.43.4,1.16-.32l-1.68-4.38a.62.62,0,0,0-.89-.36c-8.93,6.19-9.56,17.94-9.79,27.8a.6.6,0,0,0,1.2,0Z" transform="translate(-0.71)"/><path class="cls-2" d="M421.8,57.48a41.61,41.61,0,0,1,.52-12.15c.14-.76-1-1.08-1.16-.32a42.77,42.77,0,0,0-.56,12.47c.08.76,1.28.77,1.2,0Z" transform="translate(-0.71)"/><path class="cls-2" d="M425.88,60.86a2.77,2.77,0,0,0,2.86-1.36,14.69,14.69,0,0,0,1.42-3.31c.34-.87,1.2-2.12,2.23-2.23,1.29-.14,1.13,2.47,1.11,3.22a11.36,11.36,0,0,1-1.41,5.09c-.38.68.66,1.29,1,.61A12.53,12.53,0,0,0,434.64,58a12,12,0,0,0,0-2.61,3.27,3.27,0,0,0-.82-2.09c-1-1-2.4-.45-3.32.38a5.5,5.5,0,0,0-1.26,1.68,16.93,16.93,0,0,0-.66,1.85c-.35.94-1.08,2.75-2.36,2.49-.76-.15-1.08,1-.32,1.16Z" transform="translate(-0.71)"/><path class="cls-2" d="M422.66,43.68a7.87,7.87,0,0,0,9.78-1.58c.51-.58-.34-1.43-.85-.84a6.69,6.69,0,0,1-8.32,1.39.6.6,0,0,0-.61,1Z" transform="translate(-0.71)"/><path class="cls-2" d="M419,17.05a16.05,16.05,0,0,1,8.48-3.22c.77-.05.78-1.25,0-1.2A17.26,17.26,0,0,0,418.42,16c-.61.46,0,1.5.61,1Z" transform="translate(-0.71)"/><path class="cls-2" d="M43.72,41.06a7.44,7.44,0,0,1-4.31-3.36,4.93,4.93,0,0,1,0-4.81,3,3,0,0,1,3.8-1.39c1.23.47,2.31,1.84,1.65,3.17s-2.43,2-3.46.9c-.52-.57-1.36.28-.84.85,1.3,1.44,3.57.95,4.78-.37a3.35,3.35,0,0,0-.47-4.95A4.3,4.3,0,0,0,39.47,31,5.86,5.86,0,0,0,37.8,36.9c.7,2.65,3.09,4.49,5.6,5.31.74.24,1.05-.91.32-1.15Z" transform="translate(-0.71)"/><path class="cls-2" d="M45.2,37.78a8.73,8.73,0,0,0-7.22.66,6.42,6.42,0,0,0-3,5.64,4.9,4.9,0,0,0,3.72,4.42,3.68,3.68,0,0,0,4.47-2.38,3.81,3.81,0,0,0-2-4.85c-.72-.27-1,.89-.31,1.15,1.18.45,1.49,2,1.22,3.1a2.46,2.46,0,0,1-3,1.85,3.7,3.7,0,0,1-3-3.29,5.2,5.2,0,0,1,2.18-4.46,7.48,7.48,0,0,1,6.52-.69c.74.23,1-.93.31-1.15Z" transform="translate(-0.71)"/><path class="cls-2" d="M40,39c-3.09,1.25-6.25-.92-8.14-3.25s-3.48-6-2-9c1.35-2.73,4.57-3.7,7.31-4.36,3.06-.74,8-1.31,9.4,2.43a3.27,3.27,0,0,1-1.2,3.92c-1.45.79-3.56-.92-2.8-2.5l-.68.28,1.46.56c.73.28,1-.88.32-1.16l-1.46-.56a.59.59,0,0,0-.68.28,3.16,3.16,0,0,0,1.33,4,3.11,3.11,0,0,0,4.2-.86c2.49-3.25-.34-7.13-3.75-8-2.35-.58-4.84,0-7.13.56A14.82,14.82,0,0,0,31,23.56c-3.51,2.59-3.49,7-1.6,10.62s6.45,7.74,10.9,6c.71-.28.4-1.44-.32-1.16Z" transform="translate(-0.71)"/><path class="cls-2" d="M38.57,41.08a3.93,3.93,0,0,0-3.93-2.38,5.74,5.74,0,0,0-4.63,3c-1.36,2.2-1.93,4.9-2.68,7.35s-1.84,5.21-2,7.91c-.25,4.49,3.5,7.55,7.87,6.84a13.27,13.27,0,0,0,6.43-3.45c1.68-1.47,3.35-3.29,3.69-5.58.28-1.93-.46-4.36-2.48-5a3.29,3.29,0,0,0-4.32,2.42c-.1.76,1.06,1.08,1.16.32a2.11,2.11,0,0,1,3.51-1.15c1.34,1.25,1.17,3.41.4,4.9a12.77,12.77,0,0,1-3.53,3.9,11,11,0,0,1-5.17,2.53,6.09,6.09,0,0,1-4.67-1.19,5.41,5.41,0,0,1-1.67-4.86A29.7,29.7,0,0,1,28,50.82c.57-1.86,1.1-3.73,1.71-5.58s1.45-4,3.24-4.91c1.43-.75,3.72-.61,4.42,1.07.3.7,1.46.39,1.16-.32Z" transform="translate(-0.71)"/><path class="cls-2" d="M31,34.78c-2.75-.44-5.18.86-7.46,2.24S18.8,40.11,16,39.75c-.77-.09-.76,1.11,0,1.2,2.68.34,5.11-1.05,7.32-2.39S28,35.5,30.67,35.94c.76.12,1.08-1,.32-1.16Z" transform="translate(-0.71)"/><path class="cls-2" d="M17.44,41.23l-.29,2.15H18.3l-.68-3a.6.6,0,1,0-1.15.32l.68,3a.6.6,0,0,0,1.15,0l.29-2.15a.61.61,0,0,0-.06-.46.57.57,0,0,0-.36-.28c-.28-.06-.69.09-.73.42Z" transform="translate(-0.71)"/><path class="cls-2" d="M14.08,39.29a24.7,24.7,0,0,0-13,1.34c-.58.22-.57,1.23.16,1.18l14.28-1c.77-.05.78-1.25,0-1.2l-14.28,1,.16,1.18a23.46,23.46,0,0,1,12.32-1.34c.76.12,1.08-1,.32-1.16Z" transform="translate(-0.71)"/><path class="cls-2" d="M474.51,39.41c1.43-2.83,2.92-6.08,1.58-9.24a4.89,4.89,0,0,0-2.81-2.76,7.23,7.23,0,0,0-4.61.26c-2.48.8-5.93,2-6.83,4.76-.67,2,.84,5.33,3.35,4.7s2.26-4.5,0-5.13a.6.6,0,0,0-.32,1.16c1.31.36,1.21,3-.3,2.84-.81-.06-1.34-1-1.55-1.65a2.79,2.79,0,0,1,.67-2.68c1.37-1.59,3.82-2.42,5.78-3a5.61,5.61,0,0,1,3.53-.12,3.73,3.73,0,0,1,2.13,2.33c1,2.74-.4,5.49-1.61,7.91-.35.68.68,1.29,1,.6Z" transform="translate(-0.71)"/><path class="cls-2" d="M475.13,39a32.21,32.21,0,0,0,3.15-6,19.4,19.4,0,0,0,1.69-6.5c.08-4.12-4.42-6-7.88-6.41a14.3,14.3,0,0,0-10.68,3,6.61,6.61,0,0,0-2.67,4.69,3.16,3.16,0,0,0,5.47,2.27,2.09,2.09,0,0,0-1.58-3.32.6.6,0,0,0,0,1.2.91.91,0,0,1,.59,1.45,1.44,1.44,0,0,1-1.09.48A1.91,1.91,0,0,1,460,28.29c-.45-3,3.19-5.28,5.57-6.19a13.29,13.29,0,0,1,8.45-.37,8.27,8.27,0,0,1,3.72,2.05c1.25,1.31,1.15,2.94.76,4.6a30.63,30.63,0,0,1-4.38,10c-.43.65.61,1.25,1,.61Z" transform="translate(-0.71)"/><path class="cls-2" d="M472.44,36.85c-.5,1.43.36,2.72.83,4a2.76,2.76,0,0,1,.17,1.65,2.8,2.8,0,0,1-.83,1.3,2.53,2.53,0,0,1-2.74.57,2.46,2.46,0,0,1-1.19-2.26,2.62,2.62,0,0,1,1.39-2.46.62.62,0,0,0,.42-.74.6.6,0,0,0-.74-.42,4.05,4.05,0,0,0-1.19,6.4c2.18,2.12,5.89.09,6.14-2.68a5.36,5.36,0,0,0-.63-2.56,3.47,3.47,0,0,1-.48-2.5c.26-.73-.9-1-1.15-.32Z" transform="translate(-0.71)"/><path class="cls-2" d="M498.32,38.29c-2.59,2.62-6.75,1.2-9.58-.23-3.23-1.64-6.89-3.71-10.59-2.36-.72.26-.41,1.42.32,1.15,4.18-1.51,8,1.74,11.72,3.17,2.94,1.13,6.57,1.56,9-.88.54-.55-.31-1.4-.85-.85Z" transform="translate(-0.71)"/><path class="cls-2" d="M475.18,38.17a4.41,4.41,0,0,0,5.15-1,.61.61,0,0,0-.27-1,1.75,1.75,0,0,0-1.91,2.56.6.6,0,0,0,1-.61.57.57,0,0,1-.08-.13c.06.12,0,0,0,0s0,0,0,0a.48.48,0,0,0,0-.12c0,.15,0,0,0,0a.58.58,0,0,1,.05-.14c0,.08,0,0,0,0l.08-.13s-.06.06,0,0l.11-.11c.08-.08-.08,0,0,0s.14-.08.06,0,0,0,.06,0,.13,0,0,0,.16,0,0,0l.14,0-.26-1a3.11,3.11,0,0,1-1.78,1l-.12,0s-.09,0,0,0l-.28,0a3.5,3.5,0,0,1-.56,0s0,0,0,0h-.06l-.12,0-.27-.06a2.1,2.1,0,0,1-.47-.18.61.61,0,0,0-.82.22.6.6,0,0,0,.21.82Z" transform="translate(-0.71)"/><path class="cls-2" d="M475.33,38.87c2.77.69,3.47,3.93,3.66,6.39a19.05,19.05,0,0,1-.1,4.59,5.13,5.13,0,0,1-3.26,3.93c-3.4,1.67-7.39,2.88-11.17,1.92-3.17-.8-6.65-3.4-6.54-7,.05-1.73,1.58-3.62,3.49-2.88,1.76.69.6,3.68-.87,2.94-.69-.35-1.3.69-.61,1,3.14,1.58,5.28-4.17,1.64-5.19a3.88,3.88,0,0,0-4.37,2,6.22,6.22,0,0,0,.75,6c2.66,4,7.77,5.12,12.24,4.27a20.12,20.12,0,0,0,7.58-3c1.9-1.35,2.36-3.44,2.46-5.64.16-3.69-.17-9.49-4.58-10.58-.75-.19-1.07,1-.32,1.15Z" transform="translate(-0.71)"/><path class="cls-2" d="M345.54,51.76l0,3.74c0,.79,1.11.74,1.2,0a17.31,17.31,0,0,0-.56-6.83c-.16-.53-1.07-.62-1.16,0a27.09,27.09,0,0,0,.59,11.12.6.6,0,0,0,1.18-.16l0-10.81h-1.2a27.78,27.78,0,0,0,1.69,8.61.61.61,0,0,0,1.1.14,6.27,6.27,0,0,0,.77-4.87.6.6,0,0,0-1.18.15c0,2.09-.1,4.22.05,6.31a7.34,7.34,0,0,1-1.36,5.17l1.12.3-.17-3.87c0-.77-1.24-.77-1.2,0l.17,3.87a.6.6,0,0,0,1.11.31,8,8,0,0,0,1.59-5.23c-.15-2.27-.09-4.57-.11-6.86l-1.17.16a5.07,5.07,0,0,1-.66,4l1.1.14a26.4,26.4,0,0,1-1.65-8.29.6.6,0,0,0-1.2,0l.05,10.81,1.18-.16A25.39,25.39,0,0,1,346.16,49H345a16.45,16.45,0,0,1,.52,6.51h1.2l0-3.74a.6.6,0,0,0-1.2,0Z" transform="translate(-0.71)"/><path class="cls-2" d="M364.28,80.76l2-3.27-1.09-.14.34,2.4a.59.59,0,0,0,.73.42.61.61,0,0,0,.42-.74l-.34-2.4a.59.59,0,0,0-.49-.43.6.6,0,0,0-.6.29l-2,3.27a.6.6,0,0,0,.21.82.61.61,0,0,0,.82-.22Z" transform="translate(-0.71)"/><path class="cls-2" d="M69.59,13.54v-.82a.66.66,0,0,0-.17-.42.53.53,0,0,0-.2-.13.59.59,0,0,0-.23-.05.62.62,0,0,0-.6.6v.82a.64.64,0,0,0,.18.43.62.62,0,0,0,.19.12.46.46,0,0,0,.23.05.66.66,0,0,0,.43-.17.68.68,0,0,0,.17-.43Z" transform="translate(-0.71)"/><path class="cls-2" d="M71.19,12.72V9.29H70l.12,2.56,1.12-.31a5.42,5.42,0,0,1,1.43-5.79,15.84,15.84,0,0,1,5.81-3.27c.48-.18.66-1.07,0-1.15a4.8,4.8,0,0,0-5.38,3.89l1.18.16a1.85,1.85,0,0,0-2.19-1.65A5,5,0,0,0,68.61,6,10.57,10.57,0,0,0,67,15.69a.6.6,0,0,0,1.18-.16l.07-3.94-1.18.16a50,50,0,0,1,2.11,11.62c0,.76,1.25.77,1.2,0a51,51,0,0,0-2.15-11.94.6.6,0,0,0-1.18.16L67,15.53l1.18-.16a9.38,9.38,0,0,1,.41-7,8.42,8.42,0,0,1,2-2.73C71,5.3,73,4.26,73.07,5.38c.06.62,1.05.88,1.17.16a3.62,3.62,0,0,1,3.91-3.06V1.33c-2.53,1-5.24,2.05-7,4.28a6.41,6.41,0,0,0-1,6.54c.24.55,1.14.27,1.11-.3l-.12-2.56a.6.6,0,0,0-1.2,0v3.43a.6.6,0,0,0,1.2,0Z" transform="translate(-0.71)"/><path class="cls-2" d="M71.39,67.36l23.26,0a.63.63,0,0,0,.58-.44,4.7,4.7,0,0,0-.41-4.08.62.62,0,0,0-.68-.28l-3.59,1.06a.6.6,0,0,0,.32,1.15l3.59-1-.68-.28a3.56,3.56,0,0,1,.29,3.16l.58-.44-23.26,0a.6.6,0,0,0,0,1.2Z" transform="translate(-0.71)"/><path class="cls-2" d="M210.41,13.54V23.69a.6.6,0,0,0,1.2,0V17.37a.6.6,0,0,0-1.2,0v7.34h1.2l-.06-7.42-1.18.16,1.93,10.1c.11.56,1.07.58,1.16,0a46.17,46.17,0,0,0,.4-12h-1.2l2,17.69c.07.61,1,.88,1.18.16a38.19,38.19,0,0,0,.57-10.4.6.6,0,0,0-1.2,0l.06,20.65h1.2l-.54-9.28a.6.6,0,0,0-1.18-.16,41.37,41.37,0,0,0-1.06,15.35c.09.75,1.2.79,1.2,0l-.06-10.78a.6.6,0,0,0-1.2,0V54.92a.6.6,0,0,0,1.2,0l.31-5.53-1.18.16a32.48,32.48,0,0,1,.22,10.82l1.18.16a17.56,17.56,0,0,1,.65-5.9l-1.15-.32a6.22,6.22,0,0,0,5.8,7.39l-.52-.9a2.22,2.22,0,0,1-2.64,1.2.61.61,0,0,0-.68.88,1.17,1.17,0,0,0,2.07-.28c.56-1.27-.91-2-1.9-2.22l.26,1a1.75,1.75,0,0,1,1.59-.55c.76.11,1.08-1,.32-1.16a3,3,0,0,0-2.76.86.61.61,0,0,0,.27,1,1.47,1.47,0,0,1,1.19.74l-.68.88a3.42,3.42,0,0,0,4-1.76.6.6,0,0,0-.51-.9A5,5,0,0,1,216,54.63a.6.6,0,0,0-1.15-.32,18.41,18.41,0,0,0-.7,6.22c0,.63,1.07.86,1.18.16a34.71,34.71,0,0,0-.22-11.46c-.14-.7-1.15-.49-1.18.16l-.31,5.53h1.2V38.75h-1.2l.06,10.78h1.2a40.5,40.5,0,0,1,1-15l-1.18-.16.54,9.28a.6.6,0,0,0,1.2,0L216.38,23h-1.2a37,37,0,0,1-.53,10.08l1.18.16-2-17.69c-.08-.76-1.27-.77-1.2,0a44.59,44.59,0,0,1-.36,11.71h1.16l-1.93-10.1c-.13-.67-1.19-.5-1.18.16l.06,7.42a.6.6,0,0,0,1.2,0V17.37h-1.2v6.32a.6.6,0,0,0,1.2,0V13.54a.6.6,0,0,0-1.2,0Z" transform="translate(-0.71)"/><path class="cls-2" d="M211.9,15a10.44,10.44,0,0,0-.66,5.61c.1.68,1.19.5,1.18-.16,0-2.17-.09-4.32-.18-6.49H211q1.76,13.23,2.54,26.56h1.2a14.57,14.57,0,0,1,1.48-8.27l-1.11-.31q-.22,9.66-1.31,19.25H215l-.29-8.5a.6.6,0,0,0-1.2,0l.06,7.21,1.18-.16a7.9,7.9,0,0,1,.6-4.79h-1a8.26,8.26,0,0,1,.8,4.64c-.09.77,1.11.76,1.2,0a9.23,9.23,0,0,0-1-5.24.6.6,0,0,0-1,0,9.28,9.28,0,0,0-.73,5.71c.13.67,1.19.51,1.18-.16l-.06-7.21h-1.2l.29,8.5a.6.6,0,0,0,1.2,0q1.08-9.6,1.31-19.25a.61.61,0,0,0-1.12-.3,15.6,15.6,0,0,0-1.65,8.88c.08.75,1.24.78,1.2,0q-.78-13.32-2.54-26.56c-.1-.74-1.24-.79-1.2,0,.09,2.17.17,4.32.18,6.49l1.18-.16a9.38,9.38,0,0,1,.65-5c.3-.72-.86-1-1.15-.32Z" transform="translate(-0.71)"/><path class="cls-2" d="M243.68,14c2.36-3.9,6.87-7.33,11.6-5.38a5.57,5.57,0,0,1,3.57,4.76,4.94,4.94,0,0,1-2.47,4.81l.82.82a6.12,6.12,0,0,0-1-6.65,6.28,6.28,0,0,0-.91-.8,3.65,3.65,0,0,1-.49-.39,1,1,0,0,1-.26-.36.2.2,0,0,0,0-.26l.31-1.12a13.24,13.24,0,0,0-10.14,4.35c-.52.57.33,1.42.85.85a12.07,12.07,0,0,1,9.29-4,.61.61,0,0,0,.3-1.12,1.26,1.26,0,0,0-1.82,1c-.22,1,.64,1.62,1.31,2.14a4.91,4.91,0,0,1,1.5,5.8.61.61,0,0,0,.82.82c3.3-1.65,4-6.43,1.88-9.28-2.51-3.41-7.35-3.81-10.89-1.9a14.55,14.55,0,0,0-5.33,5.35.6.6,0,0,0,1,.61Z" transform="translate(-0.71)"/><path class="cls-2" d="M239.9,34.82a4,4,0,0,0,1.94,3.76.6.6,0,0,0,.6-1l-.19-.12-.08-.05c-.12-.09.06.05,0,0s-.22-.19-.33-.3l-.15-.18c-.08-.08,0,0,0,0l-.07-.09c-.08-.13-.16-.26-.23-.39l-.09-.2c0,.08,0,.05,0,0s0-.07,0-.11a3.17,3.17,0,0,1-.12-.44.52.52,0,0,0,0-.11c0-.09,0,0,0,0s0-.19,0-.24a2.57,2.57,0,0,1,0-.48.61.61,0,0,0-.6-.6.62.62,0,0,0-.6.6Z" transform="translate(-0.71)"/><path class="cls-2" d="M485.88,38.85a7.16,7.16,0,0,0,3.26-5.28l-1.18.16a3.31,3.31,0,0,1,.14,1.65.67.67,0,0,1-.13.3c-.05.08,0,0,0,0a1.14,1.14,0,0,1-.11.11c-.09.09,0,0-.06.05l-.16.09c.08,0,0,0,0,0l-.11,0h-.12c.05,0,0,0,0,0l-.05,0h0s0,0,0,0a.34.34,0,0,1-.06-.06h0c0,.07,0,.08,0,0s0,0,0,.05,0-.17,0,0a.43.43,0,0,0,0-.11c0-.07,0-.07,0,0a.75.75,0,0,0,.07-.12c0,.08,0,0,0,0s.11-.08,0,0,0,0,.05,0-.09,0-.05,0h-.07c.13,0-.13,0,0,0s-.17-.12-.09,0a.6.6,0,0,0,.85-.85c-1-1-2.43.58-1.9,1.66a1.42,1.42,0,0,0,1.6.67A2,2,0,0,0,489.15,36a4.2,4.2,0,0,0,0-2.6.59.59,0,0,0-.66-.43.61.61,0,0,0-.52.59,6,6,0,0,1-2.66,4.24c-.66.41,0,1.45.6,1Z" transform="translate(-0.71)"/><path class="cls-2" d="M495.14,40.15a3.13,3.13,0,0,0-3.35,1.42,3,3,0,0,0,.47,3.66,3,3,0,0,0,2,.94.6.6,0,0,0,.51-.9l-1.9-4a.6.6,0,0,0-.82-.21.61.61,0,0,0-.21.82l1.9,4,.52-.91h-.17l-.19-.05a1.14,1.14,0,0,1-.34-.15,2.11,2.11,0,0,1-.57-.49,1.91,1.91,0,0,1-.38-.75,2,2,0,0,1-.05-.71,2.34,2.34,0,0,1,.12-.4c0,.06.07-.13.08-.15l.1-.17a2.74,2.74,0,0,1,.52-.5,1.88,1.88,0,0,1,.74-.31,1.57,1.57,0,0,1,.68,0,.6.6,0,0,0,.32-1.16Z" transform="translate(-0.71)"/><path class="cls-2" d="M476.45,36.85a2.5,2.5,0,0,0,2.55-.3,2.6,2.6,0,0,0,1.13-2.35l-1.18.16a1.29,1.29,0,0,0,1.56.8,1.26,1.26,0,0,0,1-1.42,1.27,1.27,0,0,0-1.34-1,1.29,1.29,0,0,0-1.29,1.16c0,.41.42.65.76.58l2.79-.63c.76-.17.44-1.33-.32-1.16l-2.79.63.76.58c0,.07,0,.07,0,0a.12.12,0,0,1-.06.1l.07-.07,0,0c.12-.08,0,0,.06,0s.07,0,0,0h.1c.11,0-.06,0,0,0l.1,0c-.07,0-.07,0,0,0s0-.06,0,0-.05-.06,0,0,0-.07,0,0,0-.07,0,0,0-.08,0,0,0,0,0,0,0,.06,0,0-.05,0,0,0l-.09,0c.1,0,0,0-.05,0s-.06,0,0,0h-.1c-.11,0,.06,0,0,0s-.07,0,0,0-.05,0,0,0-.05-.05,0,0,0-.06,0,0a.6.6,0,0,0-1.18.16,1.35,1.35,0,0,1-.07.71,1.73,1.73,0,0,1-.5.63,1.33,1.33,0,0,1-1.31.27.62.62,0,0,0-.82.22.6.6,0,0,0,.22.82Z" transform="translate(-0.71)"/><path class="cls-2" d="M237,63.05l-.8-.81a.6.6,0,0,0-.42-.18.46.46,0,0,0-.23,0,.53.53,0,0,0-.2.13.59.59,0,0,0-.17.42.63.63,0,0,0,.17.42l.8.82a.62.62,0,0,0,.43.18.59.59,0,0,0,.23,0,.5.5,0,0,0,.19-.13.6.6,0,0,0,.18-.42.69.69,0,0,0-.18-.43Z" transform="translate(-0.71)"/><path class="cls-2" d="M246.15,64a2.31,2.31,0,0,0,1.7-.94,4.87,4.87,0,0,1,.75-.82.94.94,0,0,1,.35-.2l.15-.18c-.34.06.52.76.37.3l-.42.74a2.75,2.75,0,0,0,1.44-1.55c.12-.23.42-.45.51-.65v-.26c-.13.22.05.29.55.22a7.79,7.79,0,0,0,0-1.35,8.09,8.09,0,0,1,2.33-5.22.6.6,0,0,0-.12-.94,1.88,1.88,0,0,0-2.24,0l.88.36-.72-4.84c-.12-.76-1.27-.44-1.16.32l.73,4.84a.59.59,0,0,0,.88.35.78.78,0,0,1,1,0l-.12-.94a9.13,9.13,0,0,0-2.41,4.22,9.3,9.3,0,0,0-.3,2.52c0,.55,0,1.43.65,1.63,1,.3,1.67-1.35.86-2a1.37,1.37,0,0,0-1.7.21,3,3,0,0,0-.7,1c-.16.31-.32.78-.68.92a.61.61,0,0,0-.42.73c.46,1.44,2.39.2,1.91-1a1.36,1.36,0,0,0-1.85-.53,3,3,0,0,0-1,.81c-.32.37-.65,1-1.19,1-.77,0-.78,1.24,0,1.2Z" transform="translate(-0.71)"/><path class="cls-2" d="M148.93,121.78c-1.76.39-3.06-3.13-3.72-4.28l-2.94-5.19c-1.84-3.23-3.91-6.41-5.5-9.76-.88-1.85-1.11-3.83.31-5.47.57-.66,4-3.39,4.85-2.08.28.42-.14,1.4-.28,1.84-.28.9-.59,1.8-.9,2.69-.61,1.79-1.27,3.57-2,5.34-1.41,3.61-3,7.13-4.67,10.63a33,33,0,0,0-1.78,4.26c-.33,1.06-.5,2.28.69,2.85a4.11,4.11,0,0,0,3-.17,17.2,17.2,0,0,0,4.17-2,29.12,29.12,0,0,0,6.18-5.81c1-1.22,2-2.49,2.9-3.77.69-1,1.63-2.08,1.47-3.34a1.68,1.68,0,0,0-2.1-1.43c-1.52.34-1.83,1.95-1.91,3.27,0,.77,1.16.77,1.2,0,0-.57,0-1.39.5-1.82.64-.6,1.23-.21,1.08.54a4.16,4.16,0,0,1-.83,1.55c-.94,1.32-1.9,2.61-2.92,3.86a28.47,28.47,0,0,1-6.33,6,16.35,16.35,0,0,1-3.73,1.83c-.94.31-2.39.91-2.36-.79a9.29,9.29,0,0,1,1-2.77c1.39-3.17,3-6.27,4.3-9.47s2.56-6.46,3.66-9.75c.5-1.51,1.83-5.47-1.29-5a8.26,8.26,0,0,0-5.72,4c-1.41,2.82.31,5.64,1.7,8.07l6.14,10.81a41.2,41.2,0,0,0,3.06,5.22,2.9,2.9,0,0,0,3,1.34c.75-.16.43-1.32-.32-1.16Z" transform="translate(-0.71)"/><path class="cls-2" d="M149.87,110.56a30.74,30.74,0,0,1-11.73,10.5c-.68.36-.08,1.39.61,1a31.94,31.94,0,0,0,12.16-10.94c.42-.65-.62-1.25-1-.6Z" transform="translate(-0.71)"/><path class="cls-2" d="M134.24,113.52a.6.6,0,0,0,0-1.2.6.6,0,0,0,0,1.2Z" transform="translate(-0.71)"/><path class="cls-2" d="M134.81,113.07a16.4,16.4,0,0,1,3-7.16.6.6,0,1,0-1-.6,16.94,16.94,0,0,0-3.16,7.45.6.6,0,0,0,1.16.31Z" transform="translate(-0.71)"/><path class="cls-2" d="M138,94c-2.76-.81-4.9,2.3-5.46,4.6a5.06,5.06,0,0,0,3,6.12c.73.25,1.05-.91.32-1.16a3.83,3.83,0,0,1-2.12-4.64c.39-1.62,1.91-4.37,4-3.76A.6.6,0,0,0,138,94Z" transform="translate(-0.71)"/><path class="cls-2" d="M188.33,95c-2.76-1.08-4.26,3-4.91,4.88a24.55,24.55,0,0,0-1.36,10,18.37,18.37,0,0,0,1,4.68,6.27,6.27,0,0,0,2.2,3.34c2.35,1.42,4.59-1.16,5.15-3.25a.6.6,0,0,0-1-.58,7.07,7.07,0,0,1-2.16,1.8c-1.38.63-2.2-.41-2.61-1.61a25.48,25.48,0,0,1-1.17-6.3c-.26-3.36-.49-9.52,3.77-10.56a.6.6,0,0,0,.44-.58,3.48,3.48,0,0,0-2.61-3.44c-.75-.17-1.07,1-.31,1.15a2.28,2.28,0,0,1,1.72,2.29l.44-.58c-5.47,1.34-5,9.23-4.47,13.45a30.25,30.25,0,0,0,.82,4.2,5.34,5.34,0,0,0,1.47,2.78c1.93,1.62,4.2-.31,5.52-1.76l-1-.58a3.82,3.82,0,0,1-1.9,2.57c-1.3.61-2.17-.53-2.69-1.58a16.26,16.26,0,0,1-1.49-7,23.8,23.8,0,0,1,1-6.86c.41-1.42,1.64-6.21,3.85-5.35.72.28,1-.88.32-1.16Z" transform="translate(-0.71)"/><path class="cls-2" d="M182.19,107.33a3.21,3.21,0,0,0-4.24.3c-1.42,1.21-1.8,3.24-2,5s-.37,3.62.32,5.21a2.8,2.8,0,0,0,3.95,1.42c2-1,2.54-3.4,3-5.36.17-.75-1-1.07-1.16-.32-.36,1.65-.78,4-2.55,4.7s-2.43-1.45-2.47-2.84a13.49,13.49,0,0,1,.75-5.57c.52-1.2,2.19-2.82,3.54-1.7.59.48,1.45-.36.85-.85Z" transform="translate(-0.71)"/><path class="cls-2" d="M177.4,109.34a9.31,9.31,0,0,0-1,6.72,3.81,3.81,0,0,0,1.67,2.27,2.48,2.48,0,0,0,2.52-.2,2.46,2.46,0,0,0,1.08-2.67.6.6,0,0,0-1.16.32,1.32,1.32,0,0,1-1,1.54c-.82.27-1.42-.37-1.76-1-1-2-.25-4.5.67-6.32.35-.69-.69-1.29-1-.61Z" transform="translate(-0.71)"/><path class="cls-2" d="M197.4,108.86a9.19,9.19,0,0,1,3-1c.61-.09.88-1,.16-1.18-1.64-.36-3.59-.46-4.52,1.24a15.33,15.33,0,0,0-1,3c-.33,1.11-.71,2.23-1,3.36-.37,1.55-.24,4.22,1.83,4.48,1.83.24,3-2.17,3.77-3.44a12.21,12.21,0,0,0,2.12-6.32.6.6,0,0,0-1.2,0v3.58a31.57,31.57,0,0,0,0,3.37,2.27,2.27,0,0,0,1.13,2,1.41,1.41,0,0,0,1.87-.59.61.61,0,0,0-.52-.9h-1.57a.6.6,0,0,0,0,1.2h1.57l-.52-.91c-.25.51-.66-.3-.71-.53a9.76,9.76,0,0,1-.08-2.23v-5h-1.2a9.57,9.57,0,0,1-1.27,4.51c-.36.68-.76,1.34-1.18,2a8.07,8.07,0,0,1-1.34,1.78.85.85,0,0,1-1.41-.22,3.13,3.13,0,0,1-.19-2.35c.39-1.75,1-3.48,1.51-5.19a2.25,2.25,0,0,1,1.27-1.75,4.41,4.41,0,0,1,2.25.09l.16-1.17a10.9,10.9,0,0,0-3.62,1.12c-.69.35-.09,1.39.6,1Z" transform="translate(-0.71)"/><path class="cls-2" d="M214.53,113.47a7.41,7.41,0,0,1-1.43,2.42c-.4.44-1.62,1.73-2.22,1.09-.44-.48-.25-1.68-.16-2.26.18-1.08.47-2.16.7-3.23l2.91-13.22c.17-.75-1-1.07-1.15-.32l-1.94,8.82a79.2,79.2,0,0,0-1.75,8.17c-.16,1.41.19,3.93,2.22,3.38s3.32-2.77,4-4.53c.27-.73-.89-1-1.16-.32Z" transform="translate(-0.71)"/><path class="cls-2" d="M209.48,106.05a7.92,7.92,0,0,0,4.78-.79c.6-.3.18-1.34-.46-1.1l-2.61,1c-.58.21-.57,1.25.16,1.17l1.61-.16-.51-.9a19.14,19.14,0,0,0-1.12,13,.6.6,0,0,0,1.16-.32,17.89,17.89,0,0,1,1-12.08c.18-.37,0-1-.52-.91l-1.61.16.16,1.18,2.61-1-.46-1.1a6.54,6.54,0,0,1-3.86.67c-.76-.11-1.09,1-.32,1.16Z" transform="translate(-0.71)"/><path class="cls-2" d="M229.21,105.61a5.59,5.59,0,0,0-6.11.37,9.32,9.32,0,0,0-3.52,6.12,14.3,14.3,0,0,0-.16,3.81c.1,1.1.23,2.5,1.2,3.21a2.45,2.45,0,0,0,2.92-.32,8.45,8.45,0,0,0,2.22-2.84,16.72,16.72,0,0,0,1.87-8.75.6.6,0,0,0-1.2,0l-.29,4.7a11.35,11.35,0,0,0,.15,4.15,2.47,2.47,0,0,0,2.06,1.91,1.82,1.82,0,0,0,2-1.45c.16-.76-1-1.08-1.16-.32a.74.74,0,0,1-1.28.35c-.67-.58-.67-1.8-.67-2.6,0-2.24.26-4.5.4-6.74h-1.2a16,16,0,0,1-1,6.46,13.26,13.26,0,0,1-1.47,2.85c-.47.71-1.2,1.66-2.13,1.77s-1.18-1.56-1.25-2.29a13.22,13.22,0,0,1,0-3.08,9,9,0,0,1,2.42-5.38,4.57,4.57,0,0,1,5.52-.89.6.6,0,0,0,.61-1Z" transform="translate(-0.71)"/><path class="cls-2" d="M228.17,104.53l.45.56a.53.53,0,0,0,.2.13.56.56,0,0,0,.23,0,.59.59,0,0,0,.23,0,.5.5,0,0,0,.19-.13l.09-.12a.53.53,0,0,0,.09-.3l0-.16a.63.63,0,0,0-.16-.27l-.45-.56a.47.47,0,0,0-.19-.12.46.46,0,0,0-.23,0,.49.49,0,0,0-.24,0,.55.55,0,0,0-.19.12l-.09.13a.52.52,0,0,0-.08.3l0,.16a.61.61,0,0,0,.15.26Z" transform="translate(-0.71)"/><path class="cls-2" d="M244.31,114.36l-.4-1.56a.6.6,0,0,0-.74-.42c-3.9,1.22-3.42,7.68.58,8.39a5.33,5.33,0,0,0,5.36-2.7c1.5-2.7-.09-5.63-.56-8.37-.23-1.35-.26-3.28,1-4.15.79-.53,2.32-.65,2.73.43l1-.59c-1.74-1.36-4,0-4.64,1.86-.9,2.47,1.13,4.88,2.67,6.56.52.57,1.36-.28.84-.85-1.15-1.26-2.62-2.84-2.51-4.68.06-1.12,1.57-3,2.79-2,.41.33,1.24.05,1-.58-.7-1.83-3-2.13-4.5-1.14-2.09,1.34-1.9,4.28-1.39,6.38.62,2.53,1.92,5.57-.38,7.65-1.38,1.25-3.89,1.65-5-.15-1-1.53-.61-4.26,1.31-4.86l-.74-.42.41,1.56a.6.6,0,0,0,1.15-.32Z" transform="translate(-0.71)"/><path class="cls-2" d="M262.63,107.38a3.8,3.8,0,0,0-4.24-.44,6.56,6.56,0,0,0-2.91,3.59,10.79,10.79,0,0,0-.83,4.79c.12,1.38.63,2.94,2,3.56a2.42,2.42,0,0,0,3.35-1.35c.28-.72-.88-1-1.16-.32a1.32,1.32,0,0,1-2.29.1c-.93-1.17-.79-3-.51-4.39a8.31,8.31,0,0,1,1.93-4.17,2.81,2.81,0,0,1,3.83-.52c.59.5,1.44-.35.85-.85Z" transform="translate(-0.71)"/><path class="cls-2" d="M255.63,108.35a7,7,0,0,0-.61,6.76.6.6,0,0,0,.82.21.61.61,0,0,0,.22-.82,5.75,5.75,0,0,1,.61-5.54.62.62,0,0,0-.22-.83.62.62,0,0,0-.82.22Z" transform="translate(-0.71)"/><path class="cls-2" d="M267.17,107c-1-.53-1.89.8-1.33,1.66a.61.61,0,0,0,.68.27l3.2-1.26-.76-.58-.66,5.31L268,115.1a6.82,6.82,0,0,0-.16,2.46,1.59,1.59,0,0,0,2.5.83c1.15-.79,1.08-2.5,1-3.72a.6.6,0,0,0-1.18-.16c-.19.76-.84,1.69-1.75,1.53-.76-.13-1.08,1-.32,1.16a2.92,2.92,0,0,0,3.23-2.37l-1.18-.16c0,.72.27,2.44-.6,2.81s-.42-1.79-.38-2.18l1-8.17a.6.6,0,0,0-.76-.58l-3.2,1.27.67.27s0,0,0,0,0-.14-.3,0c.68.37,1.29-.67.61-1Z" transform="translate(-0.71)"/><path class="cls-2" d="M271.42,99.67a.6.6,0,0,0,0-1.2.6.6,0,0,0,0,1.2Z" transform="translate(-0.71)"/><path class="cls-2" d="M274.55,110.07a6,6,0,0,0,4-.28,3.31,3.31,0,0,0,1.62-2.58,3,3,0,0,0-.87-2.75c-1.18-.88-2.53.07-3.41.92a10.15,10.15,0,0,0-3.08,7.84c.19,2.42,1.46,5.39,4,6.09,2.82.77,5.2-1.83,5.47-4.44.06-.61-.84-.79-1.12-.3-1,1.73-3,4.2-5.21,2.85a2.72,2.72,0,0,1-1.27-2.74c.14-.84.81-2.17,1.85-1.84.73.24,1.05-.92.32-1.16-1.43-.46-2.62.71-3.11,1.95a3.92,3.92,0,0,0,.93,4.31,3.76,3.76,0,0,0,3.92.81,7.63,7.63,0,0,0,3.61-3.57l-1.12-.31a3.63,3.63,0,0,1-3.39,3.37c-1.93-.06-3.09-2.19-3.5-3.83a8.94,8.94,0,0,1,3-8.63c.37-.29,1-.68,1.39-.32a1.39,1.39,0,0,1,.36.85,2.58,2.58,0,0,1-.65,2.18c-.94.84-2.38.62-3.51.43-.75-.13-1.08,1-.32,1.15Z" transform="translate(-0.71)"/><path class="cls-2" d="M285.25,110a.47.47,0,0,1,.47-.56c.41,0,.58.39.68.73a7.64,7.64,0,0,1,0,2.9l-.74,7.48c-.05.58.89.85,1.12.31q1.33-3,2.38-6.16a29.17,29.17,0,0,1,1.9-5.41c.29-.5.76-1.21,1.42-1.19s1,.65,1.15,1.18a8.58,8.58,0,0,1-.22,4.63c-.44,1.86-.91,4.09.27,5.79a.61.61,0,0,0,1,0,34.9,34.9,0,0,0,1.86-5h-1.16a1.43,1.43,0,0,1-.72,1.61l.73.1a3.88,3.88,0,0,1-.4-2.82c.1-.88.32-1.75.37-2.64.09-1.41-.14-3.48-1.73-4-1.74-.56-2.92,1.4-3.47,2.73-.35.85-.55,1.75-.94,2.58-.31.64-.76,1.54-1.57,1.56l.6.6-.06-3a.6.6,0,0,0-1.2,0l.06,3a.61.61,0,0,0,.6.6c1.63,0,2.44-1.65,2.95-3a23,23,0,0,1,1-2.55c.29-.53.86-1.56,1.61-1.42s.89,1,1,1.62a8.2,8.2,0,0,1-.15,2.52c-.29,1.7-.58,3.58.55,5a.62.62,0,0,0,.73.09,2.67,2.67,0,0,0,1.27-3,.61.61,0,0,0-1.16,0,32,32,0,0,1-1.74,4.74h1c-1.2-1.72-.31-4.08.1-5.93a7.43,7.43,0,0,0-.31-4.88,2.25,2.25,0,0,0-3.45-.87c-1.43,1.14-1.89,3.21-2.39,4.86a70.49,70.49,0,0,1-2.92,8l1.11.3.54-5.41a19.79,19.79,0,0,0,.26-4.73c-.15-1.05-.74-2.23-2-2.17a1.69,1.69,0,0,0-1.61,2.07c.15.76,1.31.44,1.15-.31Z" transform="translate(-0.71)"/><path class="cls-2" d="M305.16,109.55a1.92,1.92,0,0,0,.25-2,.6.6,0,0,0-.82-.22,7.09,7.09,0,0,0-3,6.82,4.48,4.48,0,0,0,1.71,3,3.75,3.75,0,0,0,2.92.65,3.3,3.3,0,0,0,2.49-2.31c.2-.61-.58-1-1-.59-1.47,1.26-4.5,3.41-5.79.77a4.68,4.68,0,0,1,1.45-5.54,5.83,5.83,0,0,1,3.61-1c.77,0,.77-1.17,0-1.2-2.85-.09-5.63,1.37-6.4,4.26-.63,2.41.25,6,3.35,5.91,1.77-.07,3.34-1.28,4.63-2.39l-1-.58a2.25,2.25,0,0,1-3.49,1c-1.68-1.1-1.54-3.65-.89-5.3a5.41,5.41,0,0,1,2-2.58l-.82-.22a.64.64,0,0,1-.06.6c-.48.59.36,1.45.85.85Z" transform="translate(-0.71)"/><path class="cls-2" d="M314.54,113.58a5.27,5.27,0,0,0,3.61-1.39,3.61,3.61,0,0,0,.76-3.17,2.13,2.13,0,0,0-2.7-1.52,4.92,4.92,0,0,0-2.56,1.88c-2.46,3.26-2.32,9.65,2.26,11a5,5,0,0,0,5.79-2.59l-1.1-.46a2.11,2.11,0,0,1-2.87,1.53c-1.55-.66-2.4-2.59-3.08-4-.33-.7-1.36-.09-1,.6.84,1.79,2,4.16,4.13,4.67a3.31,3.31,0,0,0,4-2.47c.14-.64-.78-1.1-1.1-.47a3.78,3.78,0,0,1-3.68,2.18,4,4,0,0,1-3.36-2.71,7.34,7.34,0,0,1,.15-5,5.94,5.94,0,0,1,1.24-2c.49-.51,1.37-1.2,2.13-1,1,.27.71,1.75.37,2.39-.57,1.06-1.88,1.25-3,1.36-.76.07-.76,1.27,0,1.2Z" transform="translate(-0.71)"/><path class="cls-2" d="M212.29,96.07a104.85,104.85,0,0,1-1.41,11.46c-.14.75,1,1.08,1.15.32a29.61,29.61,0,0,0,.47-7.86c-.05-.77-1.25-.78-1.2,0a28.47,28.47,0,0,1-.42,7.54l1.15.32a106.15,106.15,0,0,0,1.46-11.78c0-.77-1.15-.76-1.2,0Z" transform="translate(-0.71)"/><path class="cls-2" d="M339.26,116.27c-1.7-1.7-3.56.82-3.57,2.5,0,1.91,1.7,4.08,3.79,3.5,1.71-.48,2.56-2.51,2.8-4.1a6.78,6.78,0,0,0-.14-2.94c-.31-1.08-1.16-1.8-1.56-2.82-.5-1.27,1-2.47,2-3.11s2.21-1.14,2.92.12l.94-.72c-1.2-1.06-2.67-2.39-4.4-2.19a3.46,3.46,0,0,0-2.85,2.72.6.6,0,0,0,1.16.32,2.22,2.22,0,0,1,2-1.86c1.25,0,2.35,1.09,3.21,1.86a.6.6,0,0,0,.94-.73c-.94-1.69-2.7-1.68-4.22-.76s-3.44,2.56-2.91,4.48a15.76,15.76,0,0,0,1.42,2.45,5,5,0,0,1,.38,2.48c-.09,1.23-.71,3.6-2.27,3.69-1.14.06-1.91-1.19-2-2.19,0-.58.64-2.73,1.52-1.85a.6.6,0,0,0,.85-.85Z" transform="translate(-0.71)"/><path class="cls-2" d="M349,114.91a2.11,2.11,0,0,0,2.34-.89,2.78,2.78,0,0,0,.54-1.26,2.12,2.12,0,0,0-.39-1.35,2.32,2.32,0,0,0-2-1,2.61,2.61,0,0,0-2,1.37,7.28,7.28,0,0,0-.89,3,13.26,13.26,0,0,0,0,3.56c.3,1.94,1.52,3.81,3.67,3.8,2.46,0,4.12-2.41,5.43-4.18.46-.62-.58-1.21-1-.6-.92,1.24-2,2.82-3.46,3.4a2.33,2.33,0,0,1-3.05-1.3,9.07,9.07,0,0,1-.33-5c.16-.93.62-3,2-2.81a1,1,0,0,1,.66.38,1.23,1.23,0,0,1,.19.31.52.52,0,0,1,.06.44c-.16.57-.68,1.26-1.34,1s-1,.9-.32,1.16Z" transform="translate(-0.71)"/><path class="cls-2" d="M356.86,110.23c0-.25.15-.55.45-.5s.53.68.62,1a16.56,16.56,0,0,1,.49,3.14,55,55,0,0,1,.25,6.91.6.6,0,0,0,1.2,0,49.93,49.93,0,0,0-.56-9.38c-.17-1-.53-2.49-1.68-2.79a1.65,1.65,0,0,0-2,1.66c0,.77,1.16.77,1.2,0Z" transform="translate(-0.71)"/><path class="cls-2" d="M359.6,112.21c0-.12,0-.23,0-.34a1,1,0,0,1,0-.17c0-.11,0,0,0,0s.08-.41.15-.62l.09-.27s.05-.11,0,0,.05-.1.07-.14a4.21,4.21,0,0,1,.29-.51l.08-.1,0,0,.18-.19.18-.17c.1-.09-.08,0,0,0l.11-.08.2-.11c.12-.07,0,0,0,0l.1,0a1.2,1.2,0,0,1,.24-.06h.12a.62.62,0,0,0,.6-.6.62.62,0,0,0-.6-.6,2.31,2.31,0,0,0-2.12,1.28,4.12,4.12,0,0,0-.52,2.89A.6.6,0,0,0,360,112s0-.19,0,0c0-.06,0-.11,0-.16a2.8,2.8,0,0,1,0-.29,2.71,2.71,0,0,1,0-.29c0-.13,0,.09,0,0s0-.09,0-.13a4,4,0,0,1,.16-.57s.06-.14,0-.06l0-.07c0-.09.09-.17.14-.26l.14-.21c0-.06.05-.07,0,0l.09-.1.17-.17s.13-.11,0-.05l0,0,.21-.12c.1,0-.08,0,0,0l.09,0,.11,0c.12,0-.14,0,0,0h.23v-1.2a2.85,2.85,0,0,0-2.24,1.31,4.77,4.77,0,0,0-.86,2.79.62.62,0,0,0,.6.6.62.62,0,0,0,.6-.6Z" transform="translate(-0.71)"/><path class="cls-2" d="M360.2,112.53a4.1,4.1,0,0,1,2.48-2.94,2.66,2.66,0,0,1,1.6,0,2.78,2.78,0,0,1,1.42,1.06.62.62,0,0,0,.83.21.61.61,0,0,0,.21-.82,3.88,3.88,0,0,0-4.31-1.58,5.26,5.26,0,0,0-3.38,3.8.6.6,0,0,0,1.15.32Z" transform="translate(-0.71)"/><path class="cls-2" d="M368.31,113c.26-1.22.93-2.6,2.22-3l-.76-.58.07,5c0,1.54,0,3.1.08,4.64.09,1,.34,2.4,1.48,2.65a1.54,1.54,0,0,0,1.78-1.69c-.06-.76-1.26-.77-1.2,0,0,.21,0,.56-.32.52s-.4-.65-.44-.86a14.5,14.5,0,0,1-.15-3.09l-.1-7.18a.6.6,0,0,0-.76-.58,4.78,4.78,0,0,0-3.06,3.79c-.16.75,1,1.07,1.16.32Z" transform="translate(-0.71)"/><path class="cls-2" d="M370.83,110.87l0,7.47,1.18-.16-1.45-7.25c-.14-.7-1.14-.49-1.18.15a24.27,24.27,0,0,0,.52,6.53c.16.76,1.32.44,1.16-.32a22.71,22.71,0,0,1-.48-6.21l-1.17.16,1.44,7.26a.6.6,0,0,0,1.18-.16l0-7.47a.6.6,0,0,0-1.2,0Z" transform="translate(-0.71)"/><path class="cls-2" d="M372.88,119.75a1.22,1.22,0,0,0,1.89-.37,7.18,7.18,0,0,0,.93-3l1.37-7.59-1.15-.32-1.66,10.16c-.12.76,1,1.08,1.16.32l1.65-10.16c.12-.75-1-1.08-1.15-.32l-1.08,5.93c-.17,1-.33,1.93-.52,2.88a5.34,5.34,0,0,1-.33,1,3.26,3.26,0,0,1-.24.4c-.11.18-.14.06,0,.15-.6-.47-1.45.38-.85.85Z" transform="translate(-0.71)"/><path class="cls-2" d="M382,108.42c.48,2.38-.29,4.78-.06,7.17.15,1.5.72,3.65,2.27,4.31s2.54-.75,3-2c.58-1.51.64-3.23,1.49-4.64l-1.12-.31c.05,1.4-.26,3.56-1.66,4.29s-2.47-1.26-2.47-2.45c0-1.87,1-3.6,1.06-5.47.06-1.15-.22-3.28-1.75-3.34a2,2,0,0,0-1.74,2.9c.35.69,1.38.08,1-.61-.19-.37.1-1.1.59-1.09s.65,1.2.67,1.58c.07,1.82-.79,3.47-1,5.24a4.17,4.17,0,0,0,1.48,4.09,2.62,2.62,0,0,0,3.34-.26,6.47,6.47,0,0,0,1.65-4.88.61.61,0,0,0-1.12-.3,15,15,0,0,0-1.29,3.94c-.19.69-.77,2.84-1.89,2.06a3.49,3.49,0,0,1-1.07-1.81,8,8,0,0,1-.29-2.62c.07-2.06.45-4.1,0-6.15-.15-.75-1.3-.43-1.15.32Z" transform="translate(-0.71)"/><path class="cls-2" d="M386.69,101.88l-1.41-.64a.61.61,0,0,0-.82.21.64.64,0,0,0-.06.47.58.58,0,0,0,.28.35l1.4.65a.7.7,0,0,0,.47.06.63.63,0,0,0,.36-.28.62.62,0,0,0,.06-.46.6.6,0,0,0-.28-.36Z" transform="translate(-0.71)"/><path class="cls-2" d="M398.11,106.19a1.71,1.71,0,0,0-3.06-.5A7.2,7.2,0,0,0,394,108a20.81,20.81,0,0,0-.78,2.91,9.71,9.71,0,0,0,.36,5.42c.51,1.24,1.54,2.58,3,2.48a3.23,3.23,0,0,0,2.74-3.13c.06-.65-.81-.75-1.12-.31-.67,1-1.55,2.49-2.82,2.72s-1.91-1.19-2-2.3a14.49,14.49,0,0,1,.28-4.36c.24-1,1-2.88,2.36-2.37.72.27,1-.88.32-1.16-1.68-.64-3.06,1-3.59,2.41a13,13,0,0,0-.5,6.11c.23,1.59,1.31,3,3.06,2.88s3-2,3.92-3.32l-1.12-.3c-.09.94-1,2.31-2.09,1.86s-1.69-2.34-1.81-3.51a12.83,12.83,0,0,1,.7-5.06,11.22,11.22,0,0,1,.81-2.11c.26-.45.93-1.13,1.21-.31s1.41.42,1.16-.31Z" transform="translate(-0.71)"/><path class="cls-2" d="M404.7,114.62a3.24,3.24,0,0,0,2.92-1.12,2.65,2.65,0,0,0-.19-3.23,2.53,2.53,0,0,0-2.91-.61,4.28,4.28,0,0,0-1.88,2,9.28,9.28,0,0,0-.48,6.48c.58,1.95,2.13,3.78,4.34,3.57,2.66-.24,4.45-2.82,4.85-5.28l-1.18-.16c-.34,2.62-3.51,3.34-5.49,2a3.44,3.44,0,0,1-1.46-3.4c.08-.54.63-2.45,1.51-2,.68.37,1.29-.67.61-1-1.12-.61-2.18.13-2.73,1.13a4.79,4.79,0,0,0,6.17,6.75,4.25,4.25,0,0,0,2.59-3.51c.09-.66-1.07-.82-1.18-.16a5.27,5.27,0,0,1-2.95,4.21,2.79,2.79,0,0,1-3.58-1.61,7.75,7.75,0,0,1-.48-4.89,6.12,6.12,0,0,1,.86-2.19,2,2,0,0,1,1.53-1,1.37,1.37,0,0,1,1.26,1.76c-.24.94-1.3,1.08-2.13,1s-.77,1.17,0,1.2Z" transform="translate(-0.71)"/><path class="cls-1" d="M425.4.29l-1.74,1.22A5.94,5.94,0,0,0,419,4.75l-1.56,1.09c-.57.4,0,1.36.54,1l1.3-.91a.45.45,0,0,0,.45-.24.75.75,0,0,1,.07-.12l.67-.47A4.8,4.8,0,0,0,423.76,3a22.13,22.13,0,0,0,2.3-1.82C426.5.74,425.91-.07,425.4.29Z" transform="translate(-0.71)"/></g></g></svg>