<svg xmlns="http://www.w3.org/2000/svg" viewBox="0 0 225.64 79.25"><defs><style>.cls-1{fill:#fff;}</style></defs><g id="Layer_2" data-name="Layer 2"><g id="Elegant_lines" data-name="Elegant lines"><path class="cls-1" d="M69.38,32.71a3.38,3.38,0,0,1,2.47-1.78,3,3,0,0,1,1.55.15,6.36,6.36,0,0,1,1.53,1,2.75,2.75,0,0,0,3.18.16,3.2,3.2,0,0,0,1.54-2.84c0-.77-1.25-.78-1.2,0a2,2,0,0,1-1.66,2.08,2,2,0,0,1-1.46-.6,5.69,5.69,0,0,0-1.55-1,4.49,4.49,0,0,0-5.43,2.16c-.36.68.67,1.29,1,.6Z"/><path class="cls-1" d="M69,31.89a4.79,4.79,0,0,0-1.74,2.24,17.38,17.38,0,0,0-1.29,2.93,6.38,6.38,0,0,0,.49,5.46A3.46,3.46,0,0,0,70.68,44,6.64,6.64,0,0,0,74,39.9c.72-2.08.86-4.51,2.28-6.28l-1-.42.65,9.45c0,.76,1.25.77,1.2,0l-.65-9.45c0-.46-.67-.86-1-.42a11.29,11.29,0,0,0-2,4.49,10.78,10.78,0,0,1-1.87,4.51c-.9,1.06-2.34,1.79-3.57.78a4.43,4.43,0,0,1-1.2-4.23,11.37,11.37,0,0,1,1.1-3c.4-.8.81-2,1.63-2.42s.07-1.41-.61-1Z"/><path class="cls-1" d="M73.43,36.32a14.44,14.44,0,0,0,2,8.7.61.61,0,0,0,.94.13,6.34,6.34,0,0,0,2-3.28l-1.18-.16a.87.87,0,0,1-1.41.8,3.17,3.17,0,0,1-1.18-2.07,18,18,0,0,1,.07-4.81c.13-2.15-.4-5.22-2.69-6.13-2.5-1-4.18,1.59-5,3.56-1.06,2.65-2.15,6.15-.31,8.71a3.21,3.21,0,0,0,3.37,1.44,2.93,2.93,0,0,0,2.28-2.71.6.6,0,0,0-1.12-.3c-1,1.85-2.57,4.9-5.17,4.22s-1.77-4.75-1.48-6.56c.39-2.44,1.29-5,3.41-6.51a5.09,5.09,0,0,1,3.17-1,7.2,7.2,0,0,1,3.13,1.43,3.6,3.6,0,0,0,3.14.52A2.28,2.28,0,0,0,79.07,30c-.07-.76-1.27-.77-1.2,0a1.09,1.09,0,0,1-.81,1.17,2.1,2.1,0,0,1-1.83-.26c-1.16-.62-2.14-1.48-3.48-1.7a6.72,6.72,0,0,0-6.17,2.82A14.23,14.23,0,0,0,63.2,39.8c-.15,2.3.12,5.42,3,5.85,3.1.47,4.92-2.51,6.15-4.85l-1.12-.3A1.8,1.8,0,0,1,68.88,42c-1.22-.4-1.81-1.88-1.92-3.06a11.3,11.3,0,0,1,.85-4.51,8.64,8.64,0,0,1,1.57-3.15A1.89,1.89,0,0,1,72,30.84a4.35,4.35,0,0,1,1.45,2.78c.49,2.63-.69,5.35.28,7.94a3.32,3.32,0,0,0,2.55,2.35,2,2,0,0,0,2.17-2.2c-.07-.62-1-.87-1.18-.16a5.22,5.22,0,0,1-1.69,2.75l.95.12a13.37,13.37,0,0,1-1.86-8.1c.07-.77-1.13-.77-1.2,0Z"/><path class="cls-1" d="M70.23,26.85a5.91,5.91,0,0,1,2.23-2.54l-.82-.82-2.09,3,1.09.14a3,3,0,0,1,2-3.35L71.92,23l1.45,2.41a.6.6,0,0,0,1.11-.3,4.54,4.54,0,0,0-2-3.85.6.6,0,0,0-.9.51,11,11,0,0,0,.85,4.28.61.61,0,0,0,.73.42.6.6,0,0,0,.42-.74,10.34,10.34,0,0,1-.8-4l-.9.52a3.34,3.34,0,0,1,1.37,2.82l1.12-.31L73,22.4a.61.61,0,0,0-.68-.27A4.14,4.14,0,0,0,69.49,27a.6.6,0,0,0,.5.43.6.6,0,0,0,.59-.29l2.1-3c.35-.5-.33-1.12-.82-.82a6.91,6.91,0,0,0-2.66,3,.61.61,0,0,0,.21.82.6.6,0,0,0,.82-.22Z"/><path class="cls-1" d="M90.46,19.66l-.94,13.43-.48,7a36.15,36.15,0,0,0-.24,5.6c.19,2.2,1.4,5.22,4.19,4.45,3.6-1,3.3-5.74,4.1-8.55a.61.61,0,0,0-.88-.68C93.92,42,94.28,47.08,91,46c-3.86-1.24-2.89-7.41-2.76-10.45a57.4,57.4,0,0,1,1.71-12c.71-2.8,1.35-5.94-.58-8.39-.48-.61-1.33.25-.85.85,1.33,1.69,1,4,.58,5.92s-1,3.8-1.31,5.75a65,65,0,0,0-.85,12.69C87,43.32,88,47,91.4,47.33a3.22,3.22,0,0,0,3.11-1.46c.81-1.22.89-3.26,2.31-4l-.88-.68c-.46,1.58-.5,3.25-1,4.84-.4,1.38-1.72,3.58-3.49,2.77-2.32-1.05-1.48-5.65-1.35-7.55l1.51-21.63c0-.77-1.15-.77-1.2,0Z"/><path class="cls-1" d="M84,33.92a15.31,15.31,0,0,0,10-1.55.6.6,0,0,0-.3-1.11l-6.06-.17v1.2h3l-.16-1.18-4.8.88a.6.6,0,0,0,.16,1.18l3.59-.35c.76-.07.77-1.27,0-1.2L85.9,32l.16,1.18,4.8-.88c.68-.13.51-1.18-.16-1.18h-3a.6.6,0,0,0,0,1.2l6.06.17-.31-1.12a14,14,0,0,1-9.08,1.42c-.75-.14-1.07,1-.32,1.16Z"/><path class="cls-1" d="M103.3,35.57a5.22,5.22,0,0,0,1.76-4.9c-.11-.68-1.18-.5-1.18.16v12a7.17,7.17,0,0,0,.26,3.13c1.14,2.21,3.29-1,3.91-2a14,14,0,0,0,2-6.32h-1.2a12.36,12.36,0,0,1-.68,4.6,3.61,3.61,0,0,1-1.28,1.7c-.72.47-1.88.59-2-.53a23.83,23.83,0,0,1,.26-3c.07-1.08.08-2.16,0-3.24a35.44,35.44,0,0,0-.81-6.58.6.6,0,0,0-1-.27l-2,2.1c-.53.56.32,1.41.85.85l2-2.1-1-.27a34.8,34.8,0,0,1,.77,8.33c0,1.32-.29,2.65-.31,4A2.11,2.11,0,0,0,105,45.41c1.7.61,3.36-.79,4.06-2.23a12.71,12.71,0,0,0,1-5.49.6.6,0,0,0-1.2,0A12.55,12.55,0,0,1,107.27,43a10.06,10.06,0,0,1-1.58,2.2c-.42.45-.51.36-.59-.19a12.51,12.51,0,0,1,0-1.5V30.83L103.9,31a4,4,0,0,1-1.45,3.74c-.6.48.25,1.33.85.84Z"/><path class="cls-1" d="M105.58,26.5a.81.81,0,0,1,0-.22l0,.16a.94.94,0,0,1,.07-.22l-.06.14a.82.82,0,0,1,.12-.2l-.1.12a1.7,1.7,0,0,1,.19-.19l-.13.1a1,1,0,0,1,.22-.13l-.14.06.2-.05-.16,0a.54.54,0,0,1,.18,0l-.16,0a.61.61,0,0,1,.18.05l-.15-.07h0a.69.69,0,0,0,.31.09.59.59,0,0,0,.36-.13.61.61,0,0,0,.18-.24.65.65,0,0,0,0-.39,1.59,1.59,0,0,0-.66-1,1.37,1.37,0,0,0-.47-.23,1.52,1.52,0,0,0-.52-.07,1.36,1.36,0,0,0-.62.19,1.49,1.49,0,0,0-.47.43,1.81,1.81,0,0,0-.31,1,1.67,1.67,0,0,0,.44,1.16A.6.6,0,0,0,105,26l-.06-.07.09.12a1.13,1.13,0,0,1-.12-.21l.06.14a1.19,1.19,0,0,1-.07-.27l0,.16a1.82,1.82,0,0,1,0-.33l0,.16a1.58,1.58,0,0,1,.09-.31l-.06.14a1,1,0,0,1,.13-.22l-.09.12a.54.54,0,0,1,.15-.15l-.13.09a.72.72,0,0,1,.19-.11l-.14.06a.67.67,0,0,1,.19-.05l-.16,0h.24l-.16,0a.84.84,0,0,1,.26.07l-.15-.06a.86.86,0,0,1,.23.13l-.12-.09a.86.86,0,0,1,.19.19l-.09-.12a1.48,1.48,0,0,1,.13.21l-.06-.14a.73.73,0,0,1,.06.21l.88-.68a1.5,1.5,0,0,0-.5-.14,1.45,1.45,0,0,0-.36,0,1.47,1.47,0,0,0-.67.34,1.54,1.54,0,0,0-.39.49,1.44,1.44,0,0,0-.15.76.73.73,0,0,0,.18.43.59.59,0,0,0,.42.17.58.58,0,0,0,.6-.6Z"/><path class="cls-1" d="M129.75,32.2A2.9,2.9,0,0,0,126,30.09c-1.64.65-2,2.77-1.2,4.19a2.63,2.63,0,0,0,2,1.38c1.11.17,2.06.08,2.89,1a4.71,4.71,0,0,1,.1,5.94,6.8,6.8,0,0,1-2.83,2.37c-.78.32-2.2.53-2.53-.5l-.74.73c4.25.88,7.64-3.64,6.17-7.55a5.67,5.67,0,0,0-4.18-3.71c-.51-.08-1.22,0-1.61-.45a1.38,1.38,0,0,1-.19-1.36c.39-1.27,1.89-1.41,3-1.22.75.13,1.08-1,.32-1.15-2-.34-4.27.23-4.59,2.51a2.35,2.35,0,0,0,.86,2.28c.89.64,2.08.42,3,.92a4.83,4.83,0,0,1,2.34,5.44A4.39,4.39,0,0,1,124,44a.61.61,0,0,0-.74.74c.56,1.76,2.6,1.9,4.1,1.3a7.92,7.92,0,0,0,4.21-4.3,5.76,5.76,0,0,0-.69-5.57,4.05,4.05,0,0,0-2.19-1.51c-1-.24-2.21.09-2.79-.92-.44-.77-.42-2.1.5-2.52a1.7,1.7,0,0,1,2.24,1.29c.15.75,1.31.43,1.15-.32Z"/><path class="cls-1" d="M113.79,42.07a5.94,5.94,0,0,0,8.1-4.79,3.06,3.06,0,0,0-1-2.72,3.71,3.71,0,0,0-2.46-.71c-1.51,0-3.62.83-4.86-.45a1.17,1.17,0,0,1,.34-1.86,4.47,4.47,0,0,1,2.68-.29c.75.11,1.08-1,.32-1.16-1.49-.22-3.55-.19-4.49,1.22a2.35,2.35,0,0,0-.16,2.31,3,3,0,0,0,1.82,1.43,5.33,5.33,0,0,0,2.51.19,8.15,8.15,0,0,1,2.65-.14c2.28.43,1.44,3.31.35,4.55A4.62,4.62,0,0,1,114.4,41c-.7-.32-1.31.72-.61,1Z"/><path class="cls-1" d="M153.69,34.17c1,.55,2.33,1.17,3.42.45a2,2,0,0,0,.82-2.49A2.77,2.77,0,0,0,155.46,31a3.74,3.74,0,0,0-2.14.67c-2.59,1.79-3.61,6.4-.9,8.54,2.26,1.77,5.21,1.06,7.65.1.71-.28.4-1.44-.32-1.16-1.76.7-3.75,1.37-5.61.67a3.17,3.17,0,0,1-2.11-2.9c-.08-2,1.28-4.94,3.67-4.71.56,0,1.5.29,1.11,1-.53,1-1.82.27-2.52-.11s-1.28.67-.6,1Z"/><path class="cls-1" d="M164,33.26a29.14,29.14,0,0,0-.44,10.49l1.16-.32c-.42-2.56-.92-5.4,0-7.89.72-1.86,2.65-3.73,4.78-3.16l.16-1.18a5.5,5.5,0,0,0-5.52,3.35l1.12.3L165,31.07a.6.6,0,0,0-1.2,0l0,4.2a.6.6,0,0,0,1.2,0l0-4.2h-1.2l.27,3.78c0,.53.86.9,1.12.31a4.35,4.35,0,0,1,4.48-2.76c.68.08.8-1,.16-1.18-2.53-.68-4.91,1.15-6,3.34-1.39,2.85-.83,6.2-.34,9.19.13.77,1.27.43,1.16-.32a27.42,27.42,0,0,1,.44-9.85c.17-.76-1-1.08-1.16-.32Z"/><path class="cls-1" d="M140.24,33.56l-1,6.78c-.24,1.64-.8,3.73.61,5a3.86,3.86,0,0,0,3.61.64,6.2,6.2,0,0,0,3.5-2.7,9.55,9.55,0,0,0,1.58-5.92.6.6,0,0,0-1.2,0c-.28,3.42-3.55,6.92-7.19,6.27s-1.72-5.21-1.3-7.51a6,6,0,0,0-.52-4.53.6.6,0,0,0-.82-.21,5.16,5.16,0,0,0-2.21,3.28c-.15.76,1,1.08,1.16.32a3.91,3.91,0,0,1,1.66-2.57l-.82-.21c.89,1.33.55,3,.21,4.48a15.22,15.22,0,0,0-.73,4.77,3.71,3.71,0,0,0,3.34,3.38,7.1,7.1,0,0,0,5.4-1.68,8.32,8.32,0,0,0,3-5.79h-1.2c.19,3.07-1.64,7.89-5.43,7.59a1.87,1.87,0,0,1-1.52-.84c-.53-.87-.2-2.06-.06-3l1.07-7.26c.11-.76-1.05-1.09-1.16-.32Z"/><path class="cls-1" d="M140.65,28.53c0-.12,0-.24,0-.35l0,.16a2.28,2.28,0,0,1,.18-.63l-.06.15a2.13,2.13,0,0,1,.23-.42l0-.06c0-.05,0,0,0,.05l.06-.07a1,1,0,0,1,.18-.18.57.57,0,0,0,.16-.51.56.56,0,0,0-.28-.43,1.78,1.78,0,0,0-1.52-.32,1.24,1.24,0,0,0-.8,1.15,1,1,0,0,0,.9,1,.87.87,0,0,0,.83-.77,1,1,0,0,0-.1-.7.76.76,0,0,0-.85-.33.61.61,0,0,0-.44.58,1.57,1.57,0,0,0,2.31,1.46.65.65,0,0,0,.27-.36.64.64,0,0,0-.06-.47.61.61,0,0,0-.82-.21l-.14.08.14-.06-.17,0,.16,0a.74.74,0,0,1-.21,0l.16,0a1.05,1.05,0,0,1-.24-.06l.14.06a.51.51,0,0,1-.16-.09l0,0c-.07,0,.06,0,.06.05a.27.27,0,0,0-.08-.07l-.07-.07c-.07-.09.08.12,0,0a.91.91,0,0,1-.09-.17l.06.14a1,1,0,0,1-.06-.23l0,.16a.67.67,0,0,1,0-.2l-.44.58h0l-.16,0h0l-.16,0h0l-.15-.06c.09,0-.13-.12-.07-.06-.14-.14-.09-.13-.07-.08l-.06-.14a.32.32,0,0,1,0,.09l0-.16v.12l0-.16a.75.75,0,0,1,0,.16l.06-.15,0,.06c0,.05-.08,0,.06-.08l0,0c.09-.12.13-.09.07-.06l.14-.06-.05,0,.16,0h0l.16,0-.06,0,.14.06,0,0c.08,0,.12.11.06.05s.08.14,0,.06l0-.06.06.15,0-.12,0,.16V27l0,.16A1.05,1.05,0,0,1,140,27l-.06.14L140,27s0,0,0,0-.11.12,0,.06l0,0c0-.05-.07.05-.08.06l.11-.06-.15.06.16,0-.16,0h.22L140,27a1.58,1.58,0,0,1,.31.09l-.14-.06a3.07,3.07,0,0,1,.36.2l-.12-.94a3,3,0,0,0-.94,2.2.6.6,0,0,0,.6.6.61.61,0,0,0,.6-.6Z"/><path class="cls-1" d="M33.35,45.54l.17,3.68a6.93,6.93,0,0,0,.34,2.56,2.33,2.33,0,0,0,3.22.95c1.67-.85,2.23-3.11,2.83-4.73.82-2.26,1.58-4.54,2.25-6.85a109.09,109.09,0,0,0,4.33-28.77c0-2.58-.29-5.36.48-7.85.62-2.05,3.27-4.67,5.38-2.69.56.53,1.41-.32.85-.85-2.35-2.2-5.8-.41-7,2.15A13,13,0,0,0,45.3,8.6c0,2.35,0,4.7-.11,7.06a107.52,107.52,0,0,1-5.08,28.06c-.4,1.26-.83,2.51-1.28,3.75a11.82,11.82,0,0,1-1.62,3.6c-.45.53-1.38,1.14-2.06.51-.46-.42-.38-1.35-.41-1.9-.06-1.38-.12-2.76-.19-4.14,0-.77-1.23-.78-1.2,0Z"/><path class="cls-1" d="M39,31.21a3.51,3.51,0,0,0,2,3c1.5.76,3.27.38,4.81-.06a29.41,29.41,0,0,0,9-4.36,31.55,31.55,0,0,0,7.17-7.14c1.76-2.43,3.59-5.83,1.73-8.72-1.72-2.66-5.61-3.42-8.46-4.07A46.79,46.79,0,0,0,43,8.69c-2.78.1-6,.65-7.57,3.22-1.39,2.24-1.11,5.67,1,7.35a4.59,4.59,0,0,0,6.91-1.71,2.52,2.52,0,0,0-1-3.36c-1-.52-3.13,0-3.65-1.21-.31-.71-1.34-.1-1,.6.81,1.83,2.83.86,4.19,1.7s0,2.82-1,3.33a3.5,3.5,0,0,1-3.46-.16c-2.2-1.47-2-5.06-.24-6.76,2-1.9,5.17-1.84,7.73-1.82a46.35,46.35,0,0,1,9.1,1c2.52.53,5.59,1.07,7.67,2.7,4.83,3.79-2.33,10.91-5.31,13.52A29.41,29.41,0,0,1,49,31.79c-2.07.92-8.55,3.6-8.72-.58,0-.77-1.24-.78-1.2,0Z"/><path class="cls-1" d="M44.35,33.35a85.72,85.72,0,0,0,12.19-6.21c2.91-1.79,6-3.93,7.37-7.2a6.12,6.12,0,0,0,.39-4.5c-.7-1.66-2.68-2-4.23-2.54Q53,10.67,45.9,8.79A.6.6,0,0,0,45.58,10c4,1.06,8,2.2,12,3.42l2.87.89a5.75,5.75,0,0,1,2.41,1.09c1.25,1.27.24,3.83-.51,5.1-1.69,2.87-4.73,4.69-7.51,6.34A84.1,84.1,0,0,1,44,32.19c-.71.29-.4,1.45.32,1.16Z"/><path class="cls-1" d="M215.38,35.36a.34.34,0,0,1,0,.1l0-.16a.2.2,0,0,1,0,.11l.06-.14a.33.33,0,0,1-.06.1l.09-.12a.52.52,0,0,1-.1.11l.12-.1a.57.57,0,0,1-.13.08l.14-.06-.14,0,.16,0h-.12l.16,0-.1,0,.14.06-.08-.05.12.09-.07-.06.1.12a.41.41,0,0,1,0-.09l.06.14a.56.56,0,0,1,0-.12l0,.16a.38.38,0,0,1,0-.15l0,.16a.47.47,0,0,1,0-.16l-.06.15a.38.38,0,0,1,.09-.15l-.1.12a.47.47,0,0,1,.1-.1l-.12.09.09,0-.14.06.09,0-.16,0h.1l-.16,0h0a.39.39,0,0,0,.24,0,.36.36,0,0,0,.22-.07.6.6,0,0,0,.28-.36.67.67,0,0,0-.06-.46l-.1-.12a.53.53,0,0,0-.26-.15l-.21,0h-.14a1,1,0,0,0-.32.11.78.78,0,0,0-.22.15.24.24,0,0,0-.08.09,1.12,1.12,0,0,0-.16.22,1.89,1.89,0,0,0-.11.25,1.26,1.26,0,0,0,0,.28.49.49,0,0,0,0,.12,1.17,1.17,0,0,0,.05.27,1,1,0,0,0,.12.25,1.83,1.83,0,0,0,.13.16l.16.13a.74.74,0,0,0,.24.11,1.28,1.28,0,0,0,.27,0,1.24,1.24,0,0,0,.27,0l.12,0a1.79,1.79,0,0,0,.24-.12,1.28,1.28,0,0,0,.22-.17s.09-.11.14-.17l0-.06a1.19,1.19,0,0,0,.08-.2.14.14,0,0,0,0-.06.91.91,0,0,0,0-.23s0,0,0-.07a.4.4,0,0,0-.05-.24.55.55,0,0,0-.12-.19.63.63,0,0,0-.43-.17.57.57,0,0,0-.42.17.62.62,0,0,0-.18.43Z"/><path class="cls-1" d="M219.32,25.35a6,6,0,0,0-2.9,5.8.62.62,0,0,0,.6.6.6.6,0,0,0,.6-.6,4.83,4.83,0,0,1,2.31-4.76c.67-.37.07-1.41-.61-1Z"/><path class="cls-1" d="M216.07,32.06a4.05,4.05,0,0,0,0,3.34,3.63,3.63,0,0,0,2.34,2.09.6.6,0,1,0,.32-1.16l-.31-.1-.06,0-.12-.07L218,36c-.11-.07,0,0-.05,0l-.12-.11a2.55,2.55,0,0,1-.23-.24l-.06-.07-.07-.1a4,4,0,0,1-.33-.57c0-.11,0,.06,0-.07a.69.69,0,0,1,0-.13,1.81,1.81,0,0,1-.09-.31,3.4,3.4,0,0,1-.07-.34c0,.13,0-.06,0-.07a.91.91,0,0,1,0-.17,1.71,1.71,0,0,1,0-.32s0-.09,0-.14,0,.06,0-.07.05-.22.08-.33l.06-.16c0-.12,0,0,0-.07a.6.6,0,1,0-1-.61Z"/><path class="cls-1" d="M218.56,32l-.93-1.58a.55.55,0,0,0-.43-.29.63.63,0,0,0-.51.16,1.18,1.18,0,0,0-.33,1.18,1.3,1.3,0,0,0,.66.9,1,1,0,0,0,1.29-.29,1.4,1.4,0,0,0,.23-1.14,1.14,1.14,0,0,0-.85-.91.63.63,0,0,0-.63.21.61.61,0,0,0,0,.67,1.58,1.58,0,0,0,1.52.82,1.68,1.68,0,0,0,.86-.27,1.64,1.64,0,0,0,.63-.81.6.6,0,0,0-.42-.74.61.61,0,0,0-.74.42c0,.1.08-.14,0,0l0,.06,0,.05c-.05.09.1-.11,0,0l-.09.1c-.08.07,0-.05,0,0l-.06,0-.11.06c-.09,0,.15-.06,0,0l0,0-.14,0s-.11,0,0,0,0,0,0,0h-.13c-.14,0,.15,0,0,0l-.13,0-.06,0c.17.05.11.05.06,0a.41.41,0,0,1-.11-.07c-.1-.06,0,0,0,0l-.05-.05,0,0c-.07-.08,0,0,0,.05a.91.91,0,0,0-.08-.13l-.68.88.09,0-.09,0,0,0c.07,0-.14-.12,0,0s-.07-.12,0,0l0,.07c0,.08-.06-.17,0,0l0,.09c0,.13,0-.14,0,0s0,.06,0,.09,0,.13,0,0c0,.05,0,.11,0,.17,0-.16,0-.12,0-.05s.09-.09,0,0l0,0,.07-.06s-.12.06,0,0,0,0,0,0h.05l.09,0h0c-.08,0,.16.08,0,0s.09.1,0,0l-.06-.07.05.07,0,0a.2.2,0,0,0,0-.08c.09.15,0,.09,0,0l0-.1c0-.09,0,.19,0,0a.27.27,0,0,0,0-.09c0,.12,0,.15,0,.09v0s0,0,0-.05-.06.14,0,.09l0,0-.05.07a.46.46,0,0,0,.07-.07L216.6,31l.93,1.59a.6.6,0,0,0,.82.21.61.61,0,0,0,.21-.82Z"/><path class="cls-1" d="M214.14,32.27a2.85,2.85,0,0,1,1.76-3.42l-.68-.88-3.65,5.69c-.41.66.62,1.26,1,.61l3.64-5.7a.6.6,0,0,0-.67-.88,4.07,4.07,0,0,0-2.6,4.9.6.6,0,0,0,1.16-.32Z"/><path class="cls-1" d="M218.18,33.87,219.25,35a.6.6,0,0,0,.42.18.62.62,0,0,0,.43-.18.59.59,0,0,0,.17-.42.63.63,0,0,0-.17-.43L219,33a.63.63,0,0,0-.43-.17.59.59,0,0,0-.42.17.64.64,0,0,0-.18.43.67.67,0,0,0,.18.42Z"/><path class="cls-1" d="M220.58,34a1.19,1.19,0,0,0,1.35-.52,2.13,2.13,0,0,0,.25-1.34,2.69,2.69,0,0,0-.6-1.48,9,9,0,0,0-1.23-1,3.68,3.68,0,0,1-.37-.32l-.15-.16-.06-.07c-.07-.07,0,.06,0,0a1.74,1.74,0,0,1-.11-.18.2.2,0,0,1,0-.08c0-.08,0,.08,0,0a1.17,1.17,0,0,1-.05-.2c0,.09,0-.13,0-.16l-.6.6a5.93,5.93,0,0,1,3,1,.6.6,0,0,0,.61-1,7.12,7.12,0,0,0-3.63-1.19.62.62,0,0,0-.6.6,2.49,2.49,0,0,0,.87,1.81c.48.44,1,.76,1.47,1.16l.06.08c0-.05,0-.06,0,0l.09.15s.1.22.05.09a.88.88,0,0,1,0,.15,1.46,1.46,0,0,1,.05.2s0,.21,0,.13,0,.11,0,.12a1.33,1.33,0,0,1,0,.2s0,.19,0,0a1,1,0,0,1,0,.17s-.07.18,0,.09,0,.06-.05.07c.07-.14,0,0,0,0s.06-.08,0,0,.1-.05,0,0c.1,0,.11,0,0,0s.12,0,0,0a.6.6,0,0,0-.32,1.15Z"/><path class="cls-1" d="M223.21,31.13a4.94,4.94,0,0,1-4.61,4.26.6.6,0,0,0,0,1.2,6.14,6.14,0,0,0,5.81-5.46.6.6,0,0,0-.6-.6.62.62,0,0,0-.6.6Z"/><path class="cls-1" d="M219.6,27.48a2.52,2.52,0,0,0,2.89,1.32.6.6,0,0,0-.32-1.16l-.14,0h-.09s.16,0,.06,0a1.6,1.6,0,0,1-.31,0c-.08,0,.06,0,.07,0h-.09l-.14,0-.15,0s-.12-.07,0,0l-.07,0a1.35,1.35,0,0,1-.26-.15l-.06,0c.13.08.06.05,0,0a1.14,1.14,0,0,1-.11-.11l-.11-.11-.05-.06,0,0c-.06-.1-.12-.2-.17-.3a.6.6,0,0,0-.82-.21.62.62,0,0,0-.22.82Z"/><path class="cls-1" d="M221.27,29.15c1.77,0,3.14,1.83,3.17,3.54a2.91,2.91,0,0,1-1,2.28,3.35,3.35,0,0,1-2.2.74A2.89,2.89,0,0,1,219,34.57a.61.61,0,0,0-.82-.22.6.6,0,0,0-.21.82,4.35,4.35,0,0,0,6,1,4.08,4.08,0,0,0,1.72-3,5,5,0,0,0-1-3.36A4.14,4.14,0,0,0,221.27,28c-.77,0-.78,1.23,0,1.2Z"/><path class="cls-1" d="M215.6,40a.6.6,0,0,0,0-1.2.6.6,0,0,0,0,1.2Z"/><path class="cls-1" d="M213.39,37.06v.58a.46.46,0,0,0,.06.23.51.51,0,0,0,.31.31.46.46,0,0,0,.23.06l.16,0a.56.56,0,0,0,.27-.15l.09-.12a.56.56,0,0,0,.08-.3v-.58a.37.37,0,0,0-.05-.23.39.39,0,0,0-.12-.19.59.59,0,0,0-.19-.13.49.49,0,0,0-.24,0l-.16,0a.54.54,0,0,0-.26.16l-.09.12a.53.53,0,0,0-.09.3Z"/><path class="cls-1" d="M214,39.69l.55,1.15a.61.61,0,0,0,.35.28.64.64,0,0,0,.47-.07.59.59,0,0,0,.27-.35l0-.16a.58.58,0,0,0-.08-.31L215,39.09a.63.63,0,0,0-.36-.28.62.62,0,0,0-.46.06.66.66,0,0,0-.28.36l0,.16a.61.61,0,0,0,.08.3Z"/><path class="cls-1" d="M212.83,37.71a5.72,5.72,0,0,0,8.75,1,.6.6,0,0,0-.59-1l-2.06.69c-.73.25-.42,1.41.32,1.16l2.06-.69-.58-1a4.5,4.5,0,0,1-6.86-.79c-.41-.65-1.45-.05-1,.61Z"/><path class="cls-1" d="M215.08,30.44l-.53,1.15a.34.34,0,0,0-.07.22.39.39,0,0,0,0,.24.58.58,0,0,0,.27.36.62.62,0,0,0,.46.06.6.6,0,0,0,.36-.28l.54-1.15a.44.44,0,0,0,.07-.22.49.49,0,0,0,0-.24.63.63,0,0,0-.28-.36.62.62,0,0,0-.46-.06.63.63,0,0,0-.36.28Z"/><path class="cls-1" d="M216.46,27.73h3.21a.6.6,0,1,0,0-1.2h-3.21a.61.61,0,0,0-.6.6.62.62,0,0,0,.6.6Z"/><path class="cls-1" d="M192.52,40.41c2.22,2.18,5.75,2.21,8.66,2.06A30,30,0,0,0,211.47,40c.71-.3.09-1.34-.61-1a28.4,28.4,0,0,1-9.35,2.26c-2.64.17-6.1.32-8.14-1.69a.6.6,0,0,0-.85.85Z"/><path class="cls-1" d="M205.9,37.37l-1.47,1.55a.6.6,0,0,0,.72.95A5.45,5.45,0,0,0,208,35.63l-1,.42c0,.06.07.09,0,0l.08.1.11.22v0l0,.12a2.1,2.1,0,0,1,.06.24c0,.14,0-.13,0,0s0,.09,0,.13a2.35,2.35,0,0,1,0,.26s0,.1,0,.12,0-.09,0-.05,0,0,0,.07a1.14,1.14,0,0,1-.06.25,2.25,2.25,0,0,1-.08.24c0,.12.06-.1,0,0l-.06.11a1.59,1.59,0,0,1-.13.22l-.07.1c.05-.07,0-.05,0,0l-.17.17,0,0,0,0-.21.11s.12,0,0,0l-.13,0,.58,1a1.24,1.24,0,0,0-.21-1.9,1.17,1.17,0,0,0-1.67,1.13.61.61,0,0,0,.9.52A4.92,4.92,0,0,0,208.17,37a.62.62,0,0,0-.21-.83.61.61,0,0,0-.82.22,5.32,5.32,0,0,1-.37.66l-.13.18,0,.06a3.32,3.32,0,0,1-.25.27l-.27.26-.14.1-.08.06a3.77,3.77,0,0,1-.65.37l.9.52s0-.16,0-.07,0-.08,0,0,0-.06,0,0a.46.46,0,0,0,.07-.07c-.11.11,0,0,0,0H206c.08,0,0,0,0,0l-.06,0c.05,0,.05,0,0,0s0,.07,0,0,0,0,0,0-.06-.08,0,0v.05c0-.09,0-.1,0-.06v.09c0,.07,0-.12,0,0s0-.1,0,0,.08-.08,0,0a.61.61,0,0,0,.59,1,2.7,2.7,0,0,0,1.8-1.93,2.86,2.86,0,0,0-.54-2.67.58.58,0,0,0-.65-.12.6.6,0,0,0-.37.55c0,.18,0-.07,0,0s0,.1,0,.14l-.06.28a4.64,4.64,0,0,1-.16.53l-.06.16c0-.06,0,0,0,0s-.07.17-.12.25a5,5,0,0,1-.29.5l-.08.11,0,.07-.06.07-.09.1a2.79,2.79,0,0,1-.38.39l-.2.18s.06-.05,0,0l-.11.08a3.77,3.77,0,0,1-.48.28l.73.94,1.47-1.55a.62.62,0,0,0,0-.85.6.6,0,0,0-.85,0Z"/><path class="cls-1" d="M198.48,41.81a5.79,5.79,0,0,0,1.34,3.69.61.61,0,0,0,1-.43l.05-2.68a.61.61,0,0,0-.6-.6.62.62,0,0,0-.6.6l0,2.68,1-.42-.07-.09-.12-.18a2.74,2.74,0,0,1-.23-.36,3.59,3.59,0,0,1-.17-.34.93.93,0,0,1-.05-.1c0,.06,0,.06,0,0s-.05-.13-.08-.2a5.41,5.41,0,0,1-.21-.79s0-.25,0-.11a1.8,1.8,0,0,1,0-.22c0-.15,0-.29,0-.44a.6.6,0,0,0-.6-.6.61.61,0,0,0-.6.6Z"/><path class="cls-1" d="M152.1,26a6.86,6.86,0,0,0,4.06,3,.6.6,0,1,0,.32-1.15L155,27.41a.61.61,0,0,0-.74.42.62.62,0,0,0,.42.74l1.52.47.32-1.15a5.6,5.6,0,0,1-.54-.17l-.26-.1c.08,0,0,0,0,0l-.13-.06a7.31,7.31,0,0,1-1-.58l-.09-.07c.09.07-.05,0-.05,0l-.22-.19a3.5,3.5,0,0,1-.39-.38l-.19-.21-.1-.11s-.09-.12-.06-.08a.64.64,0,0,1,0-.07l-.09-.12-.18-.27a.6.6,0,0,0-1,.61Z"/><path class="cls-1" d="M27,38.27A17.61,17.61,0,0,0,9.67,33.42.6.6,0,0,0,10,34.57a16.4,16.4,0,0,1,16.14,4.55c.53.56,1.38-.29.85-.85Z"/><path class="cls-1" d="M12,32.74,8.27,31.3l.42.74a9.12,9.12,0,0,1,1.37-2.69l-1-.61a7.15,7.15,0,0,1-1.55,1.74A5.86,5.86,0,0,0,6,32.5a2.65,2.65,0,0,0,0,2.3,2,2,0,0,0,1.6,1,1.53,1.53,0,0,0,1.64-1.08A.6.6,0,0,0,8.53,34l-1.08.29a.6.6,0,0,0,.32,1.16l1.07-.29-.73-.74c0,.07,0,.08,0,0a.31.31,0,0,1,0,.1c.06-.07,0,0-.05,0s0,0-.06,0c.13,0-.09,0-.11,0,.14,0-.26,0-.13,0l-.21,0-.08,0h0a.92.92,0,0,1-.25-.17l-.06-.07s0,0,0,0S7,34.06,7,34.15a1.52,1.52,0,0,1,0-1,4.41,4.41,0,0,1,1.37-1.85,7.65,7.65,0,0,0,1.67-1.92.6.6,0,0,0-.21-.82.61.61,0,0,0-.82.21,10.06,10.06,0,0,0-1.5,3,.63.63,0,0,0,.42.74l3.74,1.43A.6.6,0,1,0,12,32.74Z"/><path class="cls-1" d="M6.62,33.16v-.57a.46.46,0,0,0,0-.23.53.53,0,0,0-.13-.2A.35.35,0,0,0,6.25,32,.37.37,0,0,0,6,32l-.16,0a.61.61,0,0,0-.26.15l-.1.12a.68.68,0,0,0-.08.31v.57a.43.43,0,0,0,0,.23.53.53,0,0,0,.13.2.35.35,0,0,0,.19.12.37.37,0,0,0,.23,0l.16,0a.61.61,0,0,0,.26-.15l.1-.12a.68.68,0,0,0,.08-.31Z"/><path class="cls-1" d="M19.29,33.85,20,31.64a.6.6,0,0,0-1-.58,2.26,2.26,0,0,0-1.05,2.14,1.29,1.29,0,0,0,1.59.87.94.94,0,0,0,.69-1,.61.61,0,0,0-.17-.43.63.63,0,0,0-.43-.17.6.6,0,0,0-.6.6s0,0,0,.08,0-.19,0-.07.09-.17,0-.07.12-.14,0-.06.15-.1.06,0,.15,0,.06,0h-.06c-.09,0,.19,0,.07,0h-.08c-.12,0,.15,0,.06,0l-.15,0c.18,0,.12,0,.06,0l-.07,0c.14.07.1.08,0,0h0c.07.1,0,0,0,0s0,.13,0,0a.19.19,0,0,0,0-.08c0,.11,0,.14,0,.07v-.07a.13.13,0,0,1,0-.06c0-.07,0,0,0,.06s0-.09,0-.13a.14.14,0,0,0,0-.06c0-.06,0,0,0,0l.06-.11a.75.75,0,0,1,.07-.12s.13-.14,0,0c.07-.07.12-.14.18-.21a4.48,4.48,0,0,1,.4-.36l-1-.59-.69,2.21a.6.6,0,1,0,1.16.32Z"/><path class="cls-1" d="M15.77,34.17a5.06,5.06,0,0,0-2,4.46l1.12-.3A2.9,2.9,0,0,1,14.65,37c0-.06,0-.13,0-.19s0-.06,0-.09h0c0-.13.05-.25.08-.37a1.9,1.9,0,0,1,.12-.36h0l0-.09a1.18,1.18,0,0,1,.11-.19.61.61,0,0,0-.22-.82.6.6,0,0,0-.82.21,4.18,4.18,0,0,0-.12,3.83.6.6,0,0,0,1.12-.3,4.87,4.87,0,0,1,0-.54c0-.08,0-.17,0-.25s0-.1,0-.15,0,.08,0,0a5.37,5.37,0,0,1,.28-1,4.81,4.81,0,0,1,.5-.85s0,0,0,0l.1-.11a1.29,1.29,0,0,1,.16-.17l.19-.19.11-.09,0,0a.6.6,0,0,0-.61-1Z"/><path class="cls-1" d="M4.63,35.3a3.72,3.72,0,0,0,.06,3.63,3.29,3.29,0,0,0,2.94,1.85.6.6,0,0,0,0-1.2,1.45,1.45,0,0,1-.36,0c.14,0,0,0,0,0L7,39.51l-.14,0-.07,0a2.19,2.19,0,0,1-.29-.17l-.08-.06,0,0-.14-.12a1.88,1.88,0,0,1-.24-.25L6,38.78a.64.64,0,0,1-.1-.13,3.45,3.45,0,0,1-.2-.32,1,1,0,0,1-.07-.15l0-.1c0,.06,0,.06,0,0l-.1-.31a2.62,2.62,0,0,1-.09-.38s0-.16,0-.05c0-.08,0-.15,0-.22s0-.22,0-.33,0-.24,0-.11a.8.8,0,0,1,0-.15,1.58,1.58,0,0,1,.11-.37l0,0,.11-.2a.6.6,0,0,0-1-.6Z"/><path class="cls-1" d="M8.75,39.26a7.52,7.52,0,0,0-.13-7.5c-.41-.66-1.45-.06-1,.6a6.28,6.28,0,0,1,.13,6.29.6.6,0,0,0,1,.61Z"/><path class="cls-1" d="M6.52,29.85,7,28.12a.6.6,0,1,0-1.15-.32l-.53,1.73a.61.61,0,0,0,.42.74.62.62,0,0,0,.74-.42Z"/><path class="cls-1" d="M4.53,29l.53.57a.59.59,0,0,0,.19.13.49.49,0,0,0,.24,0,.48.48,0,0,0,.23,0,.5.5,0,0,0,.19-.13L6,29.44a.62.62,0,0,0,.09-.3l0-.16a.53.53,0,0,0-.15-.26l-.54-.58A.35.35,0,0,0,5.18,28a.47.47,0,0,0-.46,0,.35.35,0,0,0-.19.12l-.1.12a.67.67,0,0,0-.08.3l0,.16a.57.57,0,0,0,.16.27Z"/><path class="cls-1" d="M8.83,30.46a5.52,5.52,0,0,0-7.42-1.88c-.65.41,0,1.44.61,1a4.3,4.3,0,0,1,5.77,1.44c.41.66,1.45.05,1-.6Z"/><path class="cls-1" d="M2.45,30.52A2.79,2.79,0,0,0,3,34.84a.62.62,0,0,0,.82-.22.6.6,0,0,0-.22-.82l-.19-.11c-.1-.06,0,0,0,0s-.08-.07-.08-.08a1.21,1.21,0,0,1-.16-.16c-.09-.1.07.11,0,0l-.06-.09a2,2,0,0,1-.11-.2l0,0c0-.06,0-.05,0,0l0-.09a2,2,0,0,1-.07-.23s0-.08,0-.12v0h0c0,.08,0,0,0,0a.49.49,0,0,0,0-.12,1.93,1.93,0,0,1,0-.24v-.11c0-.14,0,.13,0,0s0-.15,0-.23A1.19,1.19,0,0,0,3,31.72s-.06.13,0,0l.06-.1.06-.1,0,0h0l0,0,.09-.1a.59.59,0,0,0,0-.84.6.6,0,0,0-.84,0Z"/><path class="cls-1" d="M4.27,34.23a1.24,1.24,0,0,0,1.31-.34A1.4,1.4,0,0,0,6,32.52a1.53,1.53,0,0,0-.88-.88A2.07,2.07,0,0,0,4,31.53a2,2,0,0,0-1.57,1.31A1.92,1.92,0,0,0,3.1,35a2.05,2.05,0,0,0,1.2.46A1.73,1.73,0,0,0,5.55,35a.6.6,0,1,0-.85-.85l-.06,0,0,0-.07,0c-.11.06.13,0,0,0l-.17,0h-.2s.16,0,.08,0h0l-.09,0L4,34.13l0,0-.1,0L3.81,34c-.08-.06.11.09,0,0L3.76,34l-.11-.12,0,0s.08.11.05.06a.35.35,0,0,0-.05-.08.8.8,0,0,1-.08-.16s0,.09,0,.08,0,0,0,0l0-.09s0-.06,0-.08,0,.13,0,0a.67.67,0,0,1,0-.2c0-.1,0,.14,0,.05s0-.06,0-.08l0-.09v0c0-.08,0,.07,0,.07l.08-.15L3.64,33c0-.07-.1.11,0,0l.11-.12.06,0-.06,0,0,0,.15-.08.07,0-.09,0,.06,0,.15,0,.09,0s.14,0,0,0,0,0,0,0h.07c.05,0,.14,0,.18,0s-.17,0-.06,0l.08,0,.08,0s.14.06,0,0,0,0,0,0l.08,0,.06,0c.07.05-.11-.1,0,0s.14.11.13.14-.08-.15,0-.06,0-.07,0-.07,0,.16,0,0,0,0,0,0V33s0-.15,0-.07a.45.45,0,0,0,0,.11s.06-.12,0-.07l0,0,0,0c0,.08.08-.09,0,0a.27.27,0,0,1-.07.08l0,0s.12-.08,0,0l-.09,0s.08,0,.08,0l-.07,0h0s.17,0,.08,0h0c-.07,0,0,0,.06,0l-.11,0a.58.58,0,0,0-.46.06.57.57,0,0,0-.28.36.62.62,0,0,0,.06.46.69.69,0,0,0,.36.27Z"/><path class="cls-1" d="M.13,35.31a5.61,5.61,0,0,0,2.36,5.88c.66.4,1.26-.63.6-1a4.37,4.37,0,0,1-1.8-4.52.63.63,0,0,0-.42-.74.61.61,0,0,0-.74.42Z"/><path class="cls-1" d="M2.81,38.93H5a.6.6,0,0,0,0-1.2H2.81a.61.61,0,0,0-.6.6.6.6,0,0,0,.6.6Z"/><path class="cls-1" d="M2.83,30.71a.17.17,0,0,1,0-.07l0,.16a1.15,1.15,0,0,1,0-.37l0,.16a1.64,1.64,0,0,1,.1-.38l-.06.15A1.31,1.31,0,0,1,3.07,30l-.1.12a1.72,1.72,0,0,1,.27-.27l-.12.1a1.4,1.4,0,0,1,.26-.16l-.14.06a1.34,1.34,0,0,1,.27-.07.63.63,0,0,0,.36-.28A.58.58,0,0,0,3.93,29a.6.6,0,0,0-.28-.36l-.14-.06a.58.58,0,0,0-.32,0A1.89,1.89,0,0,0,2,29.49,2.08,2.08,0,0,0,1.67,31a.63.63,0,0,0,.28.36.67.67,0,0,0,.46.06.66.66,0,0,0,.36-.28.66.66,0,0,0,.06-.46Z"/><path class="cls-1" d="M6.17,28.53h.1c-.08,0-.09,0,0,0h.48c.13,0-.11,0,0,0l.17,0a1.4,1.4,0,0,1,.29.09l.11,0,.11,0,.27.16.15.09s.14.12,0,0l.26.23a2,2,0,0,1,.24.26s.11.14,0,0l.08.12c.07.1.13.2.19.3a.91.91,0,0,1,.07.14s.1.22.05.09a4.19,4.19,0,0,1,.19.63s0,.07,0,.1,0-.08,0,0,0,.12,0,.18,0,.24,0,.36a.62.62,0,0,0,.6.6.62.62,0,0,0,.6-.6,3.9,3.9,0,0,0-4.37-4.05.6.6,0,0,0-.42.74.59.59,0,0,0,.73.41Z"/><path class="cls-1" d="M9,29.32a6,6,0,0,1,1.31,7c-.35.68.69,1.29,1,.6a7.17,7.17,0,0,0-1.51-8.43c-.58-.5-1.43.34-.84.85Z"/><path class="cls-1" d="M9.29,36.89a.25.25,0,0,0,0,.07l-.07-.14a.88.88,0,0,1,.05.15l0-.16a.54.54,0,0,1,0,.18l0-.16a.59.59,0,0,1-.05.19l.06-.14a.75.75,0,0,1-.1.17l.1-.13a.46.46,0,0,1-.12.12L9.31,37A.41.41,0,0,1,9.2,37L9.34,37l-.12,0,.16,0H9.26l.16,0L9.3,37l.15.06-.14-.08.12.09-.12-.12L9.4,37a.91.91,0,0,1-.09-.17l.06.15a.59.59,0,0,1,0-.19l0,.16a.43.43,0,0,1,0-.16l0,.16a.42.42,0,0,1,0-.15L9.3,37h0a.36.36,0,0,0,.07-.22.39.39,0,0,0,0-.24.61.61,0,0,0-.27-.36.64.64,0,0,0-.47-.06.56.56,0,0,0-.35.27,1.36,1.36,0,0,0-.14.56,1.56,1.56,0,0,0,.08.42,1.53,1.53,0,0,0,.29.47.87.87,0,0,0,.21.17.26.26,0,0,0,.11.07,1.09,1.09,0,0,0,.53.13A1,1,0,0,0,9.87,38a1.35,1.35,0,0,0,.56-.74,1.21,1.21,0,0,0-.11-1A.67.67,0,0,0,10,36a.62.62,0,0,0-.46.07.56.56,0,0,0-.27.35.59.59,0,0,0,.06.47Z"/><path class="cls-1" d="M2.13,31.52A2.67,2.67,0,0,0,.31,33.78a2.84,2.84,0,0,0,1.08,2.85.6.6,0,0,0,.61-1l-.07-.05c.07.06.08.06,0,0a.73.73,0,0,1-.09-.08,1,1,0,0,1-.1-.11s0,0,0,.05l-.05-.07a2,2,0,0,1-.14-.25s-.06-.15,0,0a.56.56,0,0,0,0-.12,2.86,2.86,0,0,1-.07-.28s0-.19,0-.09v-.09c0-.1,0-.2,0-.3a.62.62,0,0,0,0-.13.28.28,0,0,0,0-.09c0,.08,0,.1,0,0s.09-.37.15-.56-.05.1,0,0a1,1,0,0,1,.07-.15c0-.08.09-.15.14-.23s-.06.07,0,0L1.94,33l.11-.11s.14-.09,0,0l.23-.14c.11-.07-.11,0,0,0l.15,0a.6.6,0,1,0-.32-1.16Z"/><path class="cls-1" d="M.6,32.8A2.49,2.49,0,0,0,.5,35a2.29,2.29,0,0,0,1.63,1.42.62.62,0,0,0,.74-.41.6.6,0,0,0-.42-.74l-.2-.05-.09,0c-.05,0,.14.07,0,0L2,35.13c-.05,0-.08-.09,0,0L2,35.09,1.83,35l-.07-.08,0,0-.11-.17,0-.09s-.07-.15,0-.05,0,0,0,0l0-.09a1.41,1.41,0,0,1-.06-.22.36.36,0,0,0,0-.1c0,.06,0,.14,0,0a1.34,1.34,0,0,1,0-.2,1.23,1.23,0,0,1,0-.2c0,.17,0,.08,0,0l0-.1c0-.06.05-.13.06-.19,0,.09-.05.11,0,0l0,0,.06-.11a.6.6,0,0,0-.22-.82.61.61,0,0,0-.82.22Z"/><path class="cls-1" d="M3.29,39.83a2.79,2.79,0,0,0,4.81-.07.62.62,0,0,0-.22-.82.6.6,0,0,0-.82.22l-.15.26c-.07.1.07-.08,0,0l-.09.1c0,.06-.12.11-.18.17.12-.11,0,0,0,0l-.1.07-.13.06s-.16.06,0,0l-.24.08L6,40l-.06,0c.09,0,0,0-.09,0H5.46c-.14,0,0,0,0,0a.4.4,0,0,1-.15,0l-.25-.07s-.16-.07,0,0l-.12-.05-.23-.14c-.12-.08.06.06,0,0l-.09-.09-.09-.09s-.1-.13,0,0a1.4,1.4,0,0,1-.16-.26A.62.62,0,0,0,3.5,39a.61.61,0,0,0-.21.82Z"/><path class="cls-1" d="M7.28,41.29l1.61-.56a.62.62,0,0,0,.35-.27A.58.58,0,0,0,9.3,40a.6.6,0,0,0-.73-.42L7,40.14a.61.61,0,0,0-.36.27.6.6,0,0,0,.68.88Z"/><path class="cls-1" d="M44.38,74.5c16-12.35,36.94-15.2,56.57-12.44a170.12,170.12,0,0,1,31.62,8.12c9.34,3.22,19.26,7.06,29.33,5.71,8.61-1.15,16.78-6.23,19.92-14.59.27-.72-.89-1-1.16-.32-2.92,7.79-10.6,12.5-18.58,13.68-10.14,1.51-20.23-2.56-29.63-5.79-19.22-6.61-39.82-11.41-60.16-7.72A65.85,65.85,0,0,0,43.78,73.47c-.61.46,0,1.51.6,1Z"/><path class="cls-1" d="M47.05,74.15c8.87-3.92,17.88-7.8,27.4-9.87,9.36-2.05,18.83-1.9,27.84,1.54,4.41,1.68,8.59,3.87,12.88,5.82a86,86,0,0,0,13.19,4.82c7.78,2.12,16.2,3.48,24.26,2.42,7.44-1,14.71-4.29,18.29-11.22l-1.09-.46a3.79,3.79,0,0,1-2.29,2.63l.46,1.1,3.23-2.09c.64-.42,0-1.46-.61-1l-3.23,2.1c-.54.34-.2,1.35.47,1.09A5,5,0,0,0,171,67.52c.19-.64-.78-1.08-1.09-.46-3.32,6.4-9.95,9.54-16.83,10.56-8.22,1.22-16.89-.23-24.82-2.44a87.21,87.21,0,0,1-13.28-5c-4.1-1.9-8.12-4-12.34-5.57a48.31,48.31,0,0,0-26.47-1.95C65.79,64.65,56,68.88,46.44,73.11c-.7.31-.09,1.35.61,1Z"/><path class="cls-1" d="M89.14,27.86l-.46,2.79a.62.62,0,0,0,.42.74.61.61,0,0,0,.74-.42l.45-2.79a.62.62,0,0,0-.41-.74.61.61,0,0,0-.74.42Z"/><path class="cls-1" d="M88.89,28.23c0,.22,0,.45,0,.67a2.85,2.85,0,0,1,0,.29s0,.24,0,.08l0,.14a6,6,0,0,1-.34,1.24.61.61,0,0,0,.42.74.62.62,0,0,0,.74-.42,7.11,7.11,0,0,0,.45-2.74.62.62,0,0,0-.6-.6.6.6,0,0,0-.6.6Z"/><path class="cls-1" d="M88.69,27.8c0,.27,0,.53,0,.8s0,.27,0,.4a1.49,1.49,0,0,1,0,.21s0,.2,0,.09a11.71,11.71,0,0,1-.34,1.56.6.6,0,1,0,1.16.32,12.1,12.1,0,0,0,.47-3.38.6.6,0,0,0-.6-.6.61.61,0,0,0-.6.6Z"/><path class="cls-1" d="M89.14,27l-.44,3.23a.6.6,0,0,0,.42.73.59.59,0,0,0,.73-.42l.44-3.22a.61.61,0,0,0-.42-.74c-.28-.06-.69.09-.73.42Z"/><path class="cls-1" d="M89.33,26.35l-.39,2.16A.66.66,0,0,0,89,29a.59.59,0,0,0,.36.28.62.62,0,0,0,.74-.42l.39-2.16a.68.68,0,0,0-.07-.46.59.59,0,0,0-1.09.14Z"/><path class="cls-1" d="M89.27,25.43a7.22,7.22,0,0,1,0,1.61s0,.06,0,.09,0-.06,0,0l0,.17c0,.13,0,.27-.09.4a5,5,0,0,1-.24.78.6.6,0,0,0,1.16.32,7.37,7.37,0,0,0,.41-3.39.6.6,0,0,0-1.2,0Z"/><path class="cls-1" d="M88.89,26.07c0,2.6-.18,5.18-.43,7.76a.6.6,0,0,0,1.2,0c.25-2.58.39-5.16.43-7.76a.6.6,0,0,0-1.2,0Z"/><path class="cls-1" d="M88.67,29.09a43.32,43.32,0,0,1-.56,8c-.12.75,1,1.08,1.16.31a45.76,45.76,0,0,0,.6-8.35.6.6,0,0,0-1.2,0Z"/><path class="cls-1" d="M88.68,31.89a34.08,34.08,0,0,1-.57,7.61c-.15.75,1,1.07,1.15.31a34.49,34.49,0,0,0,.62-7.92c0-.77-1.23-.77-1.2,0Z"/><path class="cls-1" d="M88.47,34.05a30.51,30.51,0,0,1-.36,7,.63.63,0,0,0,.42.74.61.61,0,0,0,.74-.42,31.62,31.62,0,0,0,.4-7.27c0-.77-1.25-.77-1.2,0Z"/><path class="cls-1" d="M88.27,37.07v5.6a.6.6,0,0,0,1.2,0v-5.6a.6.6,0,0,0-1.2,0Z"/><path class="cls-1" d="M88.29,39a32,32,0,0,0,.12,5.18.62.62,0,0,0,.6.6.61.61,0,0,0,.6-.6A32,32,0,0,1,89.49,39a.6.6,0,0,0-.6-.6.61.61,0,0,0-.6.6Z"/><path class="cls-1" d="M88.43,40.73l.24,3.88a.6.6,0,0,0,1.2,0l-.24-3.88a.6.6,0,1,0-1.2,0Z"/><path class="cls-1" d="M88.66,42.24a12,12,0,0,0,.24,3,8.82,8.82,0,0,0,1,2.78,2.16,2.16,0,0,0,2.21,1.25,2.3,2.3,0,0,0,1.42-2l-1.18-.16c0,.32-.35.74-.71.66a.78.78,0,0,1-.51-.86.61.61,0,0,0-.6-.6.6.6,0,0,0-.6.6,1.82,1.82,0,1,0,3.62.2A.6.6,0,0,0,92.37,47c-.07.31-.2,1.2-.67,1.14s-.9-.9-1.07-1.32a10.73,10.73,0,0,1-.77-4.61c0-.77-1.17-.77-1.2,0Z"/><path class="cls-1" d="M89.48,30.17v3.75a.6.6,0,0,0,1.2,0l0-3.41c0-.79-1.12-.74-1.2,0l-.83,7.2a.6.6,0,0,0,.6.6.61.61,0,0,0,.6-.6l.83-7.2h-1.2l0,3.41h1.2V30.17a.6.6,0,0,0-1.2,0Z"/><path class="cls-1" d="M101.79,34.53l2.08-3-1.12-.3A3.45,3.45,0,0,1,102,33.4l.94.73a9.19,9.19,0,0,1,1.72-2.42l-1-.42-1,10.12-.23,2.42a3.8,3.8,0,0,0,.06,2,1,1,0,0,0,2-.34c.09-.77-1.11-.76-1.2,0a.56.56,0,0,0,.29-.59l0-.22c0-.34.06-.67.09-1l.16-1.71.35-3.56.68-7.13a.6.6,0,0,0-1-.43,9.73,9.73,0,0,0-1.91,2.67c-.28.57.48,1.28.94.72a4.8,4.8,0,0,0,1.14-3,.61.61,0,0,0-1.12-.31l-2.07,3c-.45.63.59,1.23,1,.6Z"/><path class="cls-1" d="M103.53,40.73a14.48,14.48,0,0,1-.38,4.15.6.6,0,1,0,1.16.32,15.64,15.64,0,0,0,.42-4.47.62.62,0,0,0-.6-.6.6.6,0,0,0-.6.6Z"/><path class="cls-1" d="M103.77,40.09l-.43,4.09a.6.6,0,0,0,1.2,0l.43-4.09a.6.6,0,1,0-1.2,0Z"/><path class="cls-1" d="M103.94,38.14a13.69,13.69,0,0,1-1,5,.59.59,0,0,0,.41.73.6.6,0,0,0,.74-.42,14.25,14.25,0,0,0,1-5.33.6.6,0,0,0-1.2,0Z"/><path class="cls-1" d="M103.55,38.14a19.64,19.64,0,0,1-1,6.32c-.24.73.92,1,1.16.32a20.79,20.79,0,0,0,1-6.64.6.6,0,0,0-1.2,0Z"/><path class="cls-1" d="M104,37.29a43.48,43.48,0,0,1-1,5.65.6.6,0,0,0,1.16.32,46.68,46.68,0,0,0,1.07-6,.6.6,0,0,0-.6-.6.62.62,0,0,0-.6.6Z"/><path class="cls-1" d="M103.06,43a2,2,0,0,0-.12,1.45,1.91,1.91,0,0,0,.85,1.13.61.61,0,0,0,.82-.21.6.6,0,0,0-.21-.82l-.11-.08.12.1a1.25,1.25,0,0,1-.23-.23l.1.12a1.13,1.13,0,0,1-.19-.32l.06.15a1.72,1.72,0,0,1-.1-.39l0,.16a2.29,2.29,0,0,1,0-.37l0,.16a1,1,0,0,1,.09-.34l-.06.14,0,0a.67.67,0,0,0,.06-.46.63.63,0,0,0-.28-.36.61.61,0,0,0-.82.21Z"/><path class="cls-1" d="M37.42,13.58a2.54,2.54,0,0,0,1.52,2.27,2.3,2.3,0,0,0,2.53-.62.62.62,0,0,0,0-.85.61.61,0,0,0-.85,0l-.17.17-.05,0c.05,0,.06-.05,0,0l-.09.06-.12.06s-.13.06,0,0,0,0,0,0l-.13,0-.13,0c-.11,0,.09,0,0,0h-.23s-.15,0,0,0-.05,0-.07,0a2,2,0,0,0-.23-.07c.06,0,.1,0,0,0l-.09-.05a.44.44,0,0,1-.11-.08l0,0,0,0-.16-.15s-.12-.11,0,0a.41.41,0,0,1-.07-.11l-.11-.19,0-.06,0,0a.49.49,0,0,1,0-.11l-.06-.24c0-.14,0,.13,0,0a.57.57,0,0,1,0-.13.6.6,0,1,0-1.2,0Z"/><path class="cls-1" d="M38.7,14.78h.07l-.16,0a3,3,0,0,1,.72.2l-.15-.06.34.17.14.09.09.06c.09.07-.11-.08,0,0l.59-1-.51-.11a.61.61,0,0,0-.68.27.6.6,0,0,0,.1.73,1.38,1.38,0,0,0,1.91,0,.59.59,0,0,0,0-.85.61.61,0,0,0-.84,0c-.08.07.13-.08,0,0l-.1,0,.14-.06-.21.06.16,0h-.22l.16,0a.79.79,0,0,1-.22-.06l.15.06-.1,0c-.13-.08.08.08,0,0l-.59,1,.51.12a.63.63,0,0,0,.68-.28.79.79,0,0,0,.08-.3.62.62,0,0,0-.18-.43,4.18,4.18,0,0,0-.93-.56,3.46,3.46,0,0,0-.95-.22.61.61,0,0,0-.42.17.69.69,0,0,0-.18.43.62.62,0,0,0,.18.42.67.67,0,0,0,.42.18Z"/><path class="cls-1" d="M51.91.48l-.8-.21a.64.64,0,0,0-.47.06.46.46,0,0,0-.16.15.43.43,0,0,0-.11.21.58.58,0,0,0,.06.46.58.58,0,0,0,.36.27l.8.22a.61.61,0,0,0,.46-.06.5.5,0,0,0,.17-.15.53.53,0,0,0,.11-.21.62.62,0,0,0-.06-.46.71.71,0,0,0-.36-.28Z"/><path class="cls-1" d="M116.93,28.94a4.32,4.32,0,0,0-4.32,1.86,3.14,3.14,0,0,0-.58,2.44,1.61,1.61,0,0,0,.84,1,2.86,2.86,0,0,0,1.39.2,8.54,8.54,0,0,0,3.36-.91.6.6,0,0,0,.21-.82.61.61,0,0,0-.82-.21,7.45,7.45,0,0,1-2.22.69,4.5,4.5,0,0,1-1.16,0h0l-.13,0a.26.26,0,0,1-.14-.06c.05,0-.11-.11-.06,0a.63.63,0,0,0-.07-.12.81.81,0,0,1,0-.31,1.77,1.77,0,0,1,0-.23c0-.07,0,0,0,0l0-.16c0-.07,0-.14.07-.22a.56.56,0,0,1,0-.12h0a3.37,3.37,0,0,1,.25-.46,3.31,3.31,0,0,1,1.26-1.14l.12-.05.1,0,.19-.07a4.7,4.7,0,0,1,.51-.12h.4a1.86,1.86,0,0,1,.46,0,.62.62,0,0,0,.74-.42.61.61,0,0,0-.42-.74Z"/><path class="cls-1" d="M116.26,30.67l.42-.24a1.21,1.21,0,0,0,.2-.14,1,1,0,0,0,.13-.16s0,0,0-.05a.7.7,0,0,0,.08-.2,1,1,0,0,0,0-.54,1.42,1.42,0,0,0-.12-.25,1.09,1.09,0,0,0-.23-.25l-.11-.07-.16-.07h0a.79.79,0,0,0-.43,0,.65.65,0,0,0-.36.27.48.48,0,0,0-.07.23.49.49,0,0,0,0,.24.61.61,0,0,0,.28.35.57.57,0,0,0,.46.06h0l-.16,0h.06l-.15,0,.05,0-.14-.07.07,0-.13-.09.07.06-.1-.12.07.11-.06-.14,0,.11,0-.16v.1l0-.16s0,.05,0,.08l.06-.15s0,.05,0,.06l.1-.12a.08.08,0,0,1,0,0l.13-.1-.49.28a.66.66,0,0,0-.28.36.49.49,0,0,0,0,.24.48.48,0,0,0,.07.23.61.61,0,0,0,.82.21Z"/><path class="cls-1" d="M116.29,34.6a3.23,3.23,0,0,1,.84-.31,5.43,5.43,0,0,1,.88-.11,3,3,0,0,1,1.68.36.61.61,0,0,0,.82-.22.6.6,0,0,0-.21-.82A4.27,4.27,0,0,0,118,33a7.42,7.42,0,0,0-1.2.15,5.16,5.16,0,0,0-1.13.43.6.6,0,0,0,.61,1Z"/><path class="cls-1" d="M113.71,42.48a4.24,4.24,0,0,0,6.41-1.22c.36-.68-.67-1.29-1-.6A3,3,0,0,1,117,42.21a2.83,2.83,0,0,1-2.41-.57.61.61,0,0,0-.85,0,.59.59,0,0,0,0,.84Z"/><path class="cls-1" d="M125.4,31.63a.6.6,0,0,0,0-1.2.6.6,0,0,0,0,1.2Z"/><path class="cls-1" d="M125,30.35a3.74,3.74,0,0,0-1.77,3,.59.59,0,0,0,.6.6.62.62,0,0,0,.6-.6,1.21,1.21,0,0,1,0-.19c0-.08,0,0,0,0s0-.06,0-.09,0-.24.08-.36l.06-.17,0-.09c0-.1,0,.09,0,0a2,2,0,0,1,.17-.32A2.82,2.82,0,0,1,125,32c.08-.11-.06.07,0,0l.06-.07.12-.12c.08-.09.18-.16.26-.24s-.09.07,0,0l.08-.05.15-.1a.61.61,0,0,0,.22-.82.61.61,0,0,0-.82-.22Z"/><path class="cls-1" d="M139.46,34.35l-.12-.11c0-.05,0,0,0,0s0,.1,0,.13a2.38,2.38,0,0,1-.15.55l-.47,1.55-1,3.15a.6.6,0,0,0,1.16.32l1.16-3.84c.24-.8,1-2.63-.3-3a.6.6,0,0,0-.32,1.16Z"/><path class="cls-1" d="M138.45,36.42a25,25,0,0,1-1,5.88.6.6,0,0,0,1.16.32,26.59,26.59,0,0,0,1-6.2c0-.77-1.17-.77-1.2,0Z"/><path class="cls-1" d="M138.66,36.64c-.12,1.75-.29,3.49-.53,5.23a.62.62,0,0,0,.42.74.59.59,0,0,0,.73-.42c.26-1.84.46-3.7.58-5.55a.6.6,0,0,0-1.2,0Z"/><path class="cls-1" d="M139.07,36.85a34.81,34.81,0,0,1-.44,4.79.61.61,0,0,0,.42.74.6.6,0,0,0,.73-.42,36.52,36.52,0,0,0,.49-5.11.6.6,0,0,0-1.2,0Z"/><path class="cls-1" d="M139.33,37.57a45,45,0,0,1-1.48,5.58c-.25.73.91,1.05,1.15.32a43,43,0,0,0,1.48-5.59.6.6,0,1,0-1.15-.31Z"/><path class="cls-1" d="M138.47,41.38a12.1,12.1,0,0,0,.14,3.4.61.61,0,0,0,.74.42.62.62,0,0,0,.42-.74c0-.13,0-.27-.07-.4h0s0-.09,0-.13a1.11,1.11,0,0,1,0-.19q0-.39-.06-.78a12.08,12.08,0,0,1,.06-1.59.6.6,0,0,0-.6-.6.61.61,0,0,0-.6.6Z"/><path class="cls-1" d="M138.6,42.27a3.91,3.91,0,0,0,1.12,3.83,3.42,3.42,0,0,0,4,.31.6.6,0,0,0-.6-1,1.78,1.78,0,0,1-.68.3l-.19,0h-.12a2.94,2.94,0,0,1-.42,0h-.09l-.19,0-.22,0-.12-.05a1.66,1.66,0,0,1-.35-.18,1,1,0,0,1-.26-.19,2,2,0,0,1-.43-.52,2.42,2.42,0,0,1-.3-.66,2.71,2.71,0,0,1,0-1.44.61.61,0,0,0-.42-.74.61.61,0,0,0-.73.42Z"/><path class="cls-1" d="M152.43,33.38a2.15,2.15,0,0,0,1.63,1.48l.32-1.16-1.1-.15a.6.6,0,0,0-.46,1.09,3.48,3.48,0,0,0,3.59.14.6.6,0,0,0-.61-1l-.17.09c-.06,0-.06,0,0,0l-.09,0-.33.1L155,34H155a2.16,2.16,0,0,1-.36,0h-.25L154,33.9l-.16-.06c-.06,0-.06,0,0,0l-.09,0a2.27,2.27,0,0,1-.34-.19L153,34.7l1.1.16a.73.73,0,0,0,.46-.06.71.71,0,0,0,.28-.36.61.61,0,0,0-.42-.74l-.17,0-.11,0c-.07,0,.1,0,0,0l-.16-.08-.07-.05c-.07,0,.1.09,0,0l-.13-.12-.06-.07s.06.09,0,0l-.1-.17s-.05-.11,0,0,0,0,0,0a.6.6,0,1,0-1.15.32Z"/><path class="cls-1" d="M177.65,35.62a4.56,4.56,0,0,0,4.1-.85,5,5,0,0,0,1.4-1.67,2.59,2.59,0,0,0,.25-2.49,2.07,2.07,0,0,0-2.33-.51.6.6,0,0,0,.32,1.15l.25-.05.12,0h.42c-.06,0-.05,0,0,0s.23.08.13,0,.06,0,0,0a.6.6,0,0,1,.08.08s0,0,0,.08a1.5,1.5,0,0,1,0,.22,3.49,3.49,0,0,1-.92,1.8,3.85,3.85,0,0,1-1.64,1,3.05,3.05,0,0,1-1.89,0,.6.6,0,0,0-.32,1.15Z"/><path class="cls-1" d="M177.59,35.79a6.32,6.32,0,0,0,3.82.19c1.38-.5,1.9-1.82,2.13-3.17s.23-2.73-1.27-3.12-2.77.63-3.73,1.57a15.52,15.52,0,0,0-4.25,7.94c-.29,1.46-.5,3,.41,4.26a6.83,6.83,0,0,0,3.46,2.47,6.09,6.09,0,0,0,7.54-3.77c.28-.72-.88-1-1.15-.32a4.88,4.88,0,0,1-5,3.17,5.59,5.59,0,0,1-3-1.3,3.24,3.24,0,0,1-1.3-3,14.62,14.62,0,0,1,2.25-6.28A13.52,13.52,0,0,1,179.56,32c.58-.54,2.71-2,2.92-.42a5.17,5.17,0,0,1-.28,1.82,2.08,2.08,0,0,1-1.08,1.46,4.86,4.86,0,0,1-3.21-.18.6.6,0,0,0-.32,1.16Z"/><path class="cls-1" d="M175.48,37.33a9.09,9.09,0,0,0-.58,4.44,5,5,0,0,0,.56,2A3.17,3.17,0,0,0,177,45a6.82,6.82,0,0,0,7.18-1.2c.58-.51-.27-1.36-.85-.85a5.61,5.61,0,0,1-5.76,1,2.11,2.11,0,0,1-1.17-1,4.8,4.8,0,0,1-.35-1.67,8.4,8.4,0,0,1,.57-3.68.6.6,0,0,0-.42-.74.61.61,0,0,0-.73.42Z"/><path class="cls-1" d="M174.38,40.73a5.21,5.21,0,0,0,.1,1.67.59.59,0,0,0,.28.36.6.6,0,0,0,.88-.68c0-.12,0-.24-.07-.36l0,.16a4.92,4.92,0,0,1,0-1.15.62.62,0,0,0-.6-.6.6.6,0,0,0-.42.18.64.64,0,0,0-.18.42Z"/><path class="cls-1" d="M181.19,35.4h.11a.66.66,0,0,0,.42-.17.41.41,0,0,0,.12-.2.44.44,0,0,0,.06-.23l0-.16a.53.53,0,0,0-.15-.26l-.12-.1a.67.67,0,0,0-.3-.08h-.11a.64.64,0,0,0-.23,0,.59.59,0,0,0-.19.13.39.39,0,0,0-.12.19.46.46,0,0,0-.06.23l0,.16a.61.61,0,0,0,.15.27l.12.09a.56.56,0,0,0,.3.08Z"/><path class="cls-1" d="M162.52,32a4.36,4.36,0,0,1,.11.52v0a.52.52,0,0,1,0,.14c0,.09,0,.17,0,.26a4.69,4.69,0,0,1,0,.53c0,.08,0,.16,0,.24s0,.08,0,.12,0,.06,0,0v.08a.64.64,0,0,0,.06.47.61.61,0,0,0,.36.27.6.6,0,0,0,.74-.42,6.15,6.15,0,0,0-.11-2.49.62.62,0,0,0-.74-.42.63.63,0,0,0-.42.74Z"/></g></g></svg>